<?xml version="1.0" encoding="utf-8"?>
<!DOCTYPE svg PUBLIC "-//W3C//DTD SVG 1.1//EN" "http://www.w3.org/Graphics/SVG/1.1/DTD/svg11.dtd">
<svg version="1.1" xmlns="http://www.w3.org/2000/svg" xmlns:xlink="http://www.w3.org/1999/xlink" x="0px" y="0px" width="893px"
	 height="703px" viewBox="0 0 893 703" enable-background="new 0 0 893 703" xml:space="preserve">
<filter width="1.1319662" height="1.2311034" color-interpolation-filters="sRGB" y="-0.11555172" x="-0.065983124" id="filter6570">
	<feGaussianBlur stdDeviation="0.66074208" id="feGaussianBlur6572"></feGaussianBlur>
</filter>
<filter color-interpolation-filters="sRGB" id="filter6474">
	<feGaussianBlur stdDeviation="1.1621011" id="feGaussianBlur6476"></feGaussianBlur>
</filter>
<filter width="1.3749251" height="1.1764872" color-interpolation-filters="sRGB" y="-0.088243589" x="-0.18746257" id="filter4215">
	<feGaussianBlur stdDeviation="0.75368185" id="feGaussianBlur4217"></feGaussianBlur>
</filter>
<filter width="1.4733552" height="1.1830436" color-interpolation-filters="sRGB" y="-0.0915218" x="-0.23667762" id="filter4205">
	<feGaussianBlur stdDeviation="0.56070564" id="feGaussianBlur4207"></feGaussianBlur>
</filter>
<filter width="1.6932493" height="1.14512" color-interpolation-filters="sRGB" y="-0.072559983" x="-0.34662467" id="filter4186">
	<feGaussianBlur stdDeviation="0.74129452" id="feGaussianBlur4188"></feGaussianBlur>
</filter>
<filter width="2.7092595" height="1.1290607" color-interpolation-filters="sRGB" y="-0.06453041" x="-0.8546297" id="filter4180">
	<feGaussianBlur stdDeviation="1.0915771" id="feGaussianBlur4182"></feGaussianBlur>
</filter>
<filter color-interpolation-filters="sRGB" id="filter3884">
	<feGaussianBlur result="result6" stdDeviation="1.5" id="feGaussianBlur3886"></feGaussianBlur>
	<feComposite in="SourceGraphic" operator="atop" in2="result6" result="result8" id="feComposite3888"></feComposite>
	<feComposite in="result8" operator="atop" in2="SourceAlpha" result="result9" id="feComposite3890"></feComposite>
</filter>
<filter width="1.3566767" height="1.8250941" color-interpolation-filters="sRGB" y="-0.41254702" x="-0.17833833" id="filter3882">
	<feGaussianBlur stdDeviation="0.18989019" id="feGaussianBlur3884"></feGaussianBlur>
</filter>
<filter color-interpolation-filters="sRGB" id="filter3865">
	<feGaussianBlur result="result6" stdDeviation="1.5" id="feGaussianBlur3867"></feGaussianBlur>
	<feComposite in="SourceGraphic" operator="atop" in2="result6" result="result8" id="feComposite3869"></feComposite>
	<feComposite in="result8" operator="atop" in2="SourceAlpha" result="result9" id="feComposite3871"></feComposite>
</filter>
<filter color-interpolation-filters="sRGB" id="filter3860">
	<feGaussianBlur result="result6" stdDeviation="1.5" id="feGaussianBlur3862"></feGaussianBlur>
	<feComposite in="SourceGraphic" operator="atop" in2="result6" result="result8" id="feComposite3864"></feComposite>
	<feComposite in="result8" operator="atop" in2="SourceAlpha" result="result9" id="feComposite3866"></feComposite>
</filter>
<filter color-interpolation-filters="sRGB" id="filter3855">
	<feGaussianBlur result="result8" stdDeviation="7.1521428571428567" id="feGaussianBlur3857"></feGaussianBlur>
	<feOffset dx="-1.1627906976744207" dy="-0.58139534883721034" result="result11" id="feOffset3859"></feOffset>
	<feComposite in="SourceGraphic" operator="in" in2="result11" result="result6" id="feComposite3861"></feComposite>
	<feFlood flood-opacity="1" in="result6" flood-color="rgb(0,0,0)" result="result10" id="feFlood3863"></feFlood>
	<feBlend mode="normal" in="result6" in2="result10" result="result12" id="feBlend3865"></feBlend>
	<feComposite operator="in" in2="SourceGraphic" result="result2" id="feComposite3867"></feComposite>
</filter>
<filter width="1.1658033" height="1.3730123" color-interpolation-filters="sRGB" y="-0.18650614" x="-0.082901634" id="filter3846">
	<feGaussianBlur stdDeviation="0.51196698" id="feGaussianBlur3848"></feGaussianBlur>
</filter>
<filter width="1.1953913" height="1.5789371" color-interpolation-filters="sRGB" y="-0.28946856" x="-0.097695656" id="filter3814">
	<feGaussianBlur stdDeviation="1.1630436" id="feGaussianBlur3816"></feGaussianBlur>
</filter>
<filter width="1.2050658" height="1.2607129" color-interpolation-filters="sRGB" y="-0.13035645" x="-0.10253289" id="filter3781">
	<feGaussianBlur stdDeviation="2.3957081" id="feGaussianBlur3783"></feGaussianBlur>
</filter>
<filter width="1.2237082" height="1.2844141" color-interpolation-filters="sRGB" y="-0.14220703" x="-0.11185406" id="filter3773">
	<feGaussianBlur stdDeviation="2.6134997" id="feGaussianBlur3775"></feGaussianBlur>
</filter>
<filter width="1.4129108" height="1.6712608" color-interpolation-filters="sRGB" y="-0.33563039" x="-0.20645539" id="filter3764">
	<feGaussianBlur stdDeviation="2.7872198" id="feGaussianBlur3766"></feGaussianBlur>
</filter>
<filter width="1.3569157" height="1.2188178" color-interpolation-filters="sRGB" y="-0.10940888" x="-0.17845786" id="filter3760">
	<feGaussianBlur stdDeviation="1.4412817" id="feGaussianBlur3762"></feGaussianBlur>
</filter>
<filter width="1.1913935" height="1.229437" color-interpolation-filters="sRGB" y="-0.11471852" x="-0.095696725" id="filter3744">
	<feGaussianBlur stdDeviation="2.6752717" id="feGaussianBlur3746"></feGaussianBlur>
</filter>
<g id="svg2" sodipodi:docname="Heart Ready and Ready.svg" inkscape:version="0.47 r22583" xmlns:dc="http://purl.org/dc/elements/1.1/" xmlns:cc="http://creativecommons.org/ns#" xmlns:rdf="http://www.w3.org/1999/02/22-rdf-syntax-ns#" xmlns:svg="http://www.w3.org/2000/svg" xmlns:sodipodi="http://sodipodi.sourceforge.net/DTD/sodipodi-0.dtd" xmlns:inkscape="http://www.inkscape.org/namespaces/inkscape">
	
		<sodipodi:namedview inkscape:current-layer="layer1" inkscape:window-maximized="1" inkscape:window-y="-8" inkscape:window-x="-8" inkscape:window-height="706" inkscape:pageshadow="2" inkscape:pageopacity="0" inkscape:window-width="1366" inkscape:cy="354.12746" inkscape:cx="428.89664" inkscape:zoom="0.62813389" showgrid="false" guidetolerance="10" gridtolerance="10" pagecolor="#ffffff" borderopacity="1" bordercolor="#666666" objecttolerance="10" id="namedview600">
		</sodipodi:namedview>
	<defs>
		
		
			<inkscape:perspective inkscape:persp3d-origin="446.5 : 234.33333 : 1" inkscape:vp_z="893 : 351.5 : 1" inkscape:vp_y="0 : 1000 : 0" inkscape:vp_x="0 : 351.5 : 1" sodipodi:type="inkscape:persp3d" id="perspective604">
			</inkscape:perspective>
	</defs>
	<path id="path6542" fill="#DF1A35" stroke="#820707" d="M596.443,318.029c22.834-24.704,49.853-26.064,49.853-26.064
		c9.457,2.849,0.58,15.832,0.58,15.832s-27.18,2.582-43.481,20.526l-0.137,0.805L596.443,318.029L596.443,318.029z"/>
	<path id="path6478" fill="#DF1A35" stroke="#7C0000" d="M584.066,301.423c18.377-28.177,42.88-31.854,42.88-31.854
		c9.801,1.225,6.534,11.842,6.534,11.842s-27.769,8.576-40.837,28.994v0.817l-8.576-9.801L584.066,301.423z"/>
	<g id="g6290" transform="translate(-269.95496,98.009125)">
		<g id="path6277" filter="url(#filter3865)">
			<path fill="#FD1E32" d="M574.856,167.469c-4.748,0.223-9.137,3.361-6.769,7.956c3.552,6.892,18.669,27.645,16.091,27.609
				c-15.6-0.213-25.175,5.581-25.175,5.581c-6.406,8.564-3.672,18.373,1.841,18.169c0,0,11.181-5.438,29.092-5.106
				c13.771,0.256,28.136,0.23,42.691,0.06v-16.328c-9.032-0.516-17.622-1.366-25.412-2.672
				c-7.467-1.252-16.823-21.964-24.759-32.182c-1.771-2.28-4.752-3.221-7.601-3.087V167.469z"/>
			<path fill="none" stroke="#F70000" d="M574.856,167.469c-4.748,0.223-9.137,3.361-6.769,7.956
				c3.552,6.892,18.669,27.645,16.091,27.609c-15.6-0.213-25.175,5.581-25.175,5.581c-6.406,8.564-3.672,18.373,1.841,18.169
				c0,0,11.181-5.438,29.092-5.106c13.771,0.256,28.136,0.23,42.691,0.06v-16.328c-9.032-0.516-17.622-1.366-25.412-2.672
				c-7.467-1.252-16.823-21.964-24.759-32.182c-1.771-2.28-4.752-3.221-7.601-3.087V167.469z"/>
		</g>
		
			<linearGradient id="path6279_1_" gradientUnits="userSpaceOnUse" x1="552.6063" y1="10.9499" x2="548.5963" y2="8.9099" gradientTransform="matrix(-2.4949 0 0 -2.3419 1933.4779 239.9524)">
			<stop offset="0" style="stop-color:#FD1E32"/>
			<stop offset="1" style="stop-color:#8D010E"/>
		</linearGradient>
		
			<path id="path6279" fill="url(#path6279_1_)" stroke="#7C0000" stroke-width="0.8581" stroke-linecap="round" stroke-linejoin="round" d="
			M555.19,217.58c0,5.004,2.881,9.061,6.435,9.061s6.435-4.057,6.435-9.061c0-5.004-2.881-9.061-6.435-9.061
			C558.071,208.52,555.19,212.576,555.19,217.58z"/>
		<g id="path6281" filter="url(#filter3846)">
			<path fill="#F17171" d="M591.978,205.093c-4.212,0.835-18.129,3.833-28.658,4.562
				C573.209,206.307,586.914,203.228,591.978,205.093z"/>
		</g>
		<g id="path6283" filter="url(#filter3846)">
			<path fill="#F17A7A" d="M576.829,168.118c2.405,3.557,10.188,15.478,17.157,23.403
				C589.314,182.185,581.74,170.355,576.829,168.118z"/>
		</g>
	</g>
	<g id="path3863" filter="url(#filter6570)">
		<path fill="#FD1E32" d="M626.699,273.493c-15.48,3.816-28.737,14.644-37.821,27.609c3.656,8.231,7.284-3.524,11.519-5.344
			c8.471-8.071,20.343-12.712,29.807-17.991C630.363,275.479,629.227,273.407,626.699,273.493L626.699,273.493z"/>
	</g>
	<g id="path3875" filter="url(#filter6570)">
		<path fill="#FD1E32" d="M645.743,295.856c-16.791,2.046-32.621,10.64-44.502,22.678c2.248,8.823,7.561-2.213,12.045-3.194
			c9.527-5.957,20.818-9.098,31.447-11.404C645.484,302.244,648.55,296.964,645.743,295.856L645.743,295.856z"/>
	</g>
	<path id="path3916" fill="#E52739" stroke="#C30000" d="M638.586,622.371c71.056-17.969,49.208-108.627,49.208-108.627
		s9.607-143.334-89.986-219.772l77.736,184.659l-14.701,111.893l-26.34,22.868l4.084,8.984L638.586,622.371z"/>
	<path id="path3807" fill="#FD1E32" stroke="#8A020C" d="M523.851,662.461c4.784-164.504-25.95-436.125-25.95-436.125l62.89-10.209
		c0,0,37.479,421.325,24.772,444.429c0,22.928-61.712,29.4-61.712,1.893V662.461z"/>
	<g id="path3918" filter="url(#filter3855)">
		<polygon fill="#FF444B" points="557.115,346.339 536.696,396.979 526.896,453.334 615.92,595.446 675.542,553.793 
			657.573,402.695 626.537,349.607 609.385,379.01 606.935,408.412 579.981,404.328 575.081,362.675 557.112,346.34 		"/>
		<polygon fill="none" stroke="#000000" points="557.115,346.339 536.696,396.979 526.896,453.334 615.92,595.446 675.542,553.793 
			657.573,402.695 626.537,349.607 609.385,379.01 606.935,408.412 579.981,404.328 575.081,362.675 557.112,346.34 		"/>
	</g>
	
		<linearGradient id="path3948_1_" gradientUnits="userSpaceOnUse" x1="105.6157" y1="67.2881" x2="139.2557" y2="91.6981" gradientTransform="matrix(1.9 0 0 -1.9 361.4096 496.2693)">
		<stop offset="0" style="stop-color:#DD0008"/>
		<stop offset="0.3952" style="stop-color:#FA555B"/>
		<stop offset="0.5336" style="stop-color:#F13E45"/>
		<stop offset="1" style="stop-color:#E60009"/>
	</linearGradient>
	<path id="path3948" fill="url(#path3948_1_)" d="M606.12,410.046l-26.137-2.829l-4.083-46.176l-16.335-29.402l4.492,0.408
		c0,0,4.083-8.167,0.816-23.685l-2.858-13.476l15.109-4.492h16.335l24.503,32.262l10.617,26.953l-16.743,22.46l-5.717,37.979
		V410.046z"/>
	<path id="path3913" fill="#FD1E32" stroke="#000000" d="M531.119,419.774C497.212,426.927,429.693,361.8,407.502,317.3
		l37.721,24.966l27.596-111.494c0,0,0.444,81.288,84.299,122.111l-25.996,66.892H531.119z"/>
	
		<radialGradient id="path3897_1_" cx="112.9834" cy="94.9536" r="30.873" gradientTransform="matrix(2.7112 0.4254 0.4201 -2.6775 179.4209 508.3407)" gradientUnits="userSpaceOnUse">
		<stop offset="0" style="stop-color:#000000"/>
		<stop offset="0.2585" style="stop-color:#060D11"/>
		<stop offset="0.456" style="stop-color:#192A35"/>
		<stop offset="1" style="stop-color:#81C5EF"/>
	</radialGradient>
	<path id="path3897" fill="url(#path3897_1_)" stroke="#000000" d="M466.016,324.964l1.732,24.255l15.594,12.705l20.214-7.508
		l5.775,5.775l7.508,8.663l9.24,4.62l23.678-10.973l12.128-23.101l-3.465-15.016l-32.92-22.522l-32.342,1.732l-27.143,21.369
		V324.964z"/>
	
		<linearGradient id="path3834_1_" gradientUnits="userSpaceOnUse" x1="-1.1445" y1="-6.8994" x2="25.3647" y2="-2.8595" gradientTransform="matrix(1.9 0 0 -1.9 361.4096 496.2693)">
		<stop offset="0" style="stop-color:#116DAE"/>
		<stop offset="0.3428" style="stop-color:#1782CE"/>
		<stop offset="1" style="stop-color:#1066A3"/>
	</linearGradient>
	<path id="path3834" fill="url(#path3834_1_)" stroke="#034484" d="M346.859,394.771c1.92,74.853,23.032,216.885,23.032,216.885
		c10.556,15.834,54.699,5.278,59.977-1.919c0,0-28.31-138.189-28.31-217.836l0.96-0.959l-55.659,3.838V394.771z"/>
	<g id="path3809" filter="url(#filter3855)">
		
			<linearGradient id="SVGID_1_" gradientUnits="userSpaceOnUse" x1="15.6289" y1="-37.9131" x2="108.4482" y2="35.0363" gradientTransform="matrix(1.9 0 0 -1.9 361.4096 496.2693)">
			<stop offset="0" style="stop-color:#92BCD9"/>
			<stop offset="0.5" style="stop-color:#356F95"/>
			<stop offset="1" style="stop-color:#CCE2ED"/>
		</linearGradient>
		<path fill="url(#SVGID_1_)" d="M339.045,429.654c0,0,38.796,101.684,66.973,132.313l189.485,30.219l-66.973-150.28l16.334-75.956
			l-14.701,5.717l-11.026,1.225l-6.533-4.492l-7.351-13.067l-5.16,5.837l-14.851,2.33l-10.209-5.309l-7.351-8.984l-3.268-11.026
			l0.817-12.251l-17.152,13.068l-8.167,15.927l-2.45,20.419l-17.969,40.429l13.068,37.57l-15.519,6.534l-22.868-15.927
			l-50.639-20.419L339.045,429.654L339.045,429.654z"/>
		<path fill="none" stroke="#000000" stroke-width="0.1" d="M339.045,429.654c0,0,38.796,101.684,66.973,132.313l189.485,30.219
			l-66.973-150.28l16.334-75.956l-14.701,5.717l-11.026,1.225l-6.533-4.492l-7.351-13.067l-5.16,5.837l-14.851,2.33l-10.209-5.309
			l-7.351-8.984l-3.268-11.026l0.817-12.251l-17.152,13.068l-8.167,15.927l-2.45,20.419l-17.969,40.429l13.068,37.57l-15.519,6.534
			l-22.868-15.927l-50.639-20.419L339.045,429.654L339.045,429.654z"/>
	</g>
	<path id="path4353" opacity="0.3982" fill="#406E89" enable-background="new" d="M415.383,489.391
		c-3.508-10.193-6.244-23.444-2.869-29.456c3.511-6.251,2.95-18.913-5.02-7.009c-7.816,11.676-25.919,11.414-40.584,7.309
		l-0.985,6.615l11.905,1.366c0,0-7.69,4.677-14.673,6.514l-6.23,8.54c8.452-5.145,29.634-14.751,29.634-14.751
		s10.887-1.317,11.255,1.99c0,0-8.386,10.293-21.611,10.651l-3.947,5.557c0,0,11.305-4.447,6.013,7.776l3.911-1.794
		c0-9.188,12.873-18.205,3.528,1.223c0,0,0.823-2.248,4.265-0.482c0.606-4.813,9.236-20.26,13.507-23.186
		c4.271-2.925,4.183,6.673,2.942,22.846l8.96-3.711V489.391z"/>
	<path id="path4351" opacity="0.1991" fill="#264151" enable-background="new" d="M443.646,540.767
		c5.513-16.019,9.813-36.843,4.509-46.29c-5.517-9.824-4.636-29.722,7.888-11.015c12.284,18.35,40.734,17.937,63.775,11.485
		l1.549,10.396l-18.709,2.146c0,0,12.086,7.35,23.059,10.237l9.791,13.421c-13.283-8.086-46.569-23.182-46.569-23.182
		s-17.108-2.071-17.687,3.127c0,0,13.178,16.177,33.963,16.739l6.203,8.732c0,0-17.764-6.989-9.448,12.22l-6.146-2.818
		c0-14.438-20.229-28.61-5.545,1.922c0,0-1.294-3.533-6.702-0.759c-0.952-7.563-14.514-31.839-21.226-36.435
		c-6.711-4.596-6.572,10.487-4.623,35.902L443.646,540.767L443.646,540.767z"/>
	<path id="path4349" opacity="0.1991" fill="#223A48" enable-background="new" d="M566.117,572.534
		c-5.513-16.018-9.813-36.843-4.508-46.29c5.517-9.824,4.636-29.722-7.889-11.014c-12.283,18.349-40.733,17.937-63.775,11.485
		l-1.548,10.396l18.708,2.146c0,0-12.086,7.351-23.059,10.238l-9.791,13.42c13.283-8.085,46.569-23.182,46.569-23.182
		s17.108-2.07,17.687,3.127c0,0-13.178,16.177-33.963,16.739l-6.203,8.733c0,0,17.765-6.989,9.448,12.22l6.146-2.819
		c0-14.438,20.229-28.609,5.545,1.922c0,0,1.294-3.533,6.703-0.759c0.951-7.563,14.514-31.838,21.225-36.435
		c6.711-4.596,6.572,10.487,4.624,35.902L566.117,572.534L566.117,572.534z"/>
	<path id="path4347" opacity="0.3982" fill="#406E89" enable-background="new" d="M451.19,533.831
		c-5.514-16.018-9.813-36.843-4.509-46.289c5.517-9.824,4.636-29.722-7.889-11.015c-12.283,18.349-40.733,17.937-63.775,11.485
		l-1.548,10.396l18.708,2.147c0,0-12.086,7.35-23.058,10.237l-9.791,13.42c13.282-8.085,46.568-23.182,46.568-23.182
		s17.109-2.07,17.687,3.127c0,0-13.178,16.177-33.963,16.74l-6.203,8.732c0,0,17.765-6.989,9.448,12.22l6.146-2.818
		c0-14.438,20.229-28.61,5.545,1.921c0,0,1.294-3.533,6.703-0.759c0.951-7.563,14.514-31.838,21.225-36.435
		c6.712-4.596,6.572,10.487,4.624,35.902L451.19,533.831L451.19,533.831z"/>
	
		<linearGradient id="path3833_1_" gradientUnits="userSpaceOnUse" x1="12.1836" y1="152.2866" x2="12.7536" y2="125.6566" gradientTransform="matrix(1.9 0 0 -1.9 361.4096 496.2693)">
		<stop offset="0" style="stop-color:#157BC2"/>
		<stop offset="0.5" style="stop-color:#359EE8"/>
		<stop offset="1" style="stop-color:#116199"/>
	</linearGradient>
	<path id="path3833" fill="url(#path3833_1_)" stroke="#034484" d="M475.965,270.149c0,0-33.753-9.654-62.443-10.903
		c-29.167-1.27-84.57-6.677-115.73-1.152c0.421-5.879-2.439-11.621-2.439-11.621c8.482-2.036,24.248-3.954,24.465-5.8
		c0.215-1.846-16.054-2.47-23.393-11.426c-1.836-3.703-0.484-7.998,4.421-10.386c2.925-1.527,6.122,4.251,14.714,7.125
		c8.887,2.973,17.847,4.032,25.836,2.69s47.227-11.688,133.595-3.051L475.965,270.149L475.965,270.149z"/>
	
		<radialGradient id="path4220_1_" cx="338.0825" cy="-324.168" r="18.1615" gradientTransform="matrix(2.4269 -0.8599 -1.1407 -3.2194 -611.4888 -406.3162)" gradientUnits="userSpaceOnUse">
		<stop offset="0" style="stop-color:#C90F16;stop-opacity:0"/>
		<stop offset="0.5326" style="stop-color:#C21F25;stop-opacity:0"/>
		<stop offset="1" style="stop-color:#650004"/>
	</radialGradient>
	<path id="path4220" fill="url(#path4220_1_)" d="M575.9,361.041l-16.335-29.402l4.492,0.408c0,0,4.083-8.167,0.816-23.686
		l-2.858-13.476l15.109-4.492h16.335l24.503,32.262l10.617,26.953l-16.743,22.46L575.9,361.041z"/>
	
		<linearGradient id="path3939_1_" gradientUnits="userSpaceOnUse" x1="83.9858" y1="143.6865" x2="111.9858" y2="103.3165" gradientTransform="matrix(1.9 0 0 -1.9 361.4096 496.2693)">
		<stop offset="0" style="stop-color:#157BC2"/>
		<stop offset="0.5" style="stop-color:#359EE8"/>
		<stop offset="1" style="stop-color:#116199"/>
	</linearGradient>
	<path id="path3939" fill="url(#path3939_1_)" stroke="#034484" d="M561.819,333.837c19.673-12.955-39.825-94.524,53.261-81.568
		c10.241-7.653,2.399-15.354,2.399-15.354s-27.829-8.157-37.906-9.117c0,0,30.707-4.318,42.224-11.996
		c3.465-17.54-9.117-16.313-9.117-16.313s-37.426,14.874-59.498,18.233s-60.764,7.894-60.764,7.894c-4.802,0.437-19.082,0-19.082,0
		s4.44,64.296-1.327,90.761l3.441-4.13l20.632-10.556l32.629,1.439l27.829,17.273l5.278,13.435L561.819,333.837z"/>
	<g id="path3817" filter="url(#filter3860)">
		
			<linearGradient id="SVGID_2_" gradientUnits="userSpaceOnUse" x1="-15.4771" y1="129.0522" x2="27.6929" y2="129.0522" gradientTransform="matrix(1.9 0 0 -1.9 361.4096 496.2693)">
			<stop offset="0" style="stop-color:#116DAE"/>
			<stop offset="0.3428" style="stop-color:#1782CE"/>
			<stop offset="1" style="stop-color:#1066A3"/>
		</linearGradient>
		<path fill="url(#SVGID_2_)" d="M332.944,312.729c10.076-12.956,6.717-66.696,6.717-66.696s-5.278-43.183-2.399-62.377l57.58-1.919
			l8.157-0.48l10.076,139.629l-24.471-5.278l-12.955-12.476l-25.91,2.879l-13.435,11.996L332.944,312.729L332.944,312.729z"/>
		<path fill="none" stroke="#034484" d="M332.944,312.729c10.076-12.956,6.717-66.696,6.717-66.696s-5.278-43.183-2.399-62.377
			l57.58-1.919l8.157-0.48l10.076,139.629l-24.471-5.278l-12.955-12.476l-25.91,2.879l-13.435,11.996L332.944,312.729
			L332.944,312.729z"/>
	</g>
	
		<linearGradient id="path3819_1_" gradientUnits="userSpaceOnUse" x1="5.7104" y1="180.9473" x2="5.9404" y2="169.6973" gradientTransform="matrix(2.0089 -0.0479 -0.0488 -2.5292 367.1674 628.4352)">
		<stop offset="0" style="stop-color:#1480CD"/>
		<stop offset="1" style="stop-color:#093D60"/>
	</linearGradient>
	
		<path id="path3819" fill="url(#path3819_1_)" stroke="#034487" stroke-width="3.2512" stroke-linecap="round" stroke-linejoin="round" d="
		M400.685,181.859c0.103,5.292-13.443,9.906-30.254,10.306c-16.812,0.401-30.521-3.564-30.623-8.855
		c-0.103-5.292,13.443-9.906,30.254-10.306C386.872,172.604,400.583,176.568,400.685,181.859L400.685,181.859z"/>
	<path id="path6450" fill="#F40218" stroke="#F90113" d="M479.75,59.018c-1.888-0.032-3.986,0.187-6.234,0.653
		c-24.162,32.606-13.649,92.511-24.759,73.268c0,0-21.351-48.526-33.903-55.991l-16.804,17.1
		c4.75,8.821,26.332,42.602,20.188,48.746c0,0-57.653,65.1-10.153,178.421l21.019,8.847l12.23,19.654l17.595-21.014
		c7.693-4.951,13.033-10.51,16.684-16.565l-0.178,0.119l-3.443,4.097c3.715-17.045,6.748-59.138,4.75-70.716
		c-0.556-2.737-1.433-9.792-1.972-12.575c-0.226-5.506-0.587-5.455,0.309-8.682c4.453-16.042,19.948-8.2,22.552-0.95
		c7.752-0.919,35.927-4.617,55.218-7.552c2.159-0.329,4.483-0.841,6.887-1.366c0.144-19.515-16.418-61.938-29.913-68.685
		c-19.152-13.134-6.355-38.94,2.731-54.268c0,0-6.82-16.616-22.088-12.884c-19.378,21.95-16.86,39.765-19.95,52.428
		c-1.84,7.54-5.818,5.043-5.818-2.909c0,0,1.01-41.045,12.884-58.009c0,0-4.656-10.935-17.871-11.163l0,0L479.75,59.018z"/>
	
		<radialGradient id="path2865_1_" cx="29.9658" cy="73.6309" r="32.4637" gradientTransform="matrix(2.5946 -0.436 -0.5611 -3.3389 346.8691 647.6793)" gradientUnits="userSpaceOnUse">
		<stop offset="0" style="stop-color:#285F86"/>
		<stop offset="0.3803" style="stop-color:#356D95"/>
		<stop offset="0.6668" style="stop-color:#4B89B6"/>
		<stop offset="1" style="stop-color:#285E87"/>
	</radialGradient>
	<path id="path2865" fill="url(#path2865_1_)" d="M384.286,437.957c19.193-1.919,36.466-23.031,36.466-23.031l0.88-12.262
		l19.678-43.428l-4.495-18.471l-12.469-14.101l-36.644-10.857l-10.179-12.893h-27.143l-20.357,25.106l-10.178,25.106l4.75,45.465
		l20.664,25.321L384.286,437.957L384.286,437.957z"/>
	<path id="path4357" opacity="0.3938" fill="#4E809F" enable-background="new" d="M525.585,442.327
		c-5.513,16.018-9.813,15.608-4.509,25.054c5.517,9.824,11.986,38.707-0.537,19.999c-12.284-18.349-41.731-28.653-64.774-22.201
		l-7.901-8.663l18.708-2.147c0,0-12.086-7.35-23.058-10.237l-9.791-13.42c13.282,8.085,46.568,23.182,46.568,23.182
		s17.109,2.07,17.687-3.128c0,0-13.178-16.176-33.963-16.739l-6.203-8.732c0,0,17.765,6.989,9.448-12.22l6.146,2.818
		c0,14.438,20.229,28.61,5.545-1.921c0,0,1.294,3.533,6.703,0.758c0.951,7.564,14.514,31.839,21.225,36.435
		c6.712,4.597,9.84-7.22,14.425-22.834L525.585,442.327L525.585,442.327z"/>
	<path id="path4355" opacity="0.3938" fill="#4E809F" enable-background="new" d="M527.757,377.006
		c-5.514,16.018-9.813,36.842-4.509,46.289c5.517,9.824,4.636,29.722-7.888,11.015c-12.284-18.35-34.381-19.669-57.424-13.218
		l-7.901-8.664l18.709-2.146c0,0-12.087-7.35-23.059-10.237l-9.791-13.421c13.283,8.086,46.568,23.183,46.568,23.183
		s17.109,2.07,17.687-3.128c0,0-34.413-16.176-55.196-16.738l-2.938-11.184c0,0,35.733,9.439,27.417-9.77l6.146,2.818
		c0,14.438,20.229,28.61,5.545-1.922c0,0,1.294,3.533,6.703,0.759c0.951,7.563,14.514,31.839,21.225,36.435
		c6.712,4.596,6.572-10.487,4.624-35.902L527.757,377.006L527.757,377.006z"/>
	
		<linearGradient id="path2870_1_" gradientUnits="userSpaceOnUse" x1="4.0479" y1="111.8296" x2="5.5478" y2="71.9502" gradientTransform="matrix(1.9 0 0 -1.5465 361.4096 450.8192)">
		<stop offset="0" style="stop-color:#052E6E"/>
		<stop offset="1" style="stop-color:#052E6E;stop-opacity:0"/>
	</linearGradient>
	<path id="path2870" fill="url(#path2870_1_)" d="M363.41,353.379c3.598-5.952,19-6.165,19-6.165
		c15.524,0.245,27.012-24.775,27.012-24.775l-33.413-18.804l-20.788-2.566l-22.532,16.8
		C332.688,317.869,333.552,355.035,363.41,353.379L363.41,353.379z"/>
	<g id="path3804" filter="url(#filter3814)">
		<path fill="#052E6E" d="M340.17,320.841c22.31-17.808,51.887-2.913,51.887-2.913l-17.245-16.368l-16.965,0.679l-15.606,8.821
			L340.17,320.841L340.17,320.841z"/>
	</g>
	<g id="path3836" filter="url(#filter3884)">
		<path fill="#157BC3" d="M360.414,527.086c0,0-32.148-47.982-35.986-70.533c0,0-23.51-35.508-11.995-66.215
			c-6.718-39.826,2.879-58.059,21.592-78.69l4.461,4.043c0,0-43.428,34.606-1.356,111.965l53.492,116.225l155.962,60.496l86.807,8.3
			l4.552,10.372c-42.471,18.785-96.136,4.682-96.136,4.682c-41.654-13.884-91.717-24.056-112.951-35.489
			c-48.188-28.586-68.44-65.153-68.44-65.153V527.086z"/>
		<path fill="none" stroke="#034484" d="M360.414,527.086c0,0-32.148-47.982-35.986-70.533c0,0-23.51-35.508-11.995-66.215
			c-6.718-39.826,2.879-58.059,21.592-78.69l4.461,4.043c0,0-43.428,34.606-1.356,111.965l53.492,116.225l155.962,60.496l86.807,8.3
			l4.552,10.372c-42.471,18.785-96.136,4.682-96.136,4.682c-41.654-13.884-91.717-24.056-112.951-35.489
			c-48.188-28.586-68.44-65.153-68.44-65.153V527.086z"/>
	</g>
	<g id="path3838" filter="url(#filter6474)">
		<path fill="#FD1E32" d="M477.192,62.954c-7.633,6.017-10.056,18.058-12.923,27.377c-5.211,15.555-2.292,33.061-8.215,48.148
			c-7.277,6.65-12.312-6.517-14.25-11.638c-7.847-15.561-14.925-31.787-26.6-44.829c-7.22,6.825-16.938,13.321-6.948,22.249
			c5.755,12.281,16.554,24.74,14.191,39.085c-37.354,47.739-35.569,115.625-13.637,169.634c3.517,12.715,24.145,7.682,27.521,21.527
			c5.273,17.448,13.157-2.639,20.079-8.642c18.996-10.02,17.334-35.057,13.032-55.024c-1.321-18.303-6.239-38.697,6.205-55.353
			c7.67-7.865,21.124-1.878,25.354,6.887c18.202-3.248,37.683-5.405,55.1-9.321c-3.258-22.074-10.658-45.437-25.887-62.463
			c-15.425-7.669-17.022-27.669-10.45-41.859c1.484-6.586,8.143-12.831,7.54-18.941c-3.378-6.526-15.067-12.411-18.644-2.791
			c-11.842,13.763-11.031,32.154-15.734,48.628c-3.126,7.292-12.521,2.35-11.815-4.394c0.373-20.763,2.366-42.569,12.054-61.216
			c-3.373-5.292-9.827-7.879-15.973-7.066L477.192,62.954z"/>
	</g>
	<path id="path3872" fill="#95989D" d="M460.739,338.587c0,12.66,5.309,24.911,5.309,24.911
		c7.307,15.855,36.079,19.203,37.979-7.759l-6.126,4.083l-20.827-1.633l-12.66-16.743L460.739,338.587L460.739,338.587z"/>
	<path id="path3882" fill="#95989D" d="M550.125,364.104c-7.099,10.481-8.295,12.264-8.295,12.264l-2.042,2.45
		c-3.34,12.837-45.858,11.873-35.122-24.787l2.782,6.816l18.159,10.326l19.871-6.764L550.125,364.104L550.125,364.104z"/>
	
		<linearGradient id="path3835_1_" gradientUnits="userSpaceOnUse" x1="-39.833" y1="138.0859" x2="-35.523" y2="138.0859" gradientTransform="matrix(1.9036 -0.2577 -0.3658 -1.7722 417.9312 487.5216)">
		<stop offset="0" style="stop-color:#1480CD"/>
		<stop offset="1" style="stop-color:#093D60"/>
	</linearGradient>
	
		<path id="path3835" fill="url(#path3835_1_)" stroke="#034484" stroke-width="1.2729" stroke-linecap="round" stroke-linejoin="round" d="
		M298.604,252.121c0.631,3.059-0.15,5.713-1.746,5.929c-1.596,0.216-3.401-2.088-4.033-5.147s0.151-5.713,1.747-5.929
		S297.972,249.062,298.604,252.121z"/>
	<g id="path3837" filter="url(#filter3846)">
		<path fill="#69B7EF" d="M301.359,221.271c-1.671,8.054,21.447,15.426,34.114,12.111
			C321.135,232.681,306.092,226.667,301.359,221.271z"/>
	</g>
	<g id="path3850" filter="url(#filter3846)">
		<path fill="#0060A3" d="M298.185,226.506c-1.379,7.446,17.704,14.261,28.16,11.196
			C314.509,237.055,302.092,231.495,298.185,226.506z"/>
	</g>
	<g id="path3852" filter="url(#filter3882)">
		<path fill="#3D9EE3" d="M298.031,222.368c0,0,2.897-2.234,5.103-1.895C303.133,220.473,300.795,218.845,298.031,222.368z"/>
	</g>
	<g id="path3896" filter="url(#filter3846)">
		<path fill="#69B7EF" d="M298.613,249.76c5.06-1.39,21.757-6.271,34.527-8.088C321.383,246.624,304.95,251.587,298.613,249.76z"/>
	</g>
	<g id="path3898" filter="url(#filter3846)">
		<path fill="#0060A3" d="M298.346,250.662c2.488,7.528,20.064,2.822,26.478-5.914C315.615,250.909,303.646,252.953,298.346,250.662
			z"/>
	</g>
	<g id="path2874" filter="url(#filter3764)">
		
			<linearGradient id="SVGID_3_" gradientUnits="userSpaceOnUse" x1="-1.2944" y1="56.3418" x2="39.5749" y2="56.3418" gradientTransform="matrix(2.277 0 0 -2.3334 331.8947 524.5375)">
			<stop offset="0" style="stop-color:#759CDB"/>
			<stop offset="0.5" style="stop-color:#34578D"/>
			<stop offset="1" style="stop-color:#052E6E"/>
		</linearGradient>
		<path fill="url(#SVGID_3_)" d="M372.346,369.911c-15.022-0.496-38.42,9.533-32.946,28.583
			c13.995,23.067,49.422,22.144,68.451,6.417c11.899-12.741-1.874-31.923-16.65-33.03c-6.125-1.686-12.52-2.317-18.856-1.969
			L372.346,369.911z"/>
	</g>
	<path id="path2872" fill="#052E6E" d="M403.517,392.893c0,7.844-12.577,14.203-28.091,14.203s-28.09-6.359-28.09-14.203
		c0-7.845,12.577-14.203,28.09-14.203C390.94,378.689,403.517,385.048,403.517,392.893L403.517,392.893z"/>
	
		<linearGradient id="path3840_1_" gradientUnits="userSpaceOnUse" x1="58.4531" y1="195.0454" x2="50.3672" y2="188.2993" gradientTransform="matrix(-2.218 -3.0523 -2.7244 2.2826 1047.2183 -186.1255)">
		<stop offset="0" style="stop-color:#FF3549"/>
		<stop offset="1" style="stop-color:#8A000E"/>
	</linearGradient>
	
		<linearGradient id="path3840_2_" gradientUnits="userSpaceOnUse" x1="50.3672" y1="188.2998" x2="58.4532" y2="195.046" gradientTransform="matrix(-2.218 -3.0523 -2.7244 2.2826 1047.2183 -186.1255)">
		<stop offset="0" style="stop-color:#F90113"/>
		<stop offset="1" style="stop-color:#FFBABF"/>
	</linearGradient>
	
		<path id="path3840" fill="url(#path3840_1_)" stroke="url(#path3840_2_)" stroke-width="1.2729" stroke-linecap="round" stroke-linejoin="round" d="
		M403.793,81.395c4.702-3.939,10.021-5.059,11.881-2.5c1.859,2.559-0.445,7.826-5.147,11.766s-10.021,5.059-11.88,2.5
		S399.091,85.334,403.793,81.395z"/>
	<path id="path3925" fill="#013A6F" stroke="#000000" stroke-width="0.0283" d="M438.574,486.122l-4.141-23.575
		c-0.32-1.582,0.012-4.146,0.378-1.585L438.574,486.122L438.574,486.122z"/>
	<g id="path3754" filter="url(#filter3760)">
		<path fill="#F50218" d="M472.524,263.556c-8.144-60.401,21.036-52.934,25.786-36.651
			C495.341,175.947,437.952,217.367,472.524,263.556z"/>
	</g>
	<path id="path4331" fill="#99BBCF" stroke="#808080" stroke-width="0.5" d="M498.323,488.953
		c-7.966-10.641-4.228-22.37,8.297-3.664c12.284,18.35,23.985-2.854,28.548-4.107l0.971,7.509l-10.623,11.387
		c0,0,2.846,1.574,13.818,4.462c2.899-2.212,12.584,16.592,2.494,6.987c0,0-24.617-9.001-25.194-3.803
		c0,0,18.375,21.375,39.159,21.938l-1.882,5.845c0,0-19.498-7.566-5.983,3.558l-3.259,4.111c0,0-21.385-29.188-0.925,9.429
		c0,0,22.76,3.888,23.129,9.633c0.158,2.458,4.347,9.107,0.451,7.127c-29.36-14.915-16.641,0.229-12.713,11.558
		c1.004,2.896-5.717-3.996-6.598-0.776c-0.951-7.564-30.685-60.137-37.396-64.733c-6.712-4.596-6.572-9.726-4.624,15.689
		l-4.841-1.211c-0.866,38.153,1.662-29.777-2.83-40.934V488.953z"/>
	<path id="path4345" fill="#99BBCF" stroke="#808080" stroke-width="0.5" d="M421.288,553.249
		c12.117-19.173,29.117-20.314,23.813-29.762c-5.517-9.823,0.889-21.47,7.889-11.015c6.999,10.456,8.759,9.678,12.519,11.685
		c0.235,0.126-2.135-7.772-0.816-8.129c0.658-0.179,1.423-3.372,3.078-1.714s4.202,8.168,5.16,7.795
		c3.833-1.493,8.378-3.674,11.7-6.169c6.646-4.992-3.639,0.786-3.287,1.758c2.765,7.634-6.161,10.229-3.677,10.685
		c9.94,1.816,21.226,0.534,32.747-2.691l18.519,13.155l-29.326-2.345c0,0,31.279,2.449,43.069,0.027l4.073,9.746
		c-13.283-8.086-60.862-9.298-60.862-9.298s-24.051-5.745-24.628-0.548c0,0,27.062,20.26,47.846,20.822l2.937,8.324
		c0,0-21.439-6.989-13.124,12.22l-6.146-2.818c0-14.438-25.146-29.116-38.623-14.822c0,0-1.702-3.532-7.111-0.758
		c-0.951-7.564,11.741-13.356,3.389-21.875c-2.081-2.122-11.019,5.743-19.279,24.218l-8.113-5.032l-1.744-3.461L421.288,553.249z"/>
	
		<linearGradient id="path3915_1_" gradientUnits="userSpaceOnUse" x1="58.7026" y1="6.8687" x2="60.4026" y2="5.3587" gradientTransform="matrix(1.9 0 0 -1.9 361.4096 496.2693)">
		<stop offset="0" style="stop-color:#BBD7EF"/>
		<stop offset="1" style="stop-color:#BBD7EF;stop-opacity:0"/>
	</linearGradient>
	<path id="path3915" fill="url(#path3915_1_)" d="M432.819,385.004c-16.335,46.554-24.316,38.056-72.912,47.857
		c27.274,27.274,61.638,36.045,85.323,88.315l8.157-6.139c-46.316-79.895-20.567-130.036-20.567-130.036L432.819,385.004z
		 M417.976,445.329c0.609,0.022,1.421,0.719,2.078,2.494l18.466,45.778l-21.018-44.532
		C416.389,447.143,416.962,445.291,417.976,445.329L417.976,445.329z M397.609,463.142c0.121,0.02,0.393,0.181,0.891,0.594
		l19.653,16.091l-18.881-14.666C398.297,464.442,397.246,463.087,397.609,463.142L397.609,463.142z M420.469,476.323
		c0.313,0.029,0.68,0.295,1.068,0.891l14.19,20.782l-15.615-19.476c-0.757-0.816-0.54-1.919,0.059-2.138
		C420.261,476.351,420.364,476.314,420.469,476.323L420.469,476.323L420.469,476.323z M430.265,482.676
		c0.273-0.066,0.636,0.092,0.95,0.713l8.729,16.328l-9.856-15.496C429.601,483.563,429.811,482.788,430.265,482.676L430.265,482.676
		L430.265,482.676z"/>
	<path id="path3839" fill="#99BBCF" stroke="#808080" stroke-width="0.5" d="M471.629,570.995
		c5.514-16.018,11.038-42.151,5.733-51.599c-5.516-9.823-4.636-29.721,7.889-11.014c12.283,18.349,34.38,19.668,57.424,13.218
		l7.901,8.663l-18.709,2.146c0,0,12.086,7.35,23.059,10.237l9.791,13.421c-13.283-8.085-46.569-23.182-46.569-23.182
		s-17.108-2.07-17.687,3.127c0,0,13.178,16.177,33.963,16.739l6.203,8.733c0,0-17.765,2.812-9.448,22.021l-7.372-9.353
		c0-14.438-19.004-31.876-4.319-1.346c0,0-1.294-3.533-6.702-0.759c-0.952-7.563-14.515-31.838-21.226-36.435
		c-6.711-4.596-6.572,10.487-4.624,35.902L471.629,570.995L471.629,570.995z"/>
	
		<linearGradient id="path3794_1_" gradientUnits="userSpaceOnUse" x1="62.3867" y1="-4.1655" x2="64.0967" y2="-6.5355" gradientTransform="matrix(1.9 0 0 -1.9 361.4096 496.2693)">
		<stop offset="0" style="stop-color:#A4C4E0"/>
		<stop offset="1" style="stop-color:#A4C4E0;stop-opacity:0"/>
	</linearGradient>
	<path id="path3794" fill="url(#path3794_1_)" d="M444.457,380.9l-64.779,58.425l19.771,14.429c0,0,62.7,31.561,77.306,61.571
		l6.65-8.194c-15.167-24.775-38.948-126.236-38.948-126.236V380.9z M439.054,442.768c0.605-0.07,1.453,0.484,2.375,2.138
		l25.293,42.394l-27.551-40.791C437.776,444.773,438.044,442.885,439.054,442.768L439.054,442.768z M457.578,454.584
		c0.095,0.042,0.264,0.373,0.476,1.068l7.54,24.284l-7.659-22.683c-0.35-0.946-0.531-2.326-0.415-2.612
		c0.017-0.043,0.027-0.073,0.059-0.06V454.584z M418.688,458.146c0.123-0.001,0.454,0.084,1.01,0.415l21.908,12.944l-20.959-11.638
		C419.573,459.309,418.319,458.147,418.688,458.146L418.688,458.146z M439.884,463.668c0.302,0.033,0.706,0.243,1.128,0.713
		l17.219,18.406l-18.466-16.863C438.718,465.095,438.979,463.57,439.884,463.668L439.884,463.668z M448.375,466.637
		c0.241,0.02,0.526,0.229,0.831,0.653l11.103,14.784l-12.112-13.775c-0.582-0.574-0.491-1.423-0.06-1.603
		C448.202,466.669,448.294,466.631,448.375,466.637z M456.331,483.618c0.114,0.043,0.312,0.264,0.712,0.771l15.913,19.892
		l-15.438-18.347C456.714,485.028,455.986,483.489,456.331,483.618L456.331,483.618z M470.165,485.874
		c0.067,0.045,0.172,0.266,0.356,0.653l7.362,15.141l-7.303-14.071C470.194,486.893,469.961,485.74,470.165,485.874L470.165,485.874
		z M462.269,487.062c0.025-0.106,0.179-0.007,0.534,0.476l9.44,12.587l-9.263-11.638
		C462.572,488.004,462.226,487.239,462.269,487.062L462.269,487.062z"/>
	
		<linearGradient id="path3781_1_" gradientUnits="userSpaceOnUse" x1="71.5967" y1="9.6934" x2="74.6367" y2="6.0934" gradientTransform="matrix(1.9 0 0 -1.9 361.4096 496.2693)">
		<stop offset="0" style="stop-color:#BBD7EF"/>
		<stop offset="1" style="stop-color:#BBD7EF;stop-opacity:0"/>
	</linearGradient>
	<path id="path3781" fill="url(#path3781_1_)" d="M441.845,366.118c-10.618,22.868-23.988,52.607-23.988,52.607l-0.073,10.684
		c0,0,64.772,34.141,82.428,62.466c0-4.042,4.868-8.253,4.868-8.253C487.411,460.565,444.295,420.841,441.845,366.118
		L441.845,366.118z M432.403,423.89c0.725,0.062,1.563,0.354,2.435,0.95l18.05,17.813l-21.612-15.734
		C429.082,425.499,430.23,423.706,432.403,423.89L432.403,423.89z M455.203,424.127c0.595-0.133,1.465,0.352,2.554,1.9
		l29.567,39.543l-31.646-37.704C454.11,426.287,454.212,424.349,455.203,424.127L455.203,424.127z M444.754,427.036
		c0.12,0.025,0.415,0.215,0.891,0.653l18.821,17.159l-18.109-15.675C445.421,428.405,444.393,426.962,444.754,427.036
		L444.754,427.036z M445.822,440.752c0.122,0.012,0.372,0.207,0.891,0.594l20.484,15.082l-19.593-13.717
		C446.594,442.044,445.456,440.716,445.822,440.752L445.822,440.752z M458.231,444.849c0.304,0.001,0.66,0.171,1.129,0.594
		l19.059,16.507l-20.068-14.844C457.223,446.389,457.322,444.846,458.231,444.849L458.231,444.849z M466.782,446.928
		c0.066-0.025,0.154-0.01,0.237,0c0.221,0.024,0.522,0.188,0.831,0.534l12.588,13.597L466.96,448.59
		C466.289,448.053,466.316,447.1,466.782,446.928L466.782,446.928L466.782,446.928z"/>
	
		<linearGradient id="path3964_1_" gradientUnits="userSpaceOnUse" x1="42.5737" y1="-14.6328" x2="43.4437" y2="-16.7828" gradientTransform="matrix(1.9 0 0 -1.9 361.4096 496.2693)">
		<stop offset="0" style="stop-color:#CFE3F4"/>
		<stop offset="1" style="stop-color:#BBD7EF;stop-opacity:0"/>
	</linearGradient>
	<path id="path3964" fill="url(#path3964_1_)" d="M434.837,371.762c-16.016,6.789-15.133,45.951-46.206,49.713
		c-8.424,1.026-28.902-5.836-28.902-5.836s-8.092-1.76-15.022,1.128c0,0,47.178,15.476,76.416,47.144
		c12.037,13.036,30.144,26.349,43.7,54.742l4.929-0.771l-0.831-0.832c-4.084-13.067-37.584-66.975-37.584-66.975l-12.231-39.188
		c0,0,14.691-36.76,15.734-39.129L434.837,371.762z M421.537,456.015c0.49-0.03,1.362,0.539,2.435,1.841
		c0,0,19.849,22.824,39.246,54.268c-22.05-34.295-37.192-49.552-40.255-52.421c-2.005-2.005-2.243-3.631-1.426-3.681V456.015z
		 M432.165,463.318c0.406,0,1.082,0.474,1.9,1.603c0,0,15.171,19.902,29.567,46.847c-16.441-29.438-28.137-42.847-30.518-45.362
		C431.563,464.647,431.488,463.317,432.165,463.318L432.165,463.318z M446.356,479.468c0.261,0.014,0.694,0.317,1.188,1.069
		c0,0,9.124,13.26,17.574,31.054c-9.691-19.462-16.771-28.47-18.228-30.163C445.944,480.249,445.92,479.447,446.356,479.468
		L446.356,479.468z"/>
	<path id="path3061" opacity="0.3938" fill="#D3383E" enable-background="new" d="M553.129,398.95
		c5.514,16.018,9.813,36.843,4.509,46.29c-5.517,9.824-4.636,29.722,7.888,11.014c12.284-18.349,56.905-16.203,79.946-9.752
		l-7.114-17.326l-26.216,3.051c0,0,12.086-7.35,23.059-10.238l9.791-13.42c-13.283,8.085-46.569,23.182-46.569,23.182
		s-17.108,2.07-17.687-3.127c0,0,34.413-16.177,55.197-16.739l2.937-11.184c0,0-35.733,9.44-27.417-9.77l-6.146,2.819
		c0,14.438-20.229,28.609-5.545-1.922c0,0-1.294,3.533-6.702,0.758c-0.952,7.564-14.515,31.839-21.226,36.436
		c-6.711,4.596-6.572-10.487-4.624-35.902L553.129,398.95L553.129,398.95z"/>
	<path id="path3063" opacity="0.3938" fill="#D3383E" enable-background="new" d="M651.249,498.13
		c-5.513-16.018-9.813-36.843-4.509-46.289c5.517-9.824,4.636-29.722-7.888-11.015c-12.284,18.35-56.905,16.204-79.946,9.753
		l7.114,17.326l26.216-3.051c0,0-12.086,7.35-23.058,10.237l-9.792,13.42c13.283-8.085,46.569-23.182,46.569-23.182
		s17.108-2.07,17.687,3.128c0,0-34.413,16.176-55.197,16.739l-2.937,11.183c0,0,35.733-9.439,27.417,9.771l6.146-2.819
		c0-14.438,20.229-28.61,5.545,1.922c0,0,1.294-3.533,6.703-0.759c0.951-7.563,14.514-31.839,21.225-36.435
		c6.711-4.597,6.572,10.487,4.624,35.902L651.249,498.13L651.249,498.13z"/>
	<path id="path3065" opacity="0.3938" fill="#D3383E" enable-background="new" d="M667.414,501.76
		c-5.513,16.018-9.813,36.842-4.509,46.289c5.517,9.824,4.636,29.722-7.888,11.015c-12.284-18.35-56.905-16.204-79.946-9.753
		l7.114-17.326l26.217,3.051c0,0-12.087-7.35-23.059-10.237l-9.791-13.421c13.283,8.086,46.568,23.183,46.568,23.183
		s17.109,2.07,17.687-3.128c0,0-34.413-16.176-55.196-16.739l-2.938-11.183c0,0,35.733,9.439,27.417-9.771l6.146,2.819
		c0,14.438,20.229,28.609,5.545-1.922c0,0,1.294,3.533,6.703,0.759c0.951,7.563,14.514,31.839,21.225,36.435
		c6.712,4.596,6.572-10.487,4.624-35.902L667.414,501.76L667.414,501.76z"/>
	<path id="path3054" fill="#FFAAAA" stroke="#808080" stroke-width="0.5278" d="M601.872,500.334
		c5.733-11.314,10.983-26.304,7.788-33.807c-3.323-7.803-0.788-22.438,7.092-7.383c7.729,14.767,24.592,17.888,42.908,15.351
		l5.265,7.176l-14.582-0.228c0,0,8.604,6.61,16.77,9.812l6.273,10.878c-9.456-7.27-33.634-21.667-33.634-21.667
		s-12.958-3.192-13.888,0.597c0,0,16.796,15.131,32.72,17.564l4.996,9.325c0,0-21.066-13.353-16.469,1.665
		c2.46,10.753,15.014,12.554,8.655,20.916c-0.025-5.688-21.007-20.011-36.708-50.63c-1.373-2.675-1.392,10.085-0.97,25.245
		c0.118,4.258,38.416,19.352,38.097,22.523c-1.547,15.379-37.474-12.759-37.347-10.844c0.863,13.159,10.96,25.982,10.612,33.529
		l-2.474,2.835l-11.359-21.011c0,0-12.028,6.69-20.816,16.663l-2.52-5.081l22.522-19.858l-3.028-30.841
		c0,0-18.633,35.898-20.381,49.742l-3.521-10.297C587.874,532.51,597.338,511.695,601.872,500.334L601.872,500.334z"/>
	
		<linearGradient id="path10403_1_" gradientUnits="userSpaceOnUse" x1="87.1274" y1="-46.4741" x2="90.1675" y2="-50.0742" gradientTransform="matrix(1.2053 0.8835 0.8835 -1.2053 547.7047 322.3591)">
		<stop offset="0" style="stop-color:#EEB4B4"/>
		<stop offset="1" style="stop-color:#EFBBBB;stop-opacity:0"/>
	</linearGradient>
	<path id="path10403" fill="url(#path10403_1_)" d="M628.345,358.613c-17.37,9.57-39.68,22.219-39.68,22.219l-5.015,6.743
		c0,0,25.213,51.778,23.242,77.959c1.88-2.564,6.927-2.972,6.927-2.972c-0.486-22.844-9.366-68.094,14.526-103.947L628.345,358.613z
		 M595.489,390.873c0.432,0.376,0.826,0.951,1.103,1.735l3.168,19.693l-6.394-20.032
		C592.635,390.35,594.197,389.746,595.489,390.873L595.489,390.873z M609.843,401.627c0.439,0.191,0.766,0.903,0.736,2.393
		l0.369,38.836l-2.543-38.635C608.145,402.49,609.111,401.308,609.843,401.627L609.843,401.627z M601.861,398.613
		c0.064,0.071,0.163,0.329,0.261,0.828l3.961,19.639l-4.199-18.365C601.647,399.792,601.667,398.398,601.861,398.613
		L601.861,398.613z M596.161,407.811c0.072,0.064,0.14,0.305,0.289,0.791l5.981,19.093l-6.052-17.813
		C596.049,408.988,595.945,407.617,596.161,407.811L596.161,407.811z M602.128,416.181c0.192,0.142,0.339,0.415,0.439,0.901
		l4.415,19.334l-5.828-18.749C600.771,416.688,601.553,415.755,602.128,416.181z M606.586,421.475
		c0.054,0.016,0.103,0.065,0.15,0.11c0.129,0.119,0.244,0.362,0.279,0.726l1.662,14.479l-2.752-14.178
		C605.75,421.96,606.21,421.368,606.586,421.475L606.586,421.475L606.586,421.475z"/>
	<path id="path3056" fill="#FFAAAA" stroke="#808080" stroke-width="0.5538" d="M557.083,433.207
		c-1.45,0.188-3.546,1.896-6.39,6.043c-5.814,8.48-14.341,12.34-24.16,13.061c0.818,1.975,1.82,3.979,2.862,5.979
		c3.963-0.048,8.779,0.34,9.052,2.729c0,0-2.217,1.496-5.524,3.444c1.368,2.237,2.805,4.437,4.326,6.628
		c3.903-5.497,7.032-9.426,8.387-10.332c2.227-1.488,1.052,7.61-1.132,20.013c1.51,1.894,2.966,3.764,4.459,5.523l2.463-10.786
		c0,0,3.953,10.226,7.588,21.897c3.535,3.717,6.139,6.34,7.521,7.667c-2.048-6.961-4.38-14.896-5.856-20.662
		c-4.451-12.623-7.876-29.01-3.595-36.453C560.284,442.393,560.79,432.729,557.083,433.207L557.083,433.207z M567.133,507.216
		l-4.06,5.134c1.096,4.823,1.863,9.29,1.863,12.671l6.057-5.004C570.993,520.017,569.229,514.297,567.133,507.216L567.133,507.216z
		 M556.151,521.121l-3.328,4.289c2.984,3.083,6.137,6.73,8.853,10.786l3.262-4.938L556.151,521.121L556.151,521.121z"/>
	
		<linearGradient id="path10407_1_" gradientUnits="userSpaceOnUse" x1="96.4341" y1="-71.269" x2="98.1341" y2="-72.779" gradientTransform="matrix(0.8248 1.0921 1.0921 -0.8248 585.0109 274.3541)">
		<stop offset="0" style="stop-color:#EEB4B4"/>
		<stop offset="1" style="stop-color:#EFBBBB;stop-opacity:0"/>
	</linearGradient>
	<path id="path10407" fill="url(#path10407_1_)" d="M625.753,372.749c-33.851,10.821-32.431,2.544-59.16-21.135
		c-3.837,27.517,6.039,51.078-13.725,87.384l7.07,2.024C585.754,379.717,625.754,372.75,625.753,372.749L625.753,372.749z
		 M584.633,390.405c0.252,0.36,0.204,1.129-0.531,2.277l-18.297,30.487l16.472-31.414
		C582.901,390.279,584.214,389.805,584.633,390.405L584.633,390.405z M567.595,390.312c0.042,0.078,0.066,0.304,0.046,0.77
		l-2.76,14.402l2.275-13.34C567.145,391.271,567.469,390.078,567.595,390.312L567.595,390.312L567.595,390.312z M567.9,405.294
		c0.119,0.192,0.125,0.52-0.048,1.001l-5.785,17.179l4.415-17.431c0.142-0.79,0.869-1.144,1.255-0.895
		C567.795,405.187,567.86,405.229,567.9,405.294L567.9,405.294L567.9,405.294L567.9,405.294z M568.501,413.684
		c0.157,0.127,0.224,0.404,0.002,0.854l-5.596,12.105l4.629-12.393C567.702,413.686,568.239,413.471,568.501,413.684
		L568.501,413.684L568.501,413.684L568.501,413.684z"/>
	<path id="path3052" fill="#FFAAAA" stroke="#808080" stroke-width="0.5496" d="M591.466,493.494
		c-4.382-12.629-7.798-29.047-3.583-36.495c4.384-7.745,3.684-23.433-6.269-8.684c-9.762,14.467-27.322,15.507-45.633,10.421
		l-6.278,6.83l14.867,1.692c0,0-9.604,5.795-18.325,8.071l-2.044,9.316c10.556-6.375,31.271-17.012,31.271-17.012
		s13.597-1.633,14.056,2.466c0,0-10.473,12.753-26.99,13.197l-4.93,6.885c0,0,14.117-5.511,7.509,9.634l4.884-2.222
		c0-11.384,16.076-22.557,4.407,1.515c0,0,1.027-2.785,5.326-0.598c0.756-5.964,11.533-25.104,16.867-28.727
		c5.333-3.623-7.351,20.818-8.898,40.857l5.758,5.984l9.312-26.704c0,0,1.645,23.62,1.645,38.376l3.573,8.728
		C587.99,537.026,594.621,506.013,591.466,493.494L591.466,493.494z"/>
	
		<linearGradient id="path10391_1_" gradientUnits="userSpaceOnUse" x1="53.3262" y1="-88.2598" x2="54.1962" y2="-90.4097" gradientTransform="matrix(0.9832 0.8095 0.8095 -0.9832 587.0515 307.3256)">
		<stop offset="0" style="stop-color:#EEB4B4"/>
		<stop offset="1" style="stop-color:#EFBBBB;stop-opacity:0"/>
	</linearGradient>
	<path id="path10391" fill="url(#path10391_1_)" d="M563.266,340.183c0,0,17.777,28.095,19.416,56.941
		c0.675,11.875,8.408,28.81,3.325,49.282l2.909,1.663l-0.06-0.772c3.455-8.502,16.566-42.571,16.566-42.571l4.037-29.567
		c0,0,18.045-19.108,19.593-19.892c-11.181-3.311-27.381,17.35-45.066,6.057c-4.797-3.058-12.469-15.319-12.469-15.319
		s-3.436-4.36-8.253-5.819L563.266,340.183z M586.541,388.396c0.97,0.128,1.909,1.064,1.603,2.494l0.416,47.559
		c0-30.016-3.682-47.796-3.682-47.796C584.572,388.916,585.57,388.268,586.541,388.396z M593.072,393.977
		c0.16-0.053,0.313-0.044,0.475,0c0.647,0.178,1.192,1.064,0.831,2.316l-3.74,32.893c2.026-20.959,1.544-33.25,1.544-33.25
		C592.164,394.763,592.591,394.136,593.072,393.977L593.072,393.977z M595.506,407.931c0.571-0.132,1.228,0.647,0.832,1.722
		l-5.522,29.45c3.599-18.56,3.979-29.866,3.979-29.866C594.841,408.413,595.164,408.009,595.506,407.931L595.506,407.931z"/>
	
		<linearGradient id="path3847_1_" gradientUnits="userSpaceOnUse" x1="116.2075" y1="96.9365" x2="119.7681" y2="99.0868" gradientTransform="matrix(1.9 0 0 -1.9 363.4516 492.1854)">
		<stop offset="0" style="stop-color:#BD292F"/>
		<stop offset="1" style="stop-color:#4C1014"/>
	</linearGradient>
	
		<path id="path3847" fill="url(#path3847_1_)" stroke="#436D88" stroke-width="0.1" stroke-linecap="round" stroke-linejoin="round" d="
		M594.687,304.784c0,4.562-2.285,8.259-5.104,8.259s-5.104-3.698-5.104-8.259s2.285-8.26,5.104-8.26
		S594.687,300.223,594.687,304.784z"/>
	
		<linearGradient id="path3859_1_" gradientUnits="userSpaceOnUse" x1="116.0239" y1="97.6182" x2="121.0931" y2="99.3379" gradientTransform="matrix(1.9 0 0 -1.9 375.7026 506.8865)">
		<stop offset="0" style="stop-color:#BD292F"/>
		<stop offset="1" style="stop-color:#4C1014"/>
	</linearGradient>
	
		<path id="path3859" fill="url(#path3859_1_)" stroke="#436D88" stroke-width="0.1" stroke-linecap="round" stroke-linejoin="round" d="
		M606.938,319.485c0,4.562-2.285,8.259-5.104,8.259s-5.104-3.698-5.104-8.259s2.285-8.26,5.104-8.26
		S606.938,314.924,606.938,319.485z"/>
	
		<linearGradient id="path4001_1_" gradientUnits="userSpaceOnUse" x1="260.23" y1="98.1514" x2="263.7889" y2="100.3007" gradientTransform="matrix(-2.005 0 0 -2.005 1099.3623 509.7117)">
		<stop offset="0" style="stop-color:#BD292F"/>
		<stop offset="1" style="stop-color:#4C1014"/>
	</linearGradient>
	
		<path id="path4001" fill="url(#path4001_1_)" stroke="#436D88" stroke-width="0.1" stroke-linecap="round" stroke-linejoin="round" d="
		M566.578,309.519c0,4.813,2.411,8.716,5.387,8.716c2.975,0,5.387-3.902,5.387-8.716c0-4.814-2.412-8.716-5.387-8.716
		C568.989,300.802,566.578,304.705,566.578,309.519z"/>
	<g id="path3980" filter="url(#filter3781)">
		<path fill="#157EC9" d="M516.718,300.245c-2.399-30.229,14.229-50.73,14.229-50.73c-8.767-8.577-28.752-8.564-34.802-10.61
			c-11.398-3.854-1.317-5.46,37.846,2.322c15.834-11.516,59.978-23.511,59.978-23.511l-23.032,13.915
			c19.194-4.798,27.351,3.838,27.351,3.838s-54.699-13.435-66.215,63.336l-0.397,2.715L516.718,300.245L516.718,300.245z"/>
	</g>
	<g id="path3962" filter="url(#filter3773)">
		<path fill="#47A7EB" d="M496.564,300.245c-2.399-30.229,14.229-50.73,14.229-50.73c-8.767-8.577-17.167-6.458-23.217-8.503
			c-11.398-3.854-12.902-7.567,26.261,0.216c15.834-11.516,59.978-23.511,59.978-23.511l-23.032,13.915
			c19.194-4.798,27.351,3.839,27.351,3.839s-54.699-13.436-66.215,63.336l-0.397,2.714l-14.957-1.275V300.245L496.564,300.245z"/>
	</g>
	<path id="path3901" fill="#EF343B" stroke="#7C0000" d="M542.827,409.856c7.508-15.017,13.283-36.961,13.283-36.961l-7.508-3.466
		l-13.283,34.075L542.827,409.856L542.827,409.856z"/>
	
		<radialGradient id="path3895_1_" cx="103.353" cy="76.2271" r="5.3322" gradientTransform="matrix(1.9 0 0 -2.9504 361.4096 591.7998)" gradientUnits="userSpaceOnUse">
		<stop offset="0" style="stop-color:#FD1E32"/>
		<stop offset="1" style="stop-color:#C80214"/>
	</radialGradient>
	<path id="path3895" fill="url(#path3895_1_)" stroke="#7C0000" d="M556.688,352.686c15.594,13.86-5.197,33.496-12.705,28.876
		L556.688,352.686z"/>
	
		<radialGradient id="path3899_1_" cx="92.9556" cy="60.436" r="4.3577" gradientTransform="matrix(1.9 0 0 -3.8633 361.9877 640.1714)" gradientUnits="userSpaceOnUse">
		<stop offset="0" style="stop-color:#FD1E32"/>
		<stop offset="1" style="stop-color:#C80214"/>
	</radialGradient>
	<path id="path3899" fill="url(#path3899_1_)" stroke="#7C0000" d="M531.275,422.567c23.678-5.198,11.551-31.765,11.551-31.765
		L531.275,422.567z"/>
	<path id="path2922" fill="#F9E8BC" stroke="#F7DFA3" stroke-linejoin="round" d="M581.553,286.09
		c-13.238,0.249-18.325,3.536-18.325,3.536c0.675,3,0.796,5.921,0.796,5.921c34.375-15.817,42.205,12.2,57.785,39.29
		c-6.107,10.179,0,15.557,0,15.557c1.018,4.071-2.036,8.143-2.375,7.125c0,0-4.834,5.749-8.847,11.222
		c-3.732,5.09-4.021,12.545-6.057,22.384c-1.392,6.728,2.224,38.61,3.385,26.125s-0.693-25.181,5.938-40.968
		c2.644-6.294,8.96-10.492,13.359-16.684c0,0-2.663,5.979-1.358,15.203c1.597,11.296-0.127,11.194,1.306,20.662
		c1.504,9.931,3.248,19.861,3.712,22.879c0.464,3.016,5.776,16.607,6.116,18.644c0.3,1.802,2.888,4.88,4.83,8.766
		c1.697,3.393,4.247,13.521,5.026,15.341c2.035,4.75-0.314,13.928,1.722,19.356c2.039,5.438,10.421,29.114,12.26,33.25
		c1.357,3.054-0.388,5.753-1.969,7.453c-1.581,1.701-4.554-0.688-6.441-0.409c-1.887,0.279-6.858,1.726-3.74,9.856
		s0.513,8.779,6.769,12.172c5.499,2.982,2.74,9.802,0.269,14.25c-1.696,3.054-9.952,8.139-13.538,6.116
		c-1.42-1.449,1.069-4.198,0.713-6.77c-0.908-6.549-1.767-14.751-12.231-8.134s8.74,17.409-2.375,28.5
		c-4.41,3.393-12.466-3.951-18.573-3.951s-15.321-33.419-28.014-49.142c-12.827-15.889-54.961-60.454-51.398-90.82
		c3.563-30.365,26.387-81.037,31.783-81.713c2.714-0.339,9.348,10.206,10.865,13.24c2.715,5.429,4.055,50.536,9.144,44.769
		c0,0-0.053-45.712-4.453-51.3c-4.399-5.59-7.396-7.906-15.793-30.697c-8.397-22.792-45.363-27.371-45.363-27.371
		s-25.587-4.221-43.699,15.141c-11.457,7.992-24.893,14.78-31.409,32.182c-0.487-1.982-1.057-3.957-1.781-6.056
		c-4.018-11.635-13.291-21.223-35.625-23.157c-5.429-4.75-15.565-2.019-16.922-6.769c-2.715-8.143-10.814-13.521-21.672-10.807
		c-19-1.357-25.175,10.094-25.175,10.094c-35.965,37.322-21.018,72.616-21.018,72.616s-6.786,22.384,14.25,50.884
		c0,0-5.463,10.857-0.713,23.75c8.144,21.716,14.787,48.336,26.422,61.216c11.636,12.88,10.243,15.005,14.547,20.366
		c44.241,55.114,92.746,34.094,147.843,63.829c0,0,110.371,67.67,158.354-36.931c8.637-26.87,0.204-163.19-36.871-209.95
		c-21.334-18.182-28.046-68.5-61.454-70.062L581.553,286.09z M356.936,305.031l7.659,0.475c0,0,8.15-0.91,12.469,1.01
		c2.808,1.248,6.262,9.954,10.568,11.519c4.307,1.564,8.669,2.375,8.669,2.375s5.255,3.85,8.134,4.809
		c5.328,1.776,14.829-0.955,22.088,6.234c7.24,7.17,14.604,25.692,6.709,44.116c-2.879,6.718-15.369,23.402-16.743,36.338
		c-1.264,22.859,20.82,53.846,16.269,38.059c0,0-7.714-17.018-8.193-34.557c-0.409-14.936,20.438-30.447,18.406-58.543
		c2.517-8.011,9.721-20.168,19.593-22.042c-3.496,10.448,3.594,22.766,14.571,27.427c14.925,6.336,23.493-4.606,26.586-7.861
		c-12.847,5.183-42.427,6.893-32.786-27.389c15.305-26.854,48.115-22.31,55.694-20.484c7.03,1.694,49.089,21.043,21.079,49.342
		c0,0-12.303,11.629-21.037,13.866c-7.734,1.981-14.532-7.056-21.13-15.048c1.409,3.355,3.226,13.887,7.357,16.948
		c13.817,10.239,24.01-2.554,26.854,0.086c1.203,1.837-10.927,11.048-12.236,14.714c-17.273,39.346-13.998,56.039-2.003,96.344
		c0,0,7.838,28.815,17.101,49.282c5.341,11.802,14.079,16.012,14.606,22.682c2.879,31.669-2.21,26.88-20.129,23.302
		c-15.11-3.018-22.486-12.069-26.422-8.135c-3.731,3.732,2.002,12.843-5.462,8.432c-16.965-11.535-29.526-5.759-32.241-10.509
		c0,0-7.229-21.278-24.192-9.063c-6.786,8.143-9.354-4.822-18.854-3.465c-9.5,1.356-17.821-14.751-25.116-15.26
		s-28.652-20.704-30.518-36.991c-1.866-16.285-12.749-28.669-13.597-33.25c-0.849-4.58,1.134-7.042-2.02-11.222
		c-3.153-4.179-11.683-10.453-12.36-26.061c24.769-2.714,81.098,39.053,72.616,26.838c0,0-21.045-28.17-74.991-41.741
		c0.679-6.446-7.456-12.927-15.26-19.712c-1.018-8.822-9.152-23.733-5.759-47.144c8.143-27.481,27.807-44.118,34.021-45.718l0,0
		L356.936,305.031z"/>
	<g id="path3950" filter="url(#filter3846)">
		<path fill="#69B7EF" d="M576.843,219.597c6.223-2.088,26.963-8.671,41.486-15.694
			C602.669,206.965,582.146,213.278,576.843,219.597z"/>
	</g>
	<g id="path3952" filter="url(#filter3846)">
		<path fill="#69B7EF" d="M577.43,232.148c6.331,1.73,27.226,7.807,43.2,10.059C605.916,236.032,585.354,229.852,577.43,232.148z"/>
	</g>
	
		<linearGradient id="path3877_1_" gradientUnits="userSpaceOnUse" x1="156.2236" y1="105.7891" x2="152.2136" y2="103.7491" gradientTransform="matrix(2.0039 0 0 -2.0039 338.7266 509.3926)">
		<stop offset="0" style="stop-color:#FD1E32"/>
		<stop offset="1" style="stop-color:#8D010E"/>
	</linearGradient>
	
		<path id="path3877" fill="url(#path3877_1_)" stroke="#7C0000" stroke-width="0.8581" stroke-linecap="round" stroke-linejoin="round" d="
		M651.443,300.204c0,4.282-2.314,7.752-5.169,7.752c-2.854,0-5.168-3.471-5.168-7.752s2.313-7.752,5.168-7.752
		S651.443,295.922,651.443,300.204z"/>
	<g id="path3927" filter="url(#filter3846)">
		<path fill="#F17777" d="M604.069,282.479c3.758-1.574,16.301-6.586,24.976-11.59C619.487,273.492,607.068,278.327,604.069,282.479
			z"/>
	</g>
	<g id="path3929" filter="url(#filter3846)">
		<path fill="#F27C7C" d="M618.762,302.303c3.87-1.272,16.769-5.281,25.811-9.586C634.84,294.559,622.078,298.401,618.762,302.303z"
			/>
	</g>
	<path id="path6275" fill="none" stroke="#000000" d="M309.576,228.444l-47.358-5.775l42.737,28.876"/>
	<path id="path6306" fill="none" stroke="#000000" stroke-linejoin="round" d="M315.35,287.363l-53.131-0.677l42.737,27.242"/>
	<path id="path6322" fill="none" stroke="#000000" d="M262.22,370.564l94.742-6.336"/>
	<path id="path6328" fill="none" stroke="#000000" d="M262.22,179.12l91.25,4.282"/>
	<path id="path6334" fill="none" stroke="#000000" d="M262.22,444.284l150.281-8.167"/>
	<path id="path6342" fill="none" stroke="#000000" d="M262.22,516.047l170.939-27.669"/>
	<path id="path6348" fill="none" stroke="#000000" d="M262.22,552.546l147.846-42.258"/>
	<path id="path6354" fill="none" stroke="#000000" d="M262.22,604.321l137.212-13.067"/>
	<path id="path6360" fill="none" stroke="#000000" d="M262.22,125.749l151.915-34.302"/>
	<path id="path6366" fill="none" stroke="#000000" d="M707.675,520.094l-156.33-10.469"/>
	<path id="path6372" fill="none" stroke="#000000" d="M707.827,466.477l-85.426-18.924"/>
	<path id="path6378" fill="none" stroke="#000000" d="M707.827,402.579L595.102,390.4"/>
	<path id="path6394" fill="none" stroke="#000000" d="M553.796,374.041l154.031-11.457l-211.204-1.615"/>
	<path id="path6402" fill="none" stroke="#000000" d="M626.394,275.735l81.434-7.695l-62.64,32.015"/>
	<path id="path6414" fill="none" stroke="#000000" d="M615.24,209.919l92.581-9.323l-95.22,43.447"/>
	<path id="path6428" fill="none" stroke="#000000" d="M707.827,156.7l-181.802,33.345"/>
	<path id="path6434" fill="none" stroke="#000000" d="M707.827,92.993l-190.646,2.109"/>
	<path id="path6440" fill="none" stroke="#000000" d="M707.827,27.938L481.923,72.72"/>
	<path id="path3422" fill="none" stroke="#000000" d="M707.827,326.408l-117.192,17.296"/>
	<g id="path4174" filter="url(#filter4180)">
		<path fill="#44A6EB" d="M384.737,199.164c-11.915,57.068,5.017,93.44,5.017,93.44C381.602,249.96,384.737,199.164,384.737,199.164
			z"/>
	</g>
	<g id="path4184" filter="url(#filter4186)">
		<path fill="#FC5463" d="M487.394,73c-7.244,25.046-11.762,46-11.762,46l0.626,0.023C476.258,119.023,471.582,95.915,487.394,73
			L487.394,73z"/>
	</g>
	<g id="path4191" filter="url(#filter4205)">
		<path fill="#FD4152" d="M523.595,96.855c-8.425,16.851-9.756,27.937-9.756,27.937S508.074,107.942,523.595,96.855z"/>
	</g>
	<g id="path4209" filter="url(#filter4215)">
		<path fill="#FD515F" d="M420.381,91.94c14.894,15.628,18.333,38.947,18.333,38.947C430.562,115.836,420.381,91.94,420.381,91.94z"
			/>
	</g>
	<g id="path3735" filter="url(#filter3744)">
		<path fill="#FD6C78" d="M473.551,140.55c-35.47,0-64.243,36.873-64.243,82.413c0,8.321,1.005,16.355,2.791,23.929
			c-0.551-4.343-0.891-8.817-0.891-13.359c0-45.54,28.775-82.413,64.242-82.413c28.817,0,53.204,24.326,61.334,57.891
			c-5.179-38.868-31.482-68.459-63.233-68.459V140.55z"/>
	</g>
</g>
<g id="text">
	<text transform="matrix(1 0 0 1 32.0586 125.749)" font-family="Liberation Sans" font-style="regular" font-size="23">Brachiocephalic artery</text>
	<text transform="matrix(1 0 0 1 61.9932 178.873)" font-family="Liberation Sans" font-style="regular" font-size="23">Superior vena cava</text>
	<text transform="matrix(1 0 0 1 9.5576 221.6177)" font-family="Liberation Sans" font-style="regular" font-size="23">Right pulmonary arteries</text>
	<text transform="matrix(1 0 0 1 33.0596 287.1011)" font-family="Liberation Sans" font-style="regular" font-size="23">Right pulmonary veins</text>
	<text transform="matrix(1 0 0 1 137.1606 369.6084)" font-family="Liberation Sans" font-style="regular" font-size="23">Right atrium</text>
	<text transform="matrix(1 0 0 1 100.0229 445.0215)"><tspan x="0" y="0" font-family="Liberation Sans" font-style="regular" font-size="23">Atrioventricular</tspan><tspan x="0" y="23" font-family="Liberation Sans" font-style="regular" font-size="23">(tricuspid) valve</tspan></text>
	<text transform="matrix(1 0 0 1 65.3169 516.8643)" font-family="Liberation Sans" font-style="regular" font-size="23">Chordae tendineae</text>
	<text transform="matrix(1 0 0 1 113.4165 552.4268)" font-family="Liberation Sans" font-style="regular" font-size="23">Right ventricle</text>
	<text transform="matrix(1 0 0 1 75.979 604.6328)" font-family="Liberation Sans" font-style="regular" font-size="23">Inferior vena cava</text>
	<text transform="matrix(1 0 0 1 712.3115 28.5156)"><tspan x="0" y="0" font-family="Liberation Sans" font-style="regular" font-size="23">Left common</tspan><tspan x="0" y="23" font-family="Liberation Sans" font-style="regular" font-size="23">carotid artery</tspan></text>
	<text transform="matrix(1 0 0 1 712.3115 93.2915)"><tspan x="0" y="0" font-family="Liberation Sans" font-style="regular" font-size="23">Left subclavian</tspan><tspan x="0" y="23" font-family="Liberation Sans" font-style="regular" font-size="23">artery</tspan></text>
	<text transform="matrix(1 0 0 1 712.3115 157.0039)" font-family="Liberation Sans" font-style="regular" font-size="23">Aorta</text>
	<text transform="matrix(1 0 0 1 712.3115 201.8955)"><tspan x="0" y="0" font-family="Liberation Sans" font-style="regular" font-size="23">Left pulmonary</tspan><tspan x="0" y="23" font-family="Liberation Sans" font-style="regular" font-size="23">arteries</tspan></text>
	<text transform="matrix(1 0 0 1 712.1689 268.6133)"><tspan x="0" y="0" font-family="Liberation Sans" font-style="regular" font-size="23">Left pulmonary</tspan><tspan x="0" y="23" font-family="Liberation Sans" font-style="regular" font-size="23">veins</tspan></text>
	<text transform="matrix(1 0 0 1 711.168 325.999)" font-family="Liberation Sans" font-style="regular" font-size="23">Left atrium</text>
	<text transform="matrix(1 0 0 1 712.1689 364.4102)" font-family="Liberation Sans" font-style="regular" font-size="23">Semilunar valves</text>
	<text transform="matrix(1 0 0 1 712.1689 406.3438)"><tspan x="0" y="0" font-family="Liberation Sans" font-style="regular" font-size="23">Atrioventricular</tspan><tspan x="0" y="23" font-family="Liberation Sans" font-style="regular" font-size="23">(mitral) valve</tspan></text>
	<text transform="matrix(1 0 0 1 712.0195 466.7744)" font-family="Liberation Sans" font-style="regular" font-size="23">Left ventricle</text>
	<text transform="matrix(1 0 0 1 711.168 523.0234)" font-family="Liberation Sans" font-style="regular" font-size="23">Septum</text>
</g>
</svg>
