<svg width="209mm" height="177mm" version="1.1" viewBox="0 0 209 177" xmlns="http://www.w3.org/2000/svg" xmlns:xlink="http://www.w3.org/1999/xlink"><rect width="209" height="177" fill="#fff"/>
 <g fill="none" stroke="#bbb"><circle cx="83" cy="95" r="8"/><circle cx="83" cy="95" r="36"/><circle cx="83" cy="95" r="80"/></g>
 <path d="m129 72-4-2 1-4-9 8z" fill="#00f"/><path d="m152 55-27 15" fill="none" stroke="#00f"/>
 <g fill="none" stroke="#f00" stroke-linecap="round"><path d="m152 55-27 15" stroke="#00f"/><path d="m198 76h-13"/><path id="a" d="m149 76s-3 12-6 0-6 0-6 0"/><use transform="translate(12)" xlink:href="#a"/><use transform="translate(24)" xlink:href="#a"/><use transform="translate(36)" xlink:href="#a"/></g>
 <g fill="#0a4"><circle cx="114" cy="76" r="3"/><circle cx="152" cy="55" r="3"/></g>
 <path d="m195 72 3 4-3 4 12-4z" fill="#f00"/><circle cx="83" cy="95" r="3"/><rect x="138" y="88" width="53" height="15" fill="#fff"/>
 <g font-family="Times" font-size="14px" font-style="italic"><text x="85" y="111">+Ze</text>
 <g fill="#00f"><text x="67" y="85">n =&#160;<tspan font-style="normal">1</tspan></text><text x="67" y="57">n =&#160;<tspan font-style="normal">2</tspan></text><text x="67" y="12">n =&#160;<tspan font-style="normal">3</tspan></text></g>
 <text x="139" y="100" fill="#f00" font-style="normal">Δ<tspan font-style="italic">E = hν</tspan></text></g></svg>