<!DOCTYPE svg PUBLIC "-//W3C//DTD SVG 1.0//EN" 
 "http://www.w3.org/TR/2001/REC-SVG-20010904/DTD/svg10.dtd">

<svg xmlns="http://www.w3.org/2000/svg" 
 xmlns:xlink="http://www.w3.org/1999/xlink" 
 width='600px' height='400px'>

<title>Total internal reflection</title>

<defs>
	<marker id="yArrow" markerWidth="8" markerHeight="8" refX="2" refY="4" orient="auto">
	<path d="M 0 0 L 4 4 L 0 8 Q 3,4 0,0 " style="fill: blue; stroke: none;" />
	</marker>

</defs>

<g transform="translate(50,130)">

<rect x="-100" y="0" width="800" height="360" style="fill:lightblue;stroke:black;stroke-width:2;
fill-opacity:0.4;"/>

<circle cx="0" cy="223.6" r="4" stroke-width="1.5" fill="blue" stroke="blue" />

<g style="fill:none; stroke-width:3; stroke-linejoin:bevel" >
<path id="normalIncidence" d="M0,223.6 v-323.6" style="marker-end: url(#yArrow); stroke:blue;" />
<path id="criticalAngle" d="M0,223.6 L200,0 L400,223.6" style="marker-end: url(#yArrow); stroke:blue;" />
<path d="M0,223.6 L66.67 0 l5, 16.77" style="marker-end: url(#yArrow); stroke:blue;"/>
<path d="M66.67 0 l42.7, -90" style="marker-end: url(#yArrow); stroke:blue;"/>

<path d="M0,223.6 L133.33 0 l20 33.54" style="marker-end: url(#yArrow); stroke:blue;" />
<path d="M133.33 0 l60, -50" style="marker-end: url(#yArrow); stroke:blue;"/>

<path d="M0,223.6 L266.67 0 L533.33 223.6" style="marker-end: url(#yArrow); stroke:blue;"/>
</g>

<g id="normals" style="fill:none; stroke: black; stroke-dasharray:3,3; stroke-width:2;">
<path d="M66.67,-51 v102" />
<path d="M133.33,-51 v102" />
<path d="M200,0 v51" />
<path d="M266.67,0 v51" />
</g>

<g style="font-family=sans-serif; font-size: 20pt; fill:black; text-anchor:left">
<text x="400" y="60">n = 1.5</text>
<text x="400" y="-60">n = 1</text>
</g>

<text x="185" y="56" style="font-family=sans-serif; font-size: 20pt; fill:black; text-anchor:end" >θ</text>
<text x="183" y="60" style="font-family=sans-serif; font-size: 16pt; fill:black; " >c</text>
<path id="angleArc" d="M200,39 a39 39 0 0 1 -26 -9.93" fill="none" stroke="black" stroke-width="4" />

</g>

</svg>