<?xml version="1.0" encoding="UTF-8" standalone="no"?>
<!-- Created with Inkscape (http://www.inkscape.org/) -->

<svg
   xmlns:dc="http://purl.org/dc/elements/1.1/"
   xmlns:cc="http://creativecommons.org/ns#"
   xmlns:rdf="http://www.w3.org/1999/02/22-rdf-syntax-ns#"
   xmlns:svg="http://www.w3.org/2000/svg"
   xmlns="http://www.w3.org/2000/svg"
   xmlns:sodipodi="http://sodipodi.sourceforge.net/DTD/sodipodi-0.dtd"
   xmlns:inkscape="http://www.inkscape.org/namespaces/inkscape"
   width="624.58002"
   height="624.58002"
   id="svg2607"
   sodipodi:version="0.32"
   inkscape:version="0.47 r22583"
   version="1.0"
   sodipodi:docname="Cartesian-coordinate-system.svg"
   inkscape:output_extension="org.inkscape.output.svg.inkscape">
  <defs
     id="defs2609">
    <inkscape:perspective
       sodipodi:type="inkscape:persp3d"
       inkscape:vp_x="0 : 177.16534 : 1"
       inkscape:vp_y="0 : 1000 : 0"
       inkscape:vp_z="354.33069 : 177.16534 : 1"
       inkscape:persp3d-origin="177.16534 : 118.11023 : 1"
       id="perspective2607" />
    <marker
       inkscape:stockid="Arrow1Mend"
       orient="auto"
       refY="0"
       refX="0"
       id="Arrow1Mend"
       style="overflow:visible">
      <path
         id="path3676"
         d="M 0,0 5,-5 -12.5,0 5,5 0,0 z"
         style="fill-rule:evenodd;stroke:#000000;stroke-width:1pt;marker-start:none"
         transform="matrix(-0.4,0,0,-0.4,-4,0)" />
    </marker>
    <marker
       inkscape:stockid="Arrow1Sstart"
       orient="auto"
       refY="0"
       refX="0"
       id="Arrow1Sstart"
       style="overflow:visible">
      <path
         id="path3673"
         d="M 0,0 5,-5 -12.5,0 5,5 0,0 z"
         style="fill-rule:evenodd;stroke:#000000;stroke-width:1pt;marker-start:none"
         transform="matrix(0.2,0,0,0.2,1.2,0)" />
    </marker>
    <marker
       inkscape:stockid="Arrow1Mstart"
       orient="auto"
       refY="0"
       refX="0"
       id="Arrow1Mstart"
       style="overflow:visible">
      <path
         id="path3679"
         d="M 0,0 5,-5 -12.5,0 5,5 0,0 z"
         style="fill-rule:evenodd;stroke:#000000;stroke-width:1pt;marker-start:none"
         transform="matrix(0.4,0,0,0.4,4,0)" />
    </marker>
    <marker
       inkscape:stockid="Arrow2Mstart"
       orient="auto"
       refY="0"
       refX="0"
       id="Arrow2Mstart"
       style="overflow:visible">
      <path
         id="path3661"
         style="font-size:12px;fill-rule:evenodd;stroke-width:0.625;stroke-linejoin:round"
         d="M 8.7185878,4.0337352 -2.2072895,0.01601326 8.7185884,-4.0017078 c -1.7454984,2.3720609 -1.7354408,5.6174519 -6e-7,8.035443 z"
         transform="scale(0.6,0.6)" />
    </marker>
    <inkscape:perspective
       id="perspective4552"
       inkscape:persp3d-origin="0.5 : 0.33333333 : 1"
       inkscape:vp_z="1 : 0.5 : 1"
       inkscape:vp_y="0 : 1000 : 0"
       inkscape:vp_x="0 : 0.5 : 1"
       sodipodi:type="inkscape:persp3d" />
    <inkscape:perspective
       id="perspective5143"
       inkscape:persp3d-origin="0.5 : 0.33333333 : 1"
       inkscape:vp_z="1 : 0.5 : 1"
       inkscape:vp_y="0 : 1000 : 0"
       inkscape:vp_x="0 : 0.5 : 1"
       sodipodi:type="inkscape:persp3d" />
    <inkscape:perspective
       id="perspective5168"
       inkscape:persp3d-origin="0.5 : 0.33333333 : 1"
       inkscape:vp_z="1 : 0.5 : 1"
       inkscape:vp_y="0 : 1000 : 0"
       inkscape:vp_x="0 : 0.5 : 1"
       sodipodi:type="inkscape:persp3d" />
    <inkscape:perspective
       id="perspective5193"
       inkscape:persp3d-origin="0.5 : 0.33333333 : 1"
       inkscape:vp_z="1 : 0.5 : 1"
       inkscape:vp_y="0 : 1000 : 0"
       inkscape:vp_x="0 : 0.5 : 1"
       sodipodi:type="inkscape:persp3d" />
    <inkscape:perspective
       id="perspective5218"
       inkscape:persp3d-origin="0.5 : 0.33333333 : 1"
       inkscape:vp_z="1 : 0.5 : 1"
       inkscape:vp_y="0 : 1000 : 0"
       inkscape:vp_x="0 : 0.5 : 1"
       sodipodi:type="inkscape:persp3d" />
    <inkscape:perspective
       id="perspective5243"
       inkscape:persp3d-origin="0.5 : 0.33333333 : 1"
       inkscape:vp_z="1 : 0.5 : 1"
       inkscape:vp_y="0 : 1000 : 0"
       inkscape:vp_x="0 : 0.5 : 1"
       sodipodi:type="inkscape:persp3d" />
    <inkscape:perspective
       id="perspective5268"
       inkscape:persp3d-origin="0.5 : 0.33333333 : 1"
       inkscape:vp_z="1 : 0.5 : 1"
       inkscape:vp_y="0 : 1000 : 0"
       inkscape:vp_x="0 : 0.5 : 1"
       sodipodi:type="inkscape:persp3d" />
    <inkscape:perspective
       id="perspective5305"
       inkscape:persp3d-origin="0.5 : 0.33333333 : 1"
       inkscape:vp_z="1 : 0.5 : 1"
       inkscape:vp_y="0 : 1000 : 0"
       inkscape:vp_x="0 : 0.5 : 1"
       sodipodi:type="inkscape:persp3d" />
    <inkscape:perspective
       id="perspective7280"
       inkscape:persp3d-origin="0.5 : 0.33333333 : 1"
       inkscape:vp_z="1 : 0.5 : 1"
       inkscape:vp_y="0 : 1000 : 0"
       inkscape:vp_x="0 : 0.5 : 1"
       sodipodi:type="inkscape:persp3d" />
    <marker
       inkscape:stockid="Arrow1Mend"
       orient="auto"
       refY="0"
       refX="0"
       id="Arrow1Mend-0"
       style="overflow:visible">
      <path
         id="path3676-7"
         d="M 0,0 5,-5 -12.5,0 5,5 0,0 z"
         style="fill-rule:evenodd;stroke:#000000;stroke-width:1pt;marker-start:none"
         transform="matrix(-0.4,0,0,-0.4,-4,0)" />
    </marker>
    <marker
       inkscape:stockid="Arrow1Mend"
       orient="auto"
       refY="0"
       refX="0"
       id="marker7286"
       style="overflow:visible">
      <path
         id="path7288"
         d="M 0,0 5,-5 -12.5,0 5,5 0,0 z"
         style="fill-rule:evenodd;stroke:#000000;stroke-width:1pt;marker-start:none"
         transform="matrix(-0.4,0,0,-0.4,-4,0)" />
    </marker>
  </defs>
  <sodipodi:namedview
     id="base"
     pagecolor="#ffffff"
     bordercolor="#666666"
     borderopacity="1.0"
     inkscape:pageopacity="0.0"
     inkscape:pageshadow="2"
     inkscape:zoom="1.8101934"
     inkscape:cx="123.50176"
     inkscape:cy="138.52564"
     inkscape:document-units="mm"
     inkscape:current-layer="layer1"
     width="100mm"
     height="99.999997mm"
     units="mm"
     showgrid="false"
     showguides="false"
     inkscape:guide-bbox="true"
     grid_units="mm"
     inkscape:grid-points="true"
     gridtolerance="10000"
     inkscape:window-width="1366"
     inkscape:window-height="739"
     inkscape:window-x="0"
     inkscape:window-y="1"
     inkscape:window-maximized="1">
    <sodipodi:guide
       orientation="horizontal"
       position="223.13557,301.36417"
       id="guide2617" />
    <sodipodi:guide
       orientation="vertical"
       position="400.3011,124.2"
       id="guide2619" />
    <inkscape:grid
       id="GridFromPre046Settings"
       type="xygrid"
       originx="0px"
       originy="0px"
       spacingx="1mm"
       spacingy="1mm"
       color="#0000ff"
       empcolor="#0000ff"
       opacity="0.2"
       empopacity="0.4"
       empspacing="5"
       units="mm"
       visible="true"
       enabled="true"
       snapvisiblegridlinesonly="true" />
  </sodipodi:namedview>
  <metadata
     id="metadata2612">
    <rdf:RDF>
      <cc:Work
         rdf:about="">
        <dc:format>image/svg+xml</dc:format>
        <dc:type
           rdf:resource="http://purl.org/dc/dcmitype/StillImage" />
      </cc:Work>
    </rdf:RDF>
  </metadata>
  <g
     inkscape:label="Layer 1"
     inkscape:groupmode="layer"
     id="layer1"
     transform="translate(223.13557,146.04931)">
    <path
       style="fill:none;stroke:#c0c0c0;stroke-width:1.77165353;stroke-linecap:butt;stroke-linejoin:miter;stroke-miterlimit:4;stroke-opacity:1;stroke-dasharray:none"
       d="m -196.30325,97.367658 566.92914,0"
       id="path22419" />
    <path
       style="fill:none;stroke:#c0c0c0;stroke-width:1.77165353;stroke-linecap:butt;stroke-linejoin:miter;stroke-miterlimit:4;stroke-opacity:1;stroke-dasharray:none"
       d="m 370.62589,26.501521 -566.92914,0"
       id="path22421" />
    <path
       style="fill:none;stroke:#c0c0c0;stroke-width:1.77165353;stroke-linecap:butt;stroke-linejoin:miter;stroke-miterlimit:4;stroke-opacity:1;stroke-dasharray:none"
       d="m -196.30325,-44.364615 566.92914,0"
       id="path22423" />
    <path
       style="fill:none;stroke:#c0c0c0;stroke-width:1.77165353;stroke-linecap:butt;stroke-linejoin:miter;stroke-miterlimit:4;stroke-opacity:1;stroke-dasharray:none"
       d="m 370.62589,239.09996 -566.92914,0"
       id="path22425" />
    <path
       style="fill:none;stroke:#c0c0c0;stroke-width:1.77165353;stroke-linecap:butt;stroke-linejoin:miter;stroke-miterlimit:4;stroke-opacity:1;stroke-dasharray:none"
       d="m 370.62589,309.9661 -566.92914,0"
       id="path22427" />
    <path
       style="fill:none;stroke:#c0c0c0;stroke-width:1.77165353;stroke-linecap:butt;stroke-linejoin:miter;stroke-miterlimit:4;stroke-opacity:1;stroke-dasharray:none"
       d="m -196.30325,380.83224 566.92914,0"
       id="path22429" />
    <path
       style="fill:none;stroke:#c0c0c0;stroke-width:1.77165353;stroke-linecap:butt;stroke-linejoin:miter;stroke-miterlimit:4;stroke-opacity:1;stroke-dasharray:none"
       d="m 299.75975,451.69838 0,-566.92913"
       id="path22431" />
    <path
       style="fill:none;stroke:#c0c0c0;stroke-width:1.77165353;stroke-linecap:butt;stroke-linejoin:miter;stroke-miterlimit:4;stroke-opacity:1;stroke-dasharray:none"
       d="m 228.89361,-115.23075 0,566.92913"
       id="path22433" />
    <path
       style="fill:none;stroke:#c0c0c0;stroke-width:1.77165353;stroke-linecap:butt;stroke-linejoin:miter;stroke-miterlimit:4;stroke-opacity:1;stroke-dasharray:none"
       d="m 158.02747,451.69838 0,-566.92913"
       id="path22435" />
    <path
       style="fill:none;stroke:#c0c0c0;stroke-width:1.77165353;stroke-linecap:butt;stroke-linejoin:miter;stroke-miterlimit:4;stroke-opacity:1;stroke-dasharray:none"
       d="m 16.295164,-115.23075 0,566.92913"
       id="path22437" />
    <path
       style="fill:none;stroke:#c0c0c0;stroke-width:1.77165353;stroke-linecap:butt;stroke-linejoin:miter;stroke-miterlimit:4;stroke-opacity:1;stroke-dasharray:none"
       d="m -54.570975,451.69838 0,-566.92913"
       id="path22439" />
    <path
       style="fill:none;stroke:#c0c0c0;stroke-width:1.77165353;stroke-linecap:butt;stroke-linejoin:miter;stroke-miterlimit:4;stroke-opacity:1;stroke-dasharray:none"
       d="m -125.43711,-115.23075 0,566.92913"
       id="path22441" />
    <path
       style="fill:none;stroke:#4682b4;stroke-width:3.54330707;stroke-linecap:round;stroke-linejoin:miter;stroke-miterlimit:4;stroke-opacity:1;stroke-dasharray:3.54330706, 7.08661414;stroke-dashoffset:0"
       d="m 15.590418,310.17079 70.86614,0"
       id="path11711-9"
       sodipodi:nodetypes="cc" />
    <path
       style="fill:none;stroke:#4682b4;stroke-width:3.54330707;stroke-linecap:round;stroke-linejoin:miter;stroke-miterlimit:4;stroke-opacity:1;stroke-dasharray:3.54330709, 7.08661417;stroke-dashoffset:0"
       d="m 16.295164,308.38677 0,-133.9502"
       id="path12598-9"
       sodipodi:nodetypes="cc" />
    <path
       style="fill:none;stroke:#ff2a2a;stroke-width:3.54330707;stroke-linecap:round;stroke-linejoin:miter;stroke-miterlimit:4;stroke-opacity:1;stroke-dasharray:3.54330706, 7.08661414;stroke-dashoffset:0"
       d="m -125.43711,97.367658 0,70.866142"
       id="path11711"
       sodipodi:nodetypes="cc" />
    <path
       style="fill:none;stroke:#ff2a2a;stroke-width:3.54330707;stroke-linecap:round;stroke-linejoin:miter;stroke-miterlimit:4;stroke-opacity:1;stroke-dasharray:3.54330709, 7.08661417;stroke-dashoffset:0"
       d="m -125.43711,97.367658 212.598415,0"
       id="path12598"
       sodipodi:nodetypes="cc" />
    <path
       style="fill:none;stroke:#3cb371;stroke-width:3.54330707;stroke-linecap:round;stroke-linejoin:miter;stroke-miterlimit:4;stroke-opacity:1;stroke-dasharray:3.54330706, 7.08661414;stroke-dashoffset:0"
       d="m 228.89361,-44.364615 0,212.598415"
       id="path14372"
       sodipodi:nodetypes="cc" />
    <path
       style="fill:none;stroke:#3cb371;stroke-width:3.54330707;stroke-linecap:round;stroke-linejoin:miter;stroke-miterlimit:4;stroke-opacity:1;stroke-dasharray:3.54330706, 7.08661414;stroke-dashoffset:0"
       d="m 87.161305,-44.364615 141.732305,0"
       id="path15259"
       sodipodi:nodetypes="cc" />
    <path
       style="fill:none;stroke:#000000;stroke-width:3.54330707;stroke-linecap:round;stroke-linejoin:miter;stroke-miterlimit:4;stroke-opacity:1;stroke-dasharray:none"
       d="m 16.295164,154.06058 0,28.34646"
       id="path3698" />
    <path
       style="fill:none;stroke:#000000;stroke-width:3.54330707;stroke-linecap:round;stroke-linejoin:miter;stroke-miterlimit:4;stroke-opacity:1;stroke-dasharray:none"
       d="m -54.570975,154.06058 0,28.34646"
       id="path3700" />
    <path
       style="fill:none;stroke:#000000;stroke-width:3.54330707;stroke-linecap:round;stroke-linejoin:miter;stroke-miterlimit:4;stroke-opacity:1;stroke-dasharray:none"
       d="m -125.43711,154.06058 0,28.34646"
       id="path3702"
       sodipodi:nodetypes="cc" />
    <path
       style="fill:none;stroke:#000000;stroke-width:3.54330707;stroke-linecap:round;stroke-linejoin:miter;stroke-miterlimit:4;stroke-opacity:1;stroke-dasharray:none"
       d="m 158.02747,154.06058 0,28.34646"
       id="path3706" />
    <path
       style="fill:none;stroke:#000000;stroke-width:3.54330707;stroke-linecap:round;stroke-linejoin:miter;stroke-miterlimit:4;stroke-opacity:1;stroke-dasharray:none"
       d="m 228.89361,154.06058 0,28.34646"
       id="path3708" />
    <path
       style="fill:none;stroke:#000000;stroke-width:3.54330707;stroke-linecap:round;stroke-linejoin:miter;stroke-miterlimit:4;stroke-opacity:1;stroke-dasharray:none"
       d="m 299.75975,154.06058 0,28.34646"
       id="path3710" />
    <path
       id="path6854"
       style="font-size:40px;font-style:italic;font-variant:normal;font-weight:normal;font-stretch:normal;fill:#000000;fill-opacity:1;stroke:none;font-family:Gentium;-inkscape-font-specification:Andale Mono Italic"
       d="m 386.9595,207.15828 c -0.55991,0.39063 -1.0547,0.72917 -1.48437,1.01562 -0.4297,0.27344 -0.82033,0.4948 -1.17188,0.66407 -0.33855,0.18229 -0.65105,0.3125 -0.9375,0.39062 -0.27345,0.0911 -0.53386,0.13672 -0.78125,0.13672 -0.39063,0 -0.78777,-0.20833 -1.1914,-0.625 -0.39064,-0.40364 -0.78126,-0.94401 -1.17188,-1.62109 -0.37761,-0.69011 -0.76173,-1.47786 -1.15234,-2.36328 -0.37761,-0.89844 -0.74871,-1.82943 -1.11328,-2.79297 -0.29949,0.40365 -0.64454,0.85938 -1.03516,1.36718 -0.37761,0.4948 -0.78777,1.02865 -1.23047,1.60157 -0.42969,0.57292 -0.87891,1.1849 -1.34765,1.83593 -0.46876,0.63803 -0.931,1.30209 -1.38672,1.99219 -0.48178,0.0651 -1.02214,0.14323 -1.6211,0.23438 -0.59896,0.10416 -1.13932,0.22786 -1.62109,0.37109 l -0.44922,-0.68359 c 0.59896,-0.52084 1.24349,-1.1263 1.93359,-1.81641 0.69011,-0.6901 1.38672,-1.41276 2.08985,-2.16797 0.71614,-0.7552 1.41275,-1.51692 2.08984,-2.28515 0.6901,-0.78125 1.32812,-1.52343 1.91406,-2.22657 -0.37761,-0.98957 -0.7487,-1.95311 -1.11328,-2.89062 -0.36459,-0.93749 -0.72917,-1.76431 -1.09375,-2.48047 -0.35156,-0.72915 -0.69662,-1.30858 -1.03515,-1.73828 -0.33855,-0.44269 -0.66407,-0.66405 -0.97657,-0.66406 -0.11719,1e-5 -0.3125,0.026 -0.58593,0.0781 -0.26042,0.0521 -0.52735,0.11069 -0.80078,0.17578 -0.27344,0.0651 -0.52084,0.12372 -0.74219,0.17578 -0.20834,0.0521 -0.3125,0.0781 -0.3125,0.0781 l -0.27344,-0.76172 c 0.54687,-0.23436 1.06771,-0.46222 1.5625,-0.68359 0.50781,-0.23436 0.97005,-0.43618 1.38672,-0.60547 0.41666,-0.18228 0.76822,-0.32551 1.05469,-0.42969 0.29947,-0.10415 0.52083,-0.15623 0.66406,-0.15625 0.35156,2e-5 0.70963,0.22137 1.07422,0.66406 0.36457,0.44273 0.73567,1.03517 1.11328,1.77735 0.3776,0.72918 0.76171,1.56902 1.15234,2.51953 0.39062,0.93751 0.78124,1.90756 1.17188,2.91015 0.53384,-0.63801 1.05467,-1.28905 1.5625,-1.95312 0.5078,-0.66405 0.95702,-1.27603 1.34765,-1.83594 0.39062,-0.5729 0.70312,-1.05467 0.9375,-1.44531 0.24739,-0.39061 0.37108,-0.6315 0.3711,-0.72266 -2e-5,-0.13019 -0.0195,-0.24738 -0.0586,-0.35156 -0.0391,-0.10415 -0.12371,-0.18228 -0.2539,-0.23438 -0.13022,-0.0521 -0.32554,-0.0781 -0.58594,-0.0781 -0.24741,-0.013 -0.57944,2e-5 -0.99609,0.0391 l -0.0391,-0.80078 c 0.85937,-0.18227 1.62108,-0.30597 2.28516,-0.37109 0.66405,-0.0781 1.15884,-0.11717 1.48438,-0.11719 0.62498,2e-5 1.06118,0.10418 1.30859,0.3125 0.24738,0.20835 0.37108,0.44924 0.37109,0.72266 -1e-5,0.26043 -0.15626,0.6185 -0.46875,1.07421 -0.29949,0.44273 -0.74871,1.01564 -1.34765,1.71875 -0.58596,0.69012 -1.32163,1.51694 -2.20703,2.48047 -0.88543,0.95054 -1.90106,2.05079 -3.04688,3.30078 0.36457,0.93751 0.72265,1.84246 1.07422,2.71485 0.36457,0.85938 0.71613,1.6211 1.05469,2.28515 0.33853,0.66407 0.67056,1.19792 0.99609,1.60157 0.32551,0.39062 0.63801,0.58594 0.9375,0.58593 0.29947,1e-5 0.64452,-0.0456 1.03516,-0.13671 0.40363,-0.0911 0.84633,-0.26042 1.32812,-0.50782 l 0.33203,0.72266 0,0" />
    <path
       style="font-size:32px;font-style:normal;font-variant:normal;font-weight:normal;font-stretch:normal;fill:#000000;fill-opacity:1;stroke:none;font-family:Gentium;-inkscape-font-specification:Gentium"
       id="path6863"
       d="m 153.03528,211.84929 0,-0.82813 c 0.81249,-0.0937 1.48958,-0.19791 2.03125,-0.3125 0.54166,-0.12499 0.97395,-0.24999 1.29687,-0.375 0.32291,-0.12499 0.55208,-0.24479 0.6875,-0.35937 0.13541,-0.125 0.20312,-0.24479 0.20313,-0.35938 l 0,-12.45312 c -1e-5,-0.41665 -0.0156,-0.73957 -0.0469,-0.96875 -0.0312,-0.22915 -0.10938,-0.41665 -0.23437,-0.5625 -0.0625,-0.0625 -0.1823,-0.11457 -0.35938,-0.15625 -0.17709,-0.0417 -0.42709,-0.0573 -0.75,-0.0469 -0.32292,0.0104 -0.72917,0.0469 -1.21875,0.10938 -0.48958,0.0625 -1.07812,0.16668 -1.76562,0.3125 l -0.32813,-0.79688 c 0.4375,-0.12498 0.95313,-0.29685 1.54688,-0.51562 0.60416,-0.21873 1.21354,-0.45311 1.82812,-0.70313 0.61458,-0.26039 1.19791,-0.5156 1.75,-0.76562 0.55208,-0.2604 1,-0.48436 1.34375,-0.67188 l 0.57813,0.54688 0,16.67187 c -1e-5,0.10417 0.0573,0.21876 0.17187,0.34375 0.11458,0.11459 0.3177,0.23438 0.60938,0.35938 0.29165,0.125 0.68749,0.25 1.1875,0.375 0.5104,0.125 1.15624,0.23437 1.9375,0.32812 l 0,0.82813 -10.46875,0" />
    <path
       style="font-size:32px;font-style:normal;font-variant:normal;font-weight:normal;font-stretch:normal;fill:#000000;fill-opacity:1;stroke:none;font-family:Gentium;-inkscape-font-specification:Gentium"
       id="path6860"
       d="m 234.42485,211.84929 -10.84375,0 -0.45312,-1.15625 c 1.23958,-1.4375 2.3177,-2.70833 3.23437,-3.8125 0.92708,-1.10416 1.71874,-2.07812 2.375,-2.92188 0.65624,-0.85415 1.19791,-1.59894 1.625,-2.23437 0.42707,-0.64582 0.76562,-1.21874 1.01563,-1.71875 0.24999,-0.51041 0.42186,-0.96874 0.51562,-1.375 0.0937,-0.41665 0.14062,-0.8229 0.14063,-1.21875 -1e-5,-0.47915 -0.0573,-0.92186 -0.17188,-1.32813 -0.11459,-0.41665 -0.29688,-0.77602 -0.54687,-1.07812 -0.25001,-0.31248 -0.57814,-0.55207 -0.98438,-0.71875 -0.39584,-0.17707 -0.87501,-0.26561 -1.4375,-0.26563 -0.42709,2e-5 -0.81771,0.099 -1.17187,0.29688 -0.35418,0.19793 -0.66147,0.45314 -0.92188,0.76562 -0.26042,0.31252 -0.46355,0.66148 -0.60937,1.04688 -0.13543,0.38543 -0.20313,0.76043 -0.20313,1.125 -0.17709,0.0938 -0.33855,0.18231 -0.48437,0.26562 -0.13542,0.0833 -0.28126,0.16148 -0.4375,0.23438 -0.14584,0.0625 -0.3073,0.1198 -0.48438,0.17187 -0.16667,0.0417 -0.36979,0.0729 -0.60937,0.0937 l -0.42188,-0.46875 c 0,-0.54165 0.18229,-1.10415 0.54688,-1.6875 0.36458,-0.59373 0.84895,-1.1354 1.45312,-1.625 0.60416,-0.48956 1.28645,-0.8906 2.04688,-1.20312 0.77082,-0.3229 1.55728,-0.48436 2.35937,-0.48438 0.62499,2e-5 1.20832,0.0886 1.75,0.26563 0.55207,0.1771 1.02603,0.44793 1.42188,0.8125 0.40623,0.35418 0.72394,0.81252 0.95312,1.375 0.22915,0.5521 0.34374,1.20835 0.34375,1.96875 -1e-5,0.45835 -0.0677,0.9271 -0.20312,1.40625 -0.12502,0.46876 -0.33335,0.97918 -0.625,1.53125 -0.28127,0.54168 -0.65106,1.13543 -1.10938,1.78125 -0.44793,0.64584 -0.9948,1.37501 -1.64062,2.1875 -0.64585,0.80209 -1.39064,1.70313 -2.23438,2.70312 -0.84376,1.00001 -1.79688,2.12501 -2.85937,3.375 l 6.53125,0 c 0.28123,1e-5 0.51561,-0.0937 0.70312,-0.28125 0.19791,-0.19791 0.35416,-0.42708 0.46875,-0.6875 0.11457,-0.27083 0.20311,-0.54687 0.26563,-0.82812 0.0625,-0.28125 0.10415,-0.51041 0.125,-0.6875 0.0208,-0.1875 0.0312,-0.28645 0.0312,-0.29688 l 0.78125,0.1875 -0.23438,4.48438" />
    <path
       style="font-size:32px;font-style:normal;font-variant:normal;font-weight:normal;font-stretch:normal;fill:#000000;fill-opacity:1;stroke:none;font-family:Gentium;-inkscape-font-specification:Gentium"
       id="path6857"
       d="m 305.6738,205.42741 c -2e-5,0.87501 -0.14064,1.70313 -0.42188,2.48438 -0.28126,0.78125 -0.69793,1.46354 -1.25,2.04687 -0.55209,0.58334 -1.23438,1.04688 -2.04687,1.39063 -0.81251,0.33333 -1.75522,0.5 -2.82813,0.5 -0.40625,0 -0.82292,-0.0365 -1.25,-0.10938 -0.42709,-0.0729 -0.86458,-0.19791 -1.3125,-0.375 -0.4375,-0.1875 -0.88542,-0.42708 -1.34375,-0.71875 -0.44792,-0.30208 -0.90625,-0.67708 -1.375,-1.125 l 0.53125,-1.04687 c 0.46875,0.35417 0.89583,0.64583 1.28125,0.875 0.39583,0.22917 0.76562,0.41146 1.10938,0.54687 0.35416,0.13542 0.70312,0.22917 1.04687,0.28125 0.34375,0.0521 0.71354,0.0781 1.10938,0.0781 0.63541,0 1.21353,-0.099 1.73437,-0.29688 0.52083,-0.19791 0.96874,-0.48437 1.34375,-0.85937 0.37499,-0.375 0.66666,-0.82812 0.875,-1.35938 0.20833,-0.53124 0.31249,-1.1302 0.3125,-1.79687 -10e-6,-0.78124 -0.12501,-1.4427 -0.375,-1.98438 -0.23959,-0.55207 -0.55209,-0.99999 -0.9375,-1.34375 -0.38542,-0.34374 -0.81771,-0.58853 -1.29687,-0.73437 -0.46876,-0.15624 -0.9323,-0.23437 -1.39063,-0.23438 -0.14584,1e-5 -0.25521,1e-5 -0.32812,0 -0.0625,1e-5 -0.12501,0.005 -0.1875,0.0156 -0.0521,0.0104 -0.1198,0.0208 -0.20313,0.0312 -0.0729,0.0104 -0.1875,0.0313 -0.34375,0.0625 l -0.21875,-0.9375 c 0.95833,-0.26041 1.72395,-0.56249 2.29688,-0.90625 0.57291,-0.34374 1.01041,-0.69791 1.3125,-1.0625 0.31249,-0.37499 0.51561,-0.74478 0.60937,-1.10938 0.10416,-0.37498 0.15624,-0.72394 0.15625,-1.04687 -10e-6,-0.35415 -0.0573,-0.71874 -0.17187,-1.09375 -0.10418,-0.37498 -0.27605,-0.71353 -0.51563,-1.01563 -0.22917,-0.30206 -0.52084,-0.54685 -0.875,-0.73437 -0.35417,-0.1979 -0.78125,-0.29686 -1.28125,-0.29688 -0.41667,2e-5 -0.79167,0.0729 -1.125,0.21875 -0.32292,0.13544 -0.59375,0.32294 -0.8125,0.5625 -0.21875,0.2396 -0.375,0.52085 -0.46875,0.84375 -0.0833,0.31252 -0.0937,0.64585 -0.0312,1 -0.35417,0.1771 -0.69271,0.31773 -1.01562,0.42188 -0.32292,0.0938 -0.70834,0.15626 -1.15625,0.1875 l -0.42188,-0.48438 c 0,-0.43748 0.16146,-0.90102 0.48438,-1.39062 0.32291,-0.49998 0.7552,-0.95832 1.29687,-1.375 0.54167,-0.41665 1.16666,-0.7604 1.875,-1.03125 0.71875,-0.28123 1.47395,-0.42186 2.26563,-0.42188 0.78124,2e-5 1.44791,0.12502 2,0.375 0.56249,0.25002 1.02082,0.58336 1.375,1 0.36457,0.40627 0.63019,0.86981 0.79687,1.39063 0.16666,0.51043 0.24999,1.03126 0.25,1.5625 -10e-6,0.39585 -0.0781,0.78647 -0.23437,1.17187 -0.14585,0.38543 -0.3646,0.75523 -0.65625,1.10938 -0.28126,0.35418 -0.62501,0.6823 -1.03125,0.98437 -0.40626,0.3021 -0.86459,0.56772 -1.375,0.79688 0.59374,0.0729 1.14582,0.25522 1.65625,0.54687 0.52082,0.28126 0.96874,0.64585 1.34375,1.09375 0.37499,0.43751 0.67186,0.94272 0.89062,1.51563 0.21874,0.56251 0.32811,1.16146 0.32813,1.79687" />
    <path
       style="font-size:32px;font-style:normal;font-variant:normal;font-weight:normal;font-stretch:normal;fill:#000000;fill-opacity:1;stroke:none;font-family:Gentium;-inkscape-font-specification:Gentium"
       id="path6866"
       d="m 14.849852,202.56804 c -0.0521,0.20834 -0.125012,0.44792 -0.21875,0.71875 -0.08334,0.26042 -0.166679,0.47917 -0.25,0.65625 l -10.3437507,0 -0.390625,-0.375 c 0.052082,-0.20833 0.1197906,-0.43749 0.203125,-0.6875 0.093749,-0.24999 0.1874987,-0.47916 0.28125,-0.6875 l 10.3437507,0 0.375,0.375 0,0" />
    <path
       style="font-size:32px;font-style:normal;font-variant:normal;font-weight:normal;font-stretch:normal;fill:#000000;fill-opacity:1;stroke:none;font-family:Gentium;-inkscape-font-specification:Gentium"
       id="path6868"
       d="m 18.474852,211.84929 0,-0.82813 c 0.812496,-0.0937 1.489579,-0.19791 2.03125,-0.3125 0.541661,-0.12499 0.973952,-0.24999 1.296875,-0.375 0.32291,-0.12499 0.552077,-0.24479 0.6875,-0.35937 0.13541,-0.125 0.203118,-0.24479 0.203125,-0.35938 l 0,-12.45312 c -7e-6,-0.41665 -0.01563,-0.73957 -0.04687,-0.96875 -0.03126,-0.22915 -0.109382,-0.41665 -0.234375,-0.5625 -0.06251,-0.0625 -0.182298,-0.11457 -0.359375,-0.15625 -0.17709,-0.0417 -0.427089,-0.0573 -0.75,-0.0469 -0.322922,0.0104 -0.729172,0.0469 -1.21875,0.10938 -0.489587,0.0625 -1.078128,0.16668 -1.765625,0.3125 l -0.328125,-0.79688 c 0.437497,-0.12498 0.953122,-0.29685 1.546875,-0.51562 0.604162,-0.21873 1.213537,-0.45311 1.828125,-0.70313 0.614577,-0.26039 1.19791,-0.5156 1.75,-0.76562 0.552075,-0.2604 0.999992,-0.48436 1.34375,-0.67188 l 0.578125,0.54688 0,16.67187 c -9e-6,0.10417 0.05728,0.21876 0.171875,0.34375 0.114574,0.11459 0.317698,0.23438 0.609375,0.35938 0.291656,0.125 0.687489,0.25 1.1875,0.375 0.510405,0.125 1.156237,0.23437 1.9375,0.32812 l 0,0.82813 -10.46875,0" />
    <path
       style="font-size:32px;font-style:normal;font-variant:normal;font-weight:normal;font-stretch:normal;fill:#000000;fill-opacity:1;stroke:none;font-family:Gentium;-inkscape-font-specification:Gentium"
       id="path6871"
       d="m -55.98504,202.56804 c -0.0521,0.20834 -0.125012,0.44792 -0.21875,0.71875 -0.08335,0.26042 -0.166678,0.47917 -0.25,0.65625 l -10.34375,0 -0.390625,-0.375 c 0.05208,-0.20833 0.119791,-0.43749 0.203125,-0.6875 0.09375,-0.24999 0.187499,-0.47916 0.28125,-0.6875 l 10.34375,0 0.375,0.375 0,0" />
    <path
       style="font-size:32px;font-style:normal;font-variant:normal;font-weight:normal;font-stretch:normal;fill:#000000;fill-opacity:1;stroke:none;font-family:Gentium;-inkscape-font-specification:Gentium"
       id="path6873"
       d="m -42.188165,211.84929 -10.84375,0 -0.453125,-1.15625 c 1.239581,-1.4375 2.317705,-2.70833 3.234375,-3.8125 0.927078,-1.10416 1.718744,-2.07812 2.375,-2.92188 0.656242,-0.85415 1.197909,-1.59894 1.625,-2.23437 0.427074,-0.64582 0.765616,-1.21874 1.015625,-1.71875 0.24999,-0.51041 0.421865,-0.96874 0.515625,-1.375 0.09374,-0.41665 0.140615,-0.8229 0.140625,-1.21875 -1e-5,-0.47915 -0.0573,-0.92186 -0.171875,-1.32813 -0.114593,-0.41665 -0.296885,-0.77602 -0.546875,-1.07812 -0.250009,-0.31248 -0.578134,-0.55207 -0.984375,-0.71875 -0.395841,-0.17707 -0.875008,-0.26561 -1.4375,-0.26563 -0.42709,2e-5 -0.817715,0.099 -1.171875,0.29688 -0.354172,0.19793 -0.661464,0.45314 -0.921875,0.76562 -0.260421,0.31252 -0.463546,0.66148 -0.609375,1.04688 -0.135421,0.38543 -0.203129,0.76043 -0.203125,1.125 -0.177087,0.0938 -0.338545,0.18231 -0.484375,0.26562 -0.13542,0.0833 -0.281253,0.16148 -0.4375,0.23438 -0.145836,0.0625 -0.307295,0.1198 -0.484375,0.17187 -0.166669,0.0417 -0.369794,0.0729 -0.609375,0.0937 l -0.421875,-0.46875 c -2e-6,-0.54165 0.18229,-1.10415 0.546875,-1.6875 0.364581,-0.59373 0.848955,-1.1354 1.453125,-1.625 0.604162,-0.48956 1.286453,-0.8906 2.046875,-1.20312 0.770827,-0.3229 1.557284,-0.48436 2.359375,-0.48438 0.624991,2e-5 1.208324,0.0886 1.75,0.26563 0.552073,0.1771 1.026031,0.44793 1.421875,0.8125 0.406238,0.35418 0.723946,0.81252 0.953125,1.375 0.229154,0.5521 0.343737,1.20835 0.34375,1.96875 -1.3e-5,0.45835 -0.06772,0.9271 -0.203125,1.40625 -0.125012,0.46876 -0.333345,0.97918 -0.625,1.53125 -0.281261,0.54168 -0.651053,1.13543 -1.109375,1.78125 -0.447927,0.64584 -0.994801,1.37501 -1.640625,2.1875 -0.645842,0.80209 -1.390633,1.70313 -2.234375,2.70312 -0.843756,1.00001 -1.79688,2.12501 -2.859375,3.375 l 6.53125,0 c 0.281239,1e-5 0.515614,-0.0937 0.703125,-0.28125 0.197905,-0.19791 0.354155,-0.42708 0.46875,-0.6875 0.114572,-0.27083 0.203113,-0.54687 0.265625,-0.82812 0.06249,-0.28125 0.104155,-0.51041 0.125,-0.6875 0.02082,-0.1875 0.03124,-0.28645 0.03125,-0.29688 l 0.78125,0.1875 -0.234375,4.48438" />
    <path
       style="font-size:32px;font-style:normal;font-variant:normal;font-weight:normal;font-stretch:normal;fill:#000000;fill-opacity:1;stroke:none;font-family:Gentium;-inkscape-font-specification:Gentium"
       id="path6876"
       d="m -122.75743,202.09929 c -0.0521,0.20834 -0.12501,0.44792 -0.21875,0.71875 -0.0833,0.26042 -0.16668,0.47917 -0.25,0.65625 l -10.34375,0 -0.39063,-0.375 c 0.0521,-0.20833 0.11979,-0.43749 0.20313,-0.6875 0.0937,-0.24999 0.1875,-0.47916 0.28125,-0.6875 l 10.34375,0 0.375,0.375 0,0" />
    <path
       style="font-size:32px;font-style:normal;font-variant:normal;font-weight:normal;font-stretch:normal;fill:#000000;fill-opacity:1;stroke:none;font-family:Gentium;-inkscape-font-specification:Gentium"
       id="path6878"
       d="m -108.89806,205.42741 c -1e-5,0.87501 -0.14063,1.70313 -0.42187,2.48438 -0.28126,0.78125 -0.69793,1.46354 -1.25,2.04687 -0.5521,0.58334 -1.23439,1.04688 -2.04688,1.39063 -0.8125,0.33333 -1.75521,0.5 -2.82812,0.5 -0.40626,0 -0.82292,-0.0365 -1.25,-0.10938 -0.42709,-0.0729 -0.86459,-0.19791 -1.3125,-0.375 -0.4375,-0.1875 -0.88542,-0.42708 -1.34375,-0.71875 -0.44792,-0.30208 -0.90625,-0.67708 -1.375,-1.125 l 0.53125,-1.04687 c 0.46875,0.35417 0.89583,0.64583 1.28125,0.875 0.39583,0.22917 0.76562,0.41146 1.10937,0.54687 0.35417,0.13542 0.70312,0.22917 1.04688,0.28125 0.34374,0.0521 0.71353,0.0781 1.10937,0.0781 0.63541,0 1.21354,-0.099 1.73438,-0.29688 0.52082,-0.19791 0.96874,-0.48437 1.34375,-0.85937 0.37499,-0.375 0.66666,-0.82812 0.875,-1.35938 0.20832,-0.53124 0.31249,-1.1302 0.3125,-1.79687 -1e-5,-0.78124 -0.12501,-1.4427 -0.375,-1.98438 -0.23959,-0.55207 -0.55209,-0.99999 -0.9375,-1.34375 -0.38543,-0.34374 -0.81772,-0.58853 -1.29688,-0.73437 -0.46875,-0.15624 -0.93229,-0.23437 -1.39062,-0.23438 -0.14584,1e-5 -0.25522,1e-5 -0.32813,0 -0.0625,1e-5 -0.125,0.005 -0.1875,0.0156 -0.0521,0.0104 -0.11979,0.0208 -0.20312,0.0312 -0.0729,0.0104 -0.18751,0.0313 -0.34375,0.0625 l -0.21875,-0.9375 c 0.95833,-0.26041 1.72395,-0.56249 2.29687,-0.90625 0.57291,-0.34374 1.01041,-0.69791 1.3125,-1.0625 0.31249,-0.37499 0.51562,-0.74478 0.60938,-1.10938 0.10416,-0.37498 0.15624,-0.72394 0.15625,-1.04687 -1e-5,-0.35415 -0.0573,-0.71874 -0.17188,-1.09375 -0.10417,-0.37498 -0.27605,-0.71353 -0.51562,-1.01563 -0.22918,-0.30206 -0.52084,-0.54685 -0.875,-0.73437 -0.35418,-0.1979 -0.78126,-0.29686 -1.28125,-0.29688 -0.41667,2e-5 -0.79167,0.0729 -1.125,0.21875 -0.32292,0.13544 -0.59376,0.32294 -0.8125,0.5625 -0.21876,0.2396 -0.37501,0.52085 -0.46875,0.84375 -0.0833,0.31252 -0.0938,0.64585 -0.0312,1 -0.35417,0.1771 -0.69271,0.31773 -1.01563,0.42188 -0.32292,0.0938 -0.70833,0.15626 -1.15625,0.1875 l -0.42187,-0.48438 c 0,-0.43748 0.16146,-0.90102 0.48437,-1.39062 0.32292,-0.49998 0.75521,-0.95832 1.29688,-1.375 0.54166,-0.41665 1.16666,-0.7604 1.875,-1.03125 0.71874,-0.28123 1.47395,-0.42186 2.26562,-0.42188 0.78125,2e-5 1.44791,0.12502 2,0.375 0.56249,0.25002 1.02083,0.58336 1.375,1 0.36458,0.40627 0.6302,0.86981 0.79688,1.39063 0.16665,0.51043 0.24999,1.03126 0.25,1.5625 -1e-5,0.39585 -0.0781,0.78647 -0.23438,1.17187 -0.14584,0.38543 -0.36459,0.75523 -0.65625,1.10938 -0.28126,0.35418 -0.62501,0.6823 -1.03125,0.98437 -0.40626,0.3021 -0.86459,0.56772 -1.375,0.79688 0.59374,0.0729 1.14583,0.25522 1.65625,0.54687 0.52083,0.28126 0.96874,0.64585 1.34375,1.09375 0.37499,0.43751 0.67187,0.94272 0.89063,1.51563 0.21874,0.56251 0.32811,1.16146 0.32812,1.79687" />
    <path
       style="fill:none;stroke:#000000;stroke-width:3.54330707;stroke-linecap:round;stroke-linejoin:miter;stroke-miterlimit:4;stroke-opacity:1;stroke-dasharray:none"
       d="m 72.988085,97.367658 28.346465,0"
       id="path4599" />
    <path
       style="fill:none;stroke:#000000;stroke-width:3.54330707;stroke-linecap:round;stroke-linejoin:miter;stroke-miterlimit:4;stroke-opacity:1;stroke-dasharray:none"
       d="m 72.988085,26.501521 28.346465,0"
       id="path4601" />
    <path
       style="fill:none;stroke:#000000;stroke-width:3.54330707;stroke-linecap:round;stroke-linejoin:miter;stroke-miterlimit:4;stroke-opacity:1;stroke-dasharray:none"
       d="m 72.988085,-44.364615 28.346465,0"
       id="path4603" />
    <path
       style="fill:none;stroke:#000000;stroke-width:3.54330707;stroke-linecap:round;stroke-linejoin:miter;stroke-miterlimit:4;stroke-opacity:1;stroke-dasharray:none"
       d="m 72.988085,239.09996 28.346465,0"
       id="path4605" />
    <path
       style="fill:none;stroke:#000000;stroke-width:3.54330707;stroke-linecap:round;stroke-linejoin:miter;stroke-miterlimit:4;stroke-opacity:1;stroke-dasharray:none"
       d="m 72.988085,309.9661 28.346465,0"
       id="path4607" />
    <path
       style="fill:none;stroke:#000000;stroke-width:3.54330707;stroke-linecap:round;stroke-linejoin:miter;stroke-miterlimit:4;stroke-opacity:1;stroke-dasharray:none"
       d="m 72.988085,380.83224 28.346465,0"
       id="path4609" />
    <path
       id="path6955"
       style="font-size:40px;font-style:italic;font-variant:normal;font-weight:normal;font-stretch:normal;fill:#000000;fill-opacity:1;stroke:none;font-family:Gentium;-inkscape-font-specification:Andale Mono Italic"
       d="m 68.27201,-124.23237 c -1.8e-5,0.44273 -0.123715,1.01564 -0.371094,1.71875 -0.234392,0.69012 -0.625016,1.62111 -1.171875,2.79297 -0.533869,1.15887 -1.243504,2.60418 -2.128906,4.33594 -0.872409,1.73177 -1.940116,3.84766 -3.203125,6.34765 -0.872406,1.70573 -1.744801,3.25521 -2.617188,4.64844 -0.859382,1.39323 -1.744798,2.58463 -2.65625,3.57422 -0.911462,1.002596 -1.861982,1.777335 -2.851562,2.324218 -0.989585,0.546866 -2.037761,0.820303 -3.144531,0.820313 -0.390624,-10e-6 -0.755207,-0.03256 -1.09375,-0.09766 -0.351561,-0.06511 -0.65104,-0.149749 -0.898438,-0.253906 -0.260414,-0.09115 -0.462236,-0.195322 -0.605469,-0.3125 -0.156246,-0.117196 -0.234371,-0.227873 -0.234375,-0.332031 4e-6,-0.156259 0.06511,-0.377613 0.195313,-0.664063 0.117191,-0.273445 0.26693,-0.566414 0.449219,-0.878901 0.182294,-0.29949 0.384117,-0.57943 0.605468,-0.83984 0.208336,-0.24741 0.403648,-0.41668 0.585938,-0.50782 0.312501,0.20833 0.592449,0.37109 0.839844,0.48828 0.234375,0.11719 0.455729,0.20182 0.664062,0.25391 0.208333,0.0521 0.416666,0.0781 0.625,0.0781 0.208333,0.013 0.429687,0.0195 0.664063,0.0195 1.054685,-10e-6 2.08333,-0.51433 3.085937,-1.54297 1.01562,-1.01563 2.070306,-2.45443 3.164063,-4.31641 -0.130216,-0.75521 -0.292976,-1.60807 -0.488282,-2.55859 -0.182298,-0.95052 -0.390631,-1.92708 -0.625,-2.92969 -0.22136,-1.0026 -0.455735,-2.0052 -0.703125,-3.00781 -0.247401,-1.01562 -0.494796,-1.96614 -0.742187,-2.85156 -0.247401,-0.88541 -0.488286,-1.67968 -0.722656,-2.38282 -0.221358,-0.71613 -0.429692,-1.27602 -0.625,-1.67968 -0.299483,-0.66405 -0.553389,-1.09374 -0.761719,-1.28907 -0.208336,-0.20831 -0.42318,-0.31248 -0.644531,-0.3125 -0.11719,2e-5 -0.286461,0.0261 -0.507813,0.0781 -0.208335,0.0521 -0.416668,0.11069 -0.625,0.17578 -0.208334,0.0521 -0.390625,0.10418 -0.546875,0.15625 -0.15625,0.0391 -0.234375,0.0586 -0.234375,0.0586 l -0.234375,-0.72265 c 0.546875,-0.24738 1.067707,-0.48176 1.5625,-0.70313 0.49479,-0.23436 0.937498,-0.43618 1.328125,-0.60547 0.403643,-0.16925 0.755205,-0.30597 1.054688,-0.41015 0.299475,-0.10415 0.527339,-0.15624 0.683593,-0.15625 0.182287,1e-5 0.338537,0.0456 0.46875,0.13672 0.143224,0.0912 0.279943,0.23439 0.410157,0.42968 0.130202,0.19533 0.2539,0.45575 0.371093,0.78125 0.130203,0.31252 0.273432,0.69012 0.429688,1.13282 0.247389,0.70314 0.514316,1.53647 0.800781,2.5 0.299472,0.95053 0.598951,1.97917 0.898438,3.08593 0.299471,1.10678 0.592439,2.25913 0.878906,3.45703 0.286449,1.18491 0.546865,2.36329 0.78125,3.53516 0.416657,-0.82031 0.833323,-1.65364 1.25,-2.5 0.429676,-0.85937 0.839832,-1.70572 1.230469,-2.53906 0.390612,-0.83333 0.748685,-1.6276 1.074218,-2.38281 0.338529,-0.76822 0.631497,-1.47135 0.878907,-2.10938 0.260402,-0.63801 0.462225,-1.18488 0.605468,-1.64062 0.143215,-0.46874 0.214829,-0.8203 0.214844,-1.05469 -1.5e-5,-0.65103 -0.345066,-0.99608 -1.035156,-1.03516 -0.41668,-0.039 -1.009128,0.11069 -1.777344,0.44922 l -0.351562,-0.72266 c 0.937487,-0.54685 1.757799,-0.93748 2.460937,-1.17187 0.716131,-0.23436 1.295558,-0.35155 1.738281,-0.35156 0.221338,1e-5 0.429672,0.0195 0.625,0.0586 0.195296,0.0261 0.364567,0.0912 0.507813,0.19531 0.143212,0.10419 0.253889,0.25393 0.332031,0.44922 0.09113,0.19533 0.136701,0.45575 0.136719,0.78125" />
    <path
       style="font-size:32px;font-style:normal;font-variant:normal;font-weight:normal;font-stretch:normal;fill:#000000;fill-opacity:1;stroke:none;font-family:Gentium;-inkscape-font-specification:Gentium"
       id="path6887"
       d="m 117.3921,106.31746 0,-0.82813 c 0.81249,-0.0937 1.48958,-0.19791 2.03125,-0.3125 0.54166,-0.12499 0.97395,-0.24999 1.29687,-0.375 0.32291,-0.12499 0.55208,-0.24479 0.6875,-0.35937 0.13541,-0.125 0.20312,-0.24479 0.20313,-0.35938 l 0,-12.453122 c -1e-5,-0.416651 -0.0156,-0.739568 -0.0469,-0.96875 -0.0312,-0.229151 -0.10938,-0.41665 -0.23437,-0.5625 -0.0625,-0.06248 -0.1823,-0.114567 -0.35938,-0.15625 -0.17709,-0.04165 -0.42709,-0.05728 -0.75,-0.04687 -0.32292,0.01043 -0.72917,0.04689 -1.21875,0.109375 -0.48958,0.06252 -1.07813,0.166683 -1.76562,0.3125 l -0.32813,-0.796875 c 0.4375,-0.124983 0.95312,-0.296858 1.54688,-0.515625 0.60416,-0.218732 1.21353,-0.453107 1.82812,-0.703125 0.61458,-0.260398 1.19791,-0.515606 1.75,-0.765625 0.55208,-0.260398 0.99999,-0.484356 1.34375,-0.671875 l 0.57813,0.546875 0,16.671867 c -1e-5,0.10417 0.0573,0.21877 0.17187,0.34375 0.11458,0.1146 0.3177,0.23439 0.60938,0.35939 0.29165,0.125 0.68749,0.25 1.1875,0.375 0.5104,0.125 1.15624,0.23438 1.9375,0.32811 l 0,0.82814 -10.46875,0" />
    <path
       style="font-size:32px;font-style:normal;font-variant:normal;font-weight:normal;font-stretch:normal;fill:#000000;fill-opacity:1;stroke:none;font-family:Gentium;-inkscape-font-specification:Gentium"
       id="path6884"
       d="m 127.62647,36.149959 -10.84375,0 -0.45312,-1.15625 c 1.23958,-1.437498 2.3177,-2.70833 3.23437,-3.8125 0.92708,-1.104161 1.71875,-2.078118 2.375,-2.921875 0.65624,-0.854158 1.19791,-1.598949 1.625,-2.234375 0.42708,-0.645823 0.76562,-1.218739 1.01563,-1.71875 0.24999,-0.510405 0.42186,-0.968738 0.51562,-1.375 0.0937,-0.416653 0.14062,-0.822903 0.14063,-1.21875 -1e-5,-0.479152 -0.0573,-0.92186 -0.17188,-1.328125 -0.11459,-0.416651 -0.29688,-0.776026 -0.54687,-1.078125 -0.25001,-0.312483 -0.57814,-0.552066 -0.98438,-0.71875 -0.39584,-0.177066 -0.87501,-0.265608 -1.4375,-0.265625 -0.42709,1.7e-5 -0.81771,0.09898 -1.17187,0.296875 -0.35417,0.197934 -0.66147,0.453142 -0.92188,0.765625 -0.26042,0.312516 -0.46354,0.661474 -0.60937,1.046875 -0.13542,0.385432 -0.20313,0.760431 -0.20313,1.125 -0.17709,0.09376 -0.33854,0.182306 -0.48437,0.265625 -0.13542,0.08335 -0.28126,0.161472 -0.4375,0.234375 -0.14584,0.06251 -0.3073,0.119805 -0.48438,0.171875 -0.16667,0.04168 -0.36979,0.07293 -0.60937,0.09375 l -0.42188,-0.46875 c 0,-0.541652 0.18229,-1.104152 0.54688,-1.6875 0.36458,-0.593734 0.84895,-1.1354 1.45312,-1.625 0.60416,-0.489566 1.28646,-0.890607 2.04688,-1.203125 0.77082,-0.322898 1.55728,-0.484356 2.35937,-0.484375 0.62499,1.9e-5 1.20833,0.08856 1.75,0.265625 0.55208,0.177102 1.02603,0.447935 1.42188,0.8125 0.40624,0.354184 0.72394,0.812517 0.95312,1.375 0.22916,0.552099 0.34374,1.208349 0.34375,1.96875 -1e-5,0.458347 -0.0677,0.927097 -0.20312,1.40625 -0.12502,0.468763 -0.33335,0.979179 -0.625,1.53125 -0.28126,0.541678 -0.65106,1.135427 -1.10938,1.78125 -0.44792,0.645842 -0.9948,1.375008 -1.64062,2.1875 -0.64584,0.80209 -1.39064,1.703131 -2.23438,2.703125 -0.84375,1.000004 -1.79688,2.125003 -2.85937,3.375 l 6.53125,0 c 0.28124,10e-7 0.51561,-0.09375 0.70312,-0.28125 0.19791,-0.197915 0.35416,-0.427081 0.46875,-0.6875 0.11457,-0.270831 0.20312,-0.546872 0.26563,-0.828125 0.0625,-0.281246 0.10415,-0.510413 0.125,-0.6875 0.0208,-0.187496 0.0312,-0.286454 0.0312,-0.296875 l 0.78125,0.1875 -0.23438,4.484375" />
    <path
       style="font-size:32px;font-style:normal;font-variant:normal;font-weight:normal;font-stretch:normal;fill:#000000;fill-opacity:1;stroke:none;font-family:Gentium;-inkscape-font-specification:Gentium"
       id="path6881"
       d="m 127.86086,-40.90368 c -2e-5,0.875005 -0.14064,1.703129 -0.42188,2.484375 -0.28126,0.781253 -0.69793,1.463544 -1.25,2.046875 -0.55209,0.583334 -1.23438,1.046875 -2.04687,1.390625 -0.81251,0.333333 -1.75522,0.5 -2.82813,0.5 -0.40626,0 -0.82292,-0.03646 -1.25,-0.109375 -0.42709,-0.07292 -0.86459,-0.197917 -1.3125,-0.375 -0.4375,-0.1875 -0.88542,-0.427083 -1.34375,-0.71875 -0.44792,-0.302082 -0.90625,-0.677082 -1.375,-1.125 l 0.53125,-1.046875 c 0.46875,0.354169 0.89583,0.645836 1.28125,0.875 0.39583,0.229169 0.76562,0.41146 1.10938,0.546875 0.35416,0.135418 0.70312,0.229168 1.04687,0.28125 0.34374,0.05208 0.71354,0.07813 1.10938,0.07813 0.6354,10e-7 1.21353,-0.09896 1.73437,-0.296875 0.52083,-0.197915 0.96874,-0.484373 1.34375,-0.859375 0.37499,-0.374997 0.66666,-0.828122 0.875,-1.359375 0.20832,-0.531246 0.31249,-1.130203 0.3125,-1.796875 -1e-5,-0.781244 -0.12501,-1.442701 -0.375,-1.984375 -0.23959,-0.552075 -0.55209,-0.999991 -0.9375,-1.34375 -0.38543,-0.343741 -0.81772,-0.588532 -1.29687,-0.734375 -0.46876,-0.15624 -0.9323,-0.234365 -1.39063,-0.234375 -0.14584,1e-5 -0.25521,1e-5 -0.32812,0 -0.0625,1e-5 -0.12501,0.0052 -0.1875,0.01563 -0.0521,0.01043 -0.1198,0.02084 -0.20313,0.03125 -0.0729,0.01043 -0.18751,0.03126 -0.34375,0.0625 l -0.21875,-0.9375 c 0.95833,-0.260406 1.72395,-0.562489 2.29688,-0.90625 0.5729,-0.343738 1.0104,-0.697904 1.3125,-1.0625 0.31249,-0.374987 0.51561,-0.744778 0.60937,-1.109375 0.10416,-0.374986 0.15624,-0.723944 0.15625,-1.046875 -1e-5,-0.354152 -0.0573,-0.718734 -0.17187,-1.09375 -0.10418,-0.374984 -0.27606,-0.713525 -0.51563,-1.015625 -0.22918,-0.302066 -0.52084,-0.546858 -0.875,-0.734375 -0.35417,-0.197899 -0.78126,-0.296857 -1.28125,-0.296875 -0.41667,1.8e-5 -0.79167,0.07293 -1.125,0.21875 -0.32292,0.135434 -0.59375,0.322934 -0.8125,0.5625 -0.21875,0.2396 -0.375,0.52085 -0.46875,0.84375 -0.0833,0.312516 -0.0937,0.645849 -0.0312,1 -0.35417,0.177098 -0.69271,0.317723 -1.01562,0.421875 -0.32292,0.09376 -0.70834,0.156265 -1.15625,0.1875 l -0.42188,-0.484375 c 0,-0.437484 0.16146,-0.901026 0.48438,-1.390625 0.32291,-0.499983 0.7552,-0.958316 1.29687,-1.375 0.54166,-0.416648 1.16666,-0.760398 1.875,-1.03125 0.71874,-0.281231 1.47395,-0.421856 2.26563,-0.421875 0.78124,1.9e-5 1.4479,0.125019 2,0.375 0.56248,0.250019 1.02082,0.583352 1.375,1 0.36457,0.406268 0.63019,0.869809 0.79687,1.390625 0.16665,0.510433 0.24999,1.031266 0.25,1.5625 -1e-5,0.395848 -0.0781,0.786473 -0.23437,1.171875 -0.14585,0.38543 -0.3646,0.755221 -0.65625,1.109375 -0.28127,0.354179 -0.62502,0.682304 -1.03125,0.984375 -0.40626,0.302095 -0.8646,0.56772 -1.375,0.796875 0.59374,0.07293 1.14582,0.255219 1.65625,0.546875 0.52082,0.28126 0.96873,0.645843 1.34375,1.09375 0.37498,0.437509 0.67186,0.942717 0.89062,1.515625 0.21874,0.562507 0.32811,1.161465 0.32813,1.796875" />
    <path
       style="font-size:32px;font-style:normal;font-variant:normal;font-weight:normal;font-stretch:normal;fill:#000000;fill-opacity:1;stroke:none;font-family:Gentium;-inkscape-font-specification:Gentium"
       id="path6890"
       d="m 120.93897,239.54529 c -0.0521,0.20834 -0.12501,0.44792 -0.21875,0.71875 -0.0833,0.26042 -0.16668,0.47917 -0.25,0.65625 l -10.34375,0 -0.39062,-0.375 c 0.0521,-0.20833 0.11979,-0.43749 0.20312,-0.6875 0.0937,-0.24999 0.1875,-0.47916 0.28125,-0.6875 l 10.34375,0 0.375,0.375 0,0" />
    <path
       style="font-size:32px;font-style:normal;font-variant:normal;font-weight:normal;font-stretch:normal;fill:#000000;fill-opacity:1;stroke:none;font-family:Gentium;-inkscape-font-specification:Gentium"
       id="path6892"
       d="m 124.56397,248.82654 0,-0.82813 c 0.8125,-0.0937 1.48958,-0.19791 2.03125,-0.3125 0.54166,-0.125 0.97396,-0.25 1.29688,-0.375 0.32291,-0.125 0.55207,-0.24479 0.6875,-0.35937 0.13541,-0.125 0.20312,-0.24479 0.20312,-0.35938 l 0,-12.45312 c 0,-0.41665 -0.0156,-0.73957 -0.0469,-0.96875 -0.0313,-0.22915 -0.10938,-0.41665 -0.23438,-0.5625 -0.0625,-0.0625 -0.1823,-0.11457 -0.35937,-0.15625 -0.17709,-0.0417 -0.42709,-0.0573 -0.75,-0.0469 -0.32292,0.0104 -0.72917,0.0469 -1.21875,0.10938 -0.48959,0.0625 -1.07813,0.16668 -1.76563,0.3125 l -0.32812,-0.79688 c 0.43749,-0.12498 0.95312,-0.29685 1.54687,-0.51562 0.60416,-0.21873 1.21354,-0.45311 1.82813,-0.70313 0.61457,-0.2604 1.19791,-0.5156 1.75,-0.76562 0.55207,-0.2604 0.99999,-0.48436 1.34375,-0.67188 l 0.57812,0.54688 0,16.67187 c -1e-5,0.10417 0.0573,0.21876 0.17188,0.34375 0.11457,0.11459 0.3177,0.23438 0.60937,0.35938 0.29166,0.125 0.68749,0.25 1.1875,0.375 0.51041,0.125 1.15624,0.23437 1.9375,0.32812 l 0,0.82813 -10.46875,0" />
    <path
       style="font-size:32px;font-style:normal;font-variant:normal;font-weight:normal;font-stretch:normal;fill:#000000;fill-opacity:1;stroke:none;font-family:Gentium;-inkscape-font-specification:Gentium"
       id="path6895"
       d="m 121.00147,310.33328 c -0.0521,0.20834 -0.12501,0.44793 -0.21875,0.71875 -0.0833,0.26043 -0.16668,0.47918 -0.25,0.65625 l -10.34375,0 -0.39062,-0.375 c 0.0521,-0.20832 0.11979,-0.43749 0.20312,-0.6875 0.0937,-0.24999 0.1875,-0.47915 0.28125,-0.6875 l 10.34375,0 0.375,0.375 0,0" />
    <path
       style="font-size:32px;font-style:normal;font-variant:normal;font-weight:normal;font-stretch:normal;fill:#000000;fill-opacity:1;stroke:none;font-family:Gentium;-inkscape-font-specification:Gentium"
       id="path6897"
       d="m 134.79835,319.61453 -10.84375,0 -0.45313,-1.15625 c 1.23958,-1.43749 2.31771,-2.70833 3.23438,-3.8125 0.92708,-1.10416 1.71874,-2.07812 2.375,-2.92187 0.65624,-0.85416 1.19791,-1.59895 1.625,-2.23438 0.42707,-0.64582 0.76561,-1.21874 1.01562,-1.71875 0.24999,-0.5104 0.42187,-0.96873 0.51563,-1.375 0.0937,-0.41665 0.14061,-0.8229 0.14062,-1.21875 -1e-5,-0.47915 -0.0573,-0.92186 -0.17187,-1.32812 -0.1146,-0.41665 -0.29689,-0.77603 -0.54688,-1.07813 -0.25001,-0.31248 -0.57813,-0.55206 -0.98437,-0.71875 -0.39584,-0.17706 -0.87501,-0.2656 -1.4375,-0.26562 -0.42709,2e-5 -0.81772,0.099 -1.17188,0.29687 -0.35417,0.19794 -0.66146,0.45314 -0.92187,0.76563 -0.26042,0.31251 -0.46355,0.66147 -0.60938,1.04687 -0.13542,0.38543 -0.20313,0.76043 -0.20312,1.125 -0.17709,0.0938 -0.33855,0.18231 -0.48438,0.26563 -0.13542,0.0833 -0.28125,0.16147 -0.4375,0.23437 -0.14583,0.0625 -0.30729,0.11981 -0.48437,0.17188 -0.16667,0.0417 -0.3698,0.0729 -0.60938,0.0937 l -0.42187,-0.46875 c 0,-0.54165 0.18229,-1.10415 0.54687,-1.6875 0.36458,-0.59374 0.84896,-1.1354 1.45313,-1.625 0.60416,-0.48957 1.28645,-0.89061 2.04687,-1.20313 0.77083,-0.3229 1.55729,-0.48435 2.35938,-0.48437 0.62499,2e-5 1.20832,0.0886 1.75,0.26562 0.55207,0.1771 1.02603,0.44794 1.42187,0.8125 0.40624,0.35419 0.72395,0.81252 0.95313,1.375 0.22915,0.5521 0.34373,1.20835 0.34375,1.96875 -2e-5,0.45835 -0.0677,0.9271 -0.20313,1.40625 -0.12501,0.46877 -0.33334,0.97918 -0.625,1.53125 -0.28126,0.54168 -0.65105,1.13543 -1.10937,1.78125 -0.44793,0.64585 -0.9948,1.37501 -1.64063,2.1875 -0.64584,0.80209 -1.39063,1.70313 -2.23437,2.70313 -0.84376,1 -1.79688,2.125 -2.85938,3.375 l 6.53125,0 c 0.28124,0 0.51562,-0.0937 0.70313,-0.28125 0.1979,-0.19792 0.35415,-0.42708 0.46875,-0.6875 0.11457,-0.27083 0.20311,-0.54687 0.26562,-0.82813 0.0625,-0.28124 0.10416,-0.51041 0.125,-0.6875 0.0208,-0.18749 0.0312,-0.28645 0.0312,-0.29687 l 0.78125,0.1875 -0.23437,4.48437" />
    <path
       style="font-size:32px;font-style:normal;font-variant:normal;font-weight:normal;font-stretch:normal;fill:#000000;fill-opacity:1;stroke:none;font-family:Gentium;-inkscape-font-specification:Gentium"
       id="path6900"
       d="m 121.17335,380.96506 c -0.0521,0.20834 -0.12501,0.44792 -0.21875,0.71875 -0.0833,0.26042 -0.16668,0.47917 -0.25,0.65625 l -10.34375,0 -0.39063,-0.375 c 0.0521,-0.20833 0.11979,-0.43749 0.20313,-0.6875 0.0937,-0.24999 0.1875,-0.47916 0.28125,-0.6875 l 10.34375,0 0.375,0.375 0,0" />
    <path
       style="font-size:32px;font-style:normal;font-variant:normal;font-weight:normal;font-stretch:normal;fill:#000000;fill-opacity:1;stroke:none;font-family:Gentium;-inkscape-font-specification:Gentium"
       id="path6902"
       d="m 135.03272,384.29318 c -1e-5,0.87501 -0.14064,1.70313 -0.42187,2.48438 -0.28126,0.78125 -0.69793,1.46354 -1.25,2.04687 -0.5521,0.58334 -1.23439,1.04688 -2.04688,1.39063 -0.81251,0.33333 -1.75521,0.5 -2.82812,0.5 -0.40626,0 -0.82292,-0.0365 -1.25,-0.10938 -0.42709,-0.0729 -0.86459,-0.19791 -1.3125,-0.375 -0.43751,-0.1875 -0.88542,-0.42708 -1.34375,-0.71875 -0.44792,-0.30208 -0.90625,-0.67708 -1.375,-1.125 l 0.53125,-1.04687 c 0.46875,0.35417 0.89583,0.64583 1.28125,0.875 0.39583,0.22917 0.76562,0.41146 1.10937,0.54687 0.35416,0.13542 0.70312,0.22917 1.04688,0.28125 0.34374,0.0521 0.71353,0.0781 1.10937,0.0781 0.63541,0 1.21354,-0.099 1.73438,-0.29688 0.52082,-0.19791 0.96874,-0.48437 1.34375,-0.85937 0.37499,-0.375 0.66665,-0.82812 0.875,-1.35938 0.20832,-0.53124 0.31249,-1.1302 0.3125,-1.79687 -1e-5,-0.78125 -0.12501,-1.4427 -0.375,-1.98438 -0.2396,-0.55207 -0.5521,-0.99999 -0.9375,-1.34375 -0.38543,-0.34374 -0.81772,-0.58853 -1.29688,-0.73437 -0.46875,-0.15624 -0.9323,-0.23437 -1.39062,-0.23438 -0.14584,10e-6 -0.25522,10e-6 -0.32813,0 -0.0625,10e-6 -0.125,0.005 -0.1875,0.0156 -0.0521,0.0104 -0.11979,0.0208 -0.20312,0.0312 -0.0729,0.0104 -0.18751,0.0313 -0.34375,0.0625 l -0.21875,-0.9375 c 0.95832,-0.26041 1.72395,-0.56249 2.29687,-0.90625 0.57291,-0.34374 1.01041,-0.69791 1.3125,-1.0625 0.31249,-0.37499 0.51562,-0.74478 0.60938,-1.10938 0.10415,-0.37498 0.15624,-0.72394 0.15625,-1.04687 -1e-5,-0.35415 -0.0573,-0.71874 -0.17188,-1.09375 -0.10417,-0.37499 -0.27605,-0.71353 -0.51562,-1.01563 -0.22918,-0.30206 -0.52084,-0.54686 -0.875,-0.73437 -0.35418,-0.1979 -0.78126,-0.29686 -1.28125,-0.29688 -0.41668,2e-5 -0.79168,0.0729 -1.125,0.21875 -0.32292,0.13544 -0.59376,0.32294 -0.8125,0.5625 -0.21876,0.2396 -0.37501,0.52085 -0.46875,0.84375 -0.0833,0.31252 -0.0938,0.64585 -0.0312,1 -0.35417,0.1771 -0.69271,0.31773 -1.01563,0.42188 -0.32292,0.0938 -0.70833,0.15626 -1.15625,0.1875 l -0.42187,-0.48438 c 0,-0.43748 0.16145,-0.90102 0.48437,-1.39062 0.32292,-0.49999 0.75521,-0.95832 1.29688,-1.375 0.54166,-0.41665 1.16666,-0.7604 1.875,-1.03125 0.71874,-0.28123 1.47395,-0.42186 2.26562,-0.42188 0.78124,2e-5 1.44791,0.12502 2,0.375 0.56249,0.25002 1.02083,0.58335 1.375,1 0.36457,0.40627 0.6302,0.86981 0.79688,1.39063 0.16665,0.51043 0.24999,1.03126 0.25,1.5625 -10e-6,0.39585 -0.0781,0.78647 -0.23438,1.17187 -0.14584,0.38543 -0.36459,0.75522 -0.65625,1.10938 -0.28126,0.35418 -0.62501,0.6823 -1.03125,0.98437 -0.40626,0.3021 -0.86459,0.56772 -1.375,0.79688 0.59374,0.0729 1.14583,0.25522 1.65625,0.54687 0.52082,0.28126 0.96874,0.64585 1.34375,1.09375 0.37499,0.43751 0.67187,0.94272 0.89063,1.51563 0.21873,0.5625 0.32811,1.16146 0.32812,1.79687" />
    <path
       sodipodi:type="arc"
       style="fill:#4682b4;fill-opacity:1;stroke:none"
       id="path10824-3"
       sodipodi:cx="70.866142"
       sodipodi:cy="141.73227"
       sodipodi:rx="3.5433071"
       sodipodi:ry="3.5433071"
       d="m 74.409449,141.73227 a 3.5433071,3.5433071 0 1 1 -7.086614,0 3.5433071,3.5433071 0 1 1 7.086614,0 z"
       transform="matrix(0,-2,2,0,-267.8741,451.90307)" />
    <path
       style="fill:none;stroke:#000000;stroke-width:5.31500006;stroke-linecap:round;stroke-linejoin:round;stroke-miterlimit:4;stroke-opacity:1;stroke-dasharray:none;marker-start:none;marker-mid:none;marker-end:url(#Arrow1Mend)"
       d="m -210.47648,168.2338 595.27559,0"
       id="path2623"
       sodipodi:nodetypes="cc" />
    <path
       style="fill:none;stroke:#000000;stroke-width:5.31496048;stroke-linecap:round;stroke-linejoin:round;stroke-miterlimit:4;stroke-opacity:1;stroke-dasharray:none;marker-start:none;marker-end:url(#Arrow1Mend)"
       d="m 87.161305,465.8716 0,-595.27558"
       id="path2625"
       sodipodi:nodetypes="cc" />
    <path
       sodipodi:type="arc"
       style="fill:#fd7118;fill-opacity:1;stroke:none"
       id="path9937"
       sodipodi:cx="177.16536"
       sodipodi:cy="177.16533"
       sodipodi:rx="3.5433071"
       sodipodi:ry="3.5433071"
       d="m 180.70867,177.16533 a 3.5433071,3.5433071 0 1 1 -7.08662,0 3.5433071,3.5433071 0 1 1 7.08662,0 z"
       transform="matrix(2,0,0,2,-267.16939,-186.09686)" />
    <path
       sodipodi:type="arc"
       style="fill:#ff2a2a;fill-opacity:1;stroke:none"
       id="path10824"
       sodipodi:cx="70.866142"
       sodipodi:cy="141.73227"
       sodipodi:rx="3.5433071"
       sodipodi:ry="3.5433071"
       d="m 74.409449,141.73227 a 3.5433071,3.5433071 0 1 1 -7.086614,0 3.5433071,3.5433071 0 1 1 7.086614,0 z"
       transform="matrix(2,0,0,2,-267.16939,-186.09686)" />
    <path
       sodipodi:type="arc"
       style="fill:#3cb371;fill-opacity:1;stroke:none"
       id="path13485"
       sodipodi:cx="248.03149"
       sodipodi:cy="88.582657"
       sodipodi:rx="3.5433071"
       sodipodi:ry="3.5433071"
       d="m 251.5748,88.582657 a 3.5433071,3.5433071 0 1 1 -7.08661,0 3.5433071,3.5433071 0 1 1 7.08661,0 z"
       transform="matrix(2,0,0,2,-267.16939,-221.52994)" />
    <path
       id="path6920"
       style="font-size:40px;font-style:normal;font-variant:normal;font-weight:normal;font-stretch:normal;fill:#fd7118;fill-opacity:1;stroke:none;font-family:Gentium;-inkscape-font-specification:Gentium"
       d="m 110.53376,151.79497 c -1.47136,-0.67709 -2.76694,-1.62761 -3.88672,-2.85156 -1.10678,-1.21094 -2.03776,-2.61719 -2.79297,-4.21875 -0.74219,-1.60156 -1.30208,-3.35938 -1.67968,-5.27344 -0.37761,-1.91406 -0.56641,-3.90624 -0.56641,-5.97656 0,-2.13541 0.20833,-4.19921 0.625,-6.19141 0.42968,-1.99217 1.03515,-3.8281 1.81641,-5.50781 0.78124,-1.67967 1.71874,-3.15102 2.8125,-4.41407 1.10676,-1.27601 2.33071,-2.26559 3.67187,-2.96875 l 0.625,0.87891 c -0.84637,0.70315 -1.64715,1.62763 -2.40234,2.77344 -0.75522,1.14586 -1.41928,2.47398 -1.99219,3.98437 -0.5599,1.51044 -1.00912,3.18362 -1.34766,5.01953 -0.32552,1.83596 -0.48828,3.79559 -0.48828,5.87891 0,1.90105 0.13671,3.75652 0.41016,5.56641 0.27343,1.79688 0.67707,3.48307 1.21094,5.05859 0.53384,1.5625 1.18488,2.97526 1.95312,4.23828 0.76822,1.26302 1.65363,2.30468 2.65625,3.125 l -0.625,0.87891" />
    <path
       id="path6922"
       style="font-size:40px;font-style:normal;font-variant:normal;font-weight:normal;font-stretch:normal;fill:#fd7118;fill-opacity:1;stroke:none;font-family:Gentium;-inkscape-font-specification:Gentium"
       d="m 125.98298,134.60747 c -2e-5,-1.78384 -0.14324,-3.35285 -0.42969,-4.70703 -0.27345,-1.35415 -0.64454,-2.48045 -1.11328,-3.37891 -0.46876,-0.91144 -1.00913,-1.59503 -1.62109,-2.05078 -0.61199,-0.46873 -1.25001,-0.7031 -1.91407,-0.70313 -0.66407,3e-5 -1.26302,0.18232 -1.79687,0.54688 -0.53386,0.35158 -0.98959,0.90497 -1.36719,1.66016 -0.36459,0.7422 -0.65105,1.69923 -0.85937,2.87109 -0.19532,1.17189 -0.29298,2.57163 -0.29297,4.19922 -10e-6,1.78386 0.1302,3.35938 0.39062,4.72656 0.26041,1.36719 0.61198,2.51303 1.05469,3.4375 0.45572,0.91146 0.98958,1.60157 1.60156,2.07031 0.62499,0.46875 1.30208,0.70313 2.03125,0.70313 0.67708,0 1.28254,-0.17578 1.81641,-0.52735 0.53384,-0.36458 0.98306,-0.92447 1.34766,-1.67968 0.37759,-0.76823 0.66404,-1.73828 0.85937,-2.91016 0.1953,-1.18489 0.29295,-2.60416 0.29297,-4.25781 m 3.20312,-0.72266 c -1e-5,1.6797 -0.20184,3.26824 -0.60546,4.76563 -0.39065,1.4974 -0.95054,2.80599 -1.67969,3.92578 -0.71616,1.11979 -1.58856,2.01172 -2.61719,2.67578 -1.01564,0.65104 -2.14194,0.97656 -3.37891,0.97656 -1.23698,0 -2.32422,-0.32552 -3.26171,-0.97656 -0.93751,-0.66406 -1.72527,-1.55599 -2.36329,-2.67578 -0.625,-1.11979 -1.10026,-2.42838 -1.42578,-3.92578 -0.3125,-1.49739 -0.46875,-3.08593 -0.46875,-4.76563 0,-1.67967 0.20182,-3.26821 0.60547,-4.76562 0.40364,-1.49738 0.96354,-2.80597 1.67969,-3.92578 0.72916,-1.1328 1.60156,-2.02472 2.61719,-2.67579 1.01561,-0.66403 2.14191,-0.99607 3.3789,-0.99609 1.23697,2e-5 2.32421,0.32554 3.26172,0.97656 0.93749,0.65107 1.71874,1.53648 2.34375,2.65625 0.63801,1.11981 1.11327,2.43492 1.42578,3.94532 0.32551,1.49741 0.48827,3.09246 0.48828,4.78515" />
    <path
       id="path6924"
       style="font-size:40px;font-style:normal;font-variant:normal;font-weight:normal;font-stretch:normal;fill:#fd7118;fill-opacity:1;stroke:none;font-family:Gentium;-inkscape-font-specification:Gentium"
       d="m 138.28767,144.27544 c -1e-5,0.50781 -0.10418,1.08073 -0.3125,1.71875 -0.19532,0.63802 -0.48829,1.28906 -0.87891,1.95312 -0.37761,0.66406 -0.83985,1.30859 -1.38672,1.9336 -0.53386,0.63801 -1.13933,1.21093 -1.8164,1.71875 l -0.87891,-0.6836 c 0.36458,-0.41667 0.67057,-0.82032 0.91797,-1.21094 0.26041,-0.39062 0.46874,-0.79427 0.625,-1.21093 0.15624,-0.41667 0.26692,-0.85938 0.33203,-1.32813 0.0781,-0.45573 0.11718,-0.96354 0.11719,-1.52344 -1e-5,-0.57291 -0.1823,-1.02864 -0.54688,-1.36718 -0.35156,-0.33854 -0.94401,-0.48177 -1.77734,-0.42969 l -0.3125,-0.91797 c 0.11718,-0.15625 0.36458,-0.33203 0.74219,-0.52734 0.3776,-0.20833 0.78775,-0.40365 1.23046,-0.58594 0.45573,-0.19531 0.89844,-0.35156 1.32813,-0.46875 0.4427,-0.13021 0.78124,-0.1888 1.01562,-0.17578 0.625,0.29948 1.04817,0.70964 1.26954,1.23047 0.22134,0.50781 0.33202,1.13281 0.33203,1.875" />
    <path
       id="path6926"
       style="font-size:40px;font-style:normal;font-variant:normal;font-weight:normal;font-stretch:normal;fill:#fd7118;fill-opacity:1;stroke:none;font-family:Gentium;-inkscape-font-specification:Gentium"
       d="m 153.8736,134.60747 c -1e-5,-1.78384 -0.14324,-3.35285 -0.42968,-4.70703 -0.27345,-1.35415 -0.64455,-2.48045 -1.11328,-3.37891 -0.46877,-0.91144 -1.00913,-1.59503 -1.6211,-2.05078 -0.61199,-0.46873 -1.25001,-0.7031 -1.91406,-0.70313 -0.66407,3e-5 -1.26303,0.18232 -1.79688,0.54688 -0.53386,0.35158 -0.98959,0.90497 -1.36718,1.66016 -0.36459,0.7422 -0.65105,1.69923 -0.85938,2.87109 -0.19532,1.17189 -0.29297,2.57163 -0.29297,4.19922 0,1.78386 0.13021,3.35938 0.39063,4.72656 0.26041,1.36719 0.61197,2.51303 1.05469,3.4375 0.45572,0.91146 0.98957,1.60157 1.60156,2.07031 0.62499,0.46875 1.30207,0.70313 2.03125,0.70313 0.67707,0 1.28254,-0.17578 1.8164,-0.52735 0.53385,-0.36458 0.98306,-0.92447 1.34766,-1.67968 0.37759,-0.76823 0.66405,-1.73828 0.85938,-2.91016 0.19529,-1.18489 0.29295,-2.60416 0.29296,-4.25781 m 3.20313,-0.72266 c -2e-5,1.6797 -0.20184,3.26824 -0.60547,4.76563 -0.39064,1.4974 -0.95054,2.80599 -1.67969,3.92578 -0.71616,1.11979 -1.58855,2.01172 -2.61718,2.67578 -1.01564,0.65104 -2.14194,0.97656 -3.37891,0.97656 -1.23699,0 -2.32423,-0.32552 -3.26172,-0.97656 -0.9375,-0.66406 -1.72526,-1.55599 -2.36328,-2.67578 -0.625,-1.11979 -1.10026,-2.42838 -1.42578,-3.92578 -0.3125,-1.49739 -0.46875,-3.08593 -0.46875,-4.76563 0,-1.67967 0.20182,-3.26821 0.60547,-4.76562 0.40364,-1.49738 0.96353,-2.80597 1.67968,-3.92578 0.72917,-1.1328 1.60156,-2.02472 2.61719,-2.67579 1.01562,-0.66403 2.14192,-0.99607 3.37891,-0.99609 1.23697,2e-5 2.3242,0.32554 3.26172,0.97656 0.93748,0.65107 1.71873,1.53648 2.34375,2.65625 0.638,1.11981 1.11326,2.43492 1.42578,3.94532 0.3255,1.49741 0.48826,3.09246 0.48828,4.78515" />
    <path
       id="path6928"
       style="font-size:40px;font-style:normal;font-variant:normal;font-weight:normal;font-stretch:normal;fill:#fd7118;fill-opacity:1;stroke:none;font-family:Gentium;-inkscape-font-specification:Gentium"
       d="m 168.89314,132.67387 c -2e-5,2.14845 -0.21486,4.22527 -0.64454,6.23047 -0.42969,1.99219 -1.03516,3.82813 -1.8164,5.50782 -0.78126,1.67968 -1.72527,3.15103 -2.83203,4.41406 -1.09376,1.27603 -2.3112,2.26562 -3.65235,2.96875 l -0.60547,-0.87891 c 0.83334,-0.70313 1.62761,-1.62761 2.38282,-2.77344 0.7552,-1.14583 1.41926,-2.47395 1.99218,-3.98437 0.57291,-1.51041 1.02213,-3.18359 1.34766,-5.01953 0.33853,-1.83593 0.50781,-3.80208 0.50781,-5.89844 0,-1.88801 -0.13672,-3.73045 -0.41015,-5.52734 -0.27345,-1.80988 -0.67709,-3.50259 -1.21094,-5.07813 -0.52084,-1.57549 -1.17188,-2.99476 -1.95313,-4.25781 -0.76823,-1.26299 -1.65364,-2.29815 -2.65625,-3.10547 l 0.60547,-0.87891 c 1.47135,0.6641 2.76042,1.60811 3.86719,2.83204 1.11979,1.21096 2.05728,2.61721 2.8125,4.21875 0.7552,1.60158 1.32161,3.35939 1.69922,5.27343 0.37759,1.90106 0.56639,3.88674 0.56641,5.95703" />
    <path
       style="font-size:40px;font-style:normal;font-variant:normal;font-weight:normal;font-stretch:normal;fill:#3cb371;fill-opacity:1;stroke:none;font-family:Gentium;-inkscape-font-specification:Gentium"
       id="path6931"
       d="m 240.28493,-55.802468 c -1.47137,-0.677089 -2.76694,-1.627609 -3.88672,-2.851563 -1.10678,-1.210939 -2.03777,-2.617188 -2.79297,-4.21875 -0.74219,-1.60156 -1.30209,-3.359371 -1.67969,-5.273437 -0.3776,-1.914055 -0.56641,-3.90624 -0.5664,-5.976563 -1e-5,-2.135402 0.20833,-4.199202 0.625,-6.191406 0.42968,-1.992167 1.03515,-3.828103 1.8164,-5.507813 0.78125,-1.679662 1.71875,-3.151014 2.8125,-4.414062 1.10676,-1.276012 2.33072,-2.265595 3.67188,-2.96875 l 0.625,0.878906 c -0.84637,0.703155 -1.64715,1.627633 -2.40235,2.773438 -0.75521,1.145859 -1.41928,2.473983 -1.99218,3.984375 -0.55991,1.510438 -1.00912,3.183614 -1.34766,5.019531 -0.32553,1.835954 -0.48829,3.795588 -0.48828,5.878906 -1e-5,1.901053 0.13671,3.75652 0.41015,5.566406 0.27344,1.796881 0.67708,3.483077 1.21094,5.058594 0.53385,1.562501 1.18489,2.97526 1.95313,4.238281 0.76822,1.263018 1.65363,2.304683 2.65625,3.125 l -0.625,0.878907" />
    <path
       style="font-size:40px;font-style:normal;font-variant:normal;font-weight:normal;font-stretch:normal;fill:#3cb371;fill-opacity:1;stroke:none;font-family:Gentium;-inkscape-font-specification:Gentium"
       id="path6933"
       d="m 257.68727,-61.954812 -13.55469,0 -0.5664,-1.445313 c 1.54947,-1.796871 2.89713,-3.385411 4.04297,-4.765625 1.15884,-1.3802 2.14843,-2.597647 2.96875,-3.652343 0.8203,-1.067698 1.49738,-1.998686 2.03125,-2.792969 0.53384,-0.807278 0.95702,-1.523423 1.26953,-2.148438 0.31248,-0.638005 0.52733,-1.210921 0.64453,-1.71875 0.11717,-0.520816 0.17577,-1.028628 0.17578,-1.523437 -1e-5,-0.59894 -0.0716,-1.152325 -0.21484,-1.660156 -0.14325,-0.520813 -0.37111,-0.970032 -0.6836,-1.347657 -0.31251,-0.390603 -0.72267,-0.690082 -1.23047,-0.898437 -0.4948,-0.221332 -1.09376,-0.332009 -1.79687,-0.332031 -0.53386,2.2e-5 -1.02214,0.12372 -1.46485,0.371093 -0.44271,0.247418 -0.82682,0.566428 -1.15234,0.957032 -0.32553,0.390645 -0.57943,0.826843 -0.76172,1.308593 -0.16927,0.48179 -0.25391,0.95054 -0.2539,1.40625 -0.22136,0.117206 -0.42319,0.227883 -0.60547,0.332032 -0.16928,0.104184 -0.35157,0.20184 -0.54688,0.292968 -0.18229,0.07814 -0.38412,0.149757 -0.60547,0.214844 -0.20833,0.0521 -0.46224,0.09116 -0.76172,0.117188 l -0.52734,-0.585938 c 0,-0.677065 0.22786,-1.380189 0.68359,-2.109375 0.45573,-0.742167 1.0612,-1.419249 1.81641,-2.03125 0.7552,-0.611956 1.60807,-1.113258 2.55859,-1.503906 0.96354,-0.403622 1.94661,-0.605445 2.94922,-0.605469 0.78124,2.4e-5 1.51041,0.110701 2.1875,0.332031 0.69009,0.221378 1.28254,0.559919 1.77735,1.015625 0.50779,0.442731 0.90493,1.015647 1.1914,1.71875 0.28645,0.690125 0.42968,1.510437 0.42969,2.460938 -1e-5,0.572935 -0.0847,1.158872 -0.25391,1.757812 -0.15626,0.585954 -0.41668,1.223974 -0.78125,1.914063 -0.35157,0.677097 -0.81381,1.419284 -1.38671,2.226562 -0.55991,0.807304 -1.24351,1.718761 -2.05079,2.734375 -0.8073,1.002614 -1.73829,2.128914 -2.79296,3.378907 -1.0547,1.250005 -2.2461,2.656254 -3.57422,4.21875 l 8.16406,0 c 0.35155,2e-6 0.64452,-0.117185 0.87891,-0.351563 0.24738,-0.247393 0.44269,-0.533851 0.58593,-0.859375 0.14322,-0.338538 0.25389,-0.683589 0.33203,-1.035156 0.0781,-0.351558 0.1302,-0.638016 0.15625,-0.859375 0.026,-0.234369 0.0391,-0.358067 0.0391,-0.371094 l 0.97656,0.234375 -0.29297,5.605469" />
    <path
       style="font-size:40px;font-style:normal;font-variant:normal;font-weight:normal;font-stretch:normal;fill:#3cb371;fill-opacity:1;stroke:none;font-family:Gentium;-inkscape-font-specification:Gentium"
       id="path6935"
       d="m 268.03883,-63.322 c 0,0.507814 -0.10417,1.08073 -0.3125,1.71875 -0.19532,0.63802 -0.48828,1.289061 -0.8789,1.953125 -0.37761,0.66406 -0.83985,1.308591 -1.38672,1.933594 -0.53386,0.638016 -1.13933,1.210932 -1.81641,1.71875 l -0.8789,-0.683594 c 0.36458,-0.416671 0.67057,-0.820317 0.91796,-1.210937 0.26042,-0.390629 0.46875,-0.794274 0.625,-1.210938 0.15625,-0.416669 0.26693,-0.859377 0.33204,-1.328125 0.0781,-0.45573 0.11718,-0.963542 0.11718,-1.523437 0,-0.572916 -0.18229,-1.028645 -0.54687,-1.367188 -0.35157,-0.33854 -0.94401,-0.481769 -1.77735,-0.429687 l -0.3125,-0.917969 c 0.11719,-0.156247 0.36459,-0.332028 0.74219,-0.527344 0.3776,-0.208329 0.78776,-0.403642 1.23047,-0.585937 0.45573,-0.195309 0.89843,-0.351558 1.32813,-0.46875 0.4427,-0.130204 0.78124,-0.188798 1.01562,-0.175781 0.62499,0.299483 1.04817,0.709639 1.26953,1.230468 0.22135,0.507816 0.33203,1.132815 0.33203,1.875" />
    <path
       style="font-size:40px;font-style:normal;font-variant:normal;font-weight:normal;font-stretch:normal;fill:#3cb371;fill-opacity:1;stroke:none;font-family:Gentium;-inkscape-font-specification:Gentium"
       id="path6937"
       d="m 285.65602,-69.396218 c -1e-5,1.093756 -0.1758,2.128911 -0.52734,3.105468 -0.35158,0.976566 -0.87241,1.82943 -1.5625,2.558594 -0.69012,0.729168 -1.54298,1.308594 -2.5586,1.738281 -1.01563,0.416667 -2.19402,0.625 -3.53515,0.625 -0.50782,0 -1.02866,-0.04557 -1.5625,-0.136718 -0.53386,-0.09115 -1.08074,-0.247396 -1.64063,-0.46875 -0.54688,-0.234375 -1.10677,-0.533854 -1.67969,-0.898438 -0.55989,-0.377603 -1.13281,-0.846352 -1.71875,-1.40625 l 0.66407,-1.308594 c 0.58593,0.442712 1.11979,0.807295 1.60156,1.09375 0.49479,0.286461 0.95703,0.514325 1.38672,0.683594 0.4427,0.169273 0.8789,0.28646 1.30859,0.351563 0.42968,0.06511 0.89192,0.09766 1.38672,0.09766 0.79426,10e-7 1.51692,-0.123696 2.16797,-0.371094 0.65103,-0.247394 1.21093,-0.605466 1.67969,-1.074219 0.46874,-0.468746 0.83332,-1.035152 1.09375,-1.699218 0.2604,-0.664058 0.39061,-1.412755 0.39062,-2.246094 -10e-6,-0.976555 -0.15626,-1.803377 -0.46875,-2.480469 -0.29949,-0.690094 -0.69011,-1.249989 -1.17187,-1.679687 -0.48178,-0.429676 -1.02215,-0.735666 -1.6211,-0.917969 -0.58594,-0.195301 -1.16537,-0.292957 -1.73828,-0.292969 -0.1823,1.2e-5 -0.31902,1.2e-5 -0.41015,0 -0.0781,1.2e-5 -0.15626,0.0065 -0.23438,0.01953 -0.0651,0.01303 -0.14975,0.02605 -0.25391,0.03906 -0.0911,0.01303 -0.23438,0.03907 -0.42968,0.07813 l -0.27344,-1.171875 c 1.19791,-0.325507 2.15494,-0.703111 2.87109,-1.132813 0.71614,-0.429672 1.26301,-0.87238 1.64063,-1.328125 0.39061,-0.468733 0.64452,-0.930973 0.76172,-1.386718 0.13019,-0.468733 0.1953,-0.90493 0.19531,-1.308594 -10e-6,-0.44269 -0.0716,-0.898418 -0.21484,-1.367188 -0.13022,-0.468729 -0.34507,-0.891906 -0.64454,-1.269531 -0.28646,-0.377583 -0.65105,-0.683572 -1.09375,-0.917969 -0.44271,-0.247373 -0.97657,-0.371071 -1.60156,-0.371093 -0.52084,2.2e-5 -0.98959,0.09117 -1.40625,0.273437 -0.40365,0.169293 -0.74219,0.403668 -1.01562,0.703125 -0.27345,0.2995 -0.46876,0.651062 -0.58594,1.054688 -0.10417,0.390645 -0.11719,0.807311 -0.0391,1.25 -0.44272,0.221373 -0.86589,0.397154 -1.26953,0.527343 -0.40365,0.117206 -0.88542,0.195331 -1.44532,0.234375 l -0.52734,-0.605468 c 0,-0.546856 0.20182,-1.126282 0.60547,-1.738282 0.40364,-0.624978 0.94401,-1.197894 1.62109,-1.71875 0.67708,-0.52081 1.45833,-0.950497 2.34375,-1.289062 0.89843,-0.351539 1.84244,-0.52732 2.83203,-0.527344 0.97656,2.4e-5 1.80989,0.156274 2.5,0.46875 0.70312,0.312523 1.27603,0.72919 1.71875,1.25 0.45572,0.507835 0.78775,1.087261 0.9961,1.738281 0.20832,0.638041 0.31248,1.289082 0.3125,1.953125 -2e-5,0.49481 -0.0977,0.983091 -0.29297,1.464844 -0.18231,0.481788 -0.45574,0.944027 -0.82031,1.386719 -0.35158,0.442724 -0.78127,0.852879 -1.28907,1.230469 -0.50782,0.377618 -1.08074,0.709649 -1.71875,0.996093 0.74218,0.09116 1.43228,0.319024 2.07032,0.683594 0.65102,0.351575 1.21092,0.807304 1.67968,1.367188 0.46874,0.546886 0.83983,1.178395 1.11328,1.894531 0.27343,0.703134 0.41015,1.451831 0.41016,2.246094" />
    <path
       style="font-size:40px;font-style:normal;font-variant:normal;font-weight:normal;font-stretch:normal;fill:#3cb371;fill-opacity:1;stroke:none;font-family:Gentium;-inkscape-font-specification:Gentium"
       id="path6939"
       d="m 298.6443,-74.923562 c -10e-6,2.148448 -0.21485,4.225269 -0.64453,6.230469 -0.4297,1.992192 -1.03516,3.828128 -1.81641,5.507812 -0.78125,1.679687 -1.72526,3.15104 -2.83203,4.414063 -1.09375,1.276037 -2.3112,2.265619 -3.65234,2.96875 l -0.60547,-0.878907 c 0.83333,-0.703129 1.6276,-1.627607 2.38281,-2.773437 0.75521,-1.145835 1.41927,-2.473958 1.99219,-3.984375 0.57291,-1.510414 1.02213,-3.183589 1.34766,-5.019531 0.33853,-1.83593 0.5078,-3.802073 0.50781,-5.898438 -10e-6,-1.888006 -0.13673,-3.730452 -0.41016,-5.527344 -0.27344,-1.809876 -0.67709,-3.502582 -1.21093,-5.078125 -0.52084,-1.575496 -1.17188,-2.994765 -1.95313,-4.257812 -0.76823,-1.262992 -1.65365,-2.298148 -2.65625,-3.105469 l 0.60547,-0.878906 c 1.47135,0.664093 2.76041,1.608102 3.86719,2.832031 1.11978,1.210965 2.05728,2.617213 2.8125,4.21875 0.7552,1.601585 1.3216,3.359396 1.69922,5.273438 0.37759,1.901058 0.56639,3.886733 0.5664,5.957031" />
    <path
       style="font-size:40px;font-style:normal;font-variant:normal;font-weight:normal;font-stretch:normal;fill:#ff2a2a;fill-opacity:1;stroke:none;font-family:Gentium;-inkscape-font-specification:Gentium"
       id="path6942"
       d="m -112.04236,78.701598 c -1.47136,-0.677089 -2.76693,-1.627609 -3.88672,-2.851562 -1.10677,-1.21094 -2.03776,-2.617189 -2.79297,-4.21875 -0.74219,-1.60156 -1.30208,-3.359371 -1.67968,-5.273438 -0.37761,-1.914054 -0.56641,-3.90624 -0.56641,-5.976562 0,-2.135403 0.20833,-4.199203 0.625,-6.191407 0.42968,-1.992167 1.03515,-3.828102 1.81641,-5.507812 0.78124,-1.679662 1.71874,-3.151015 2.8125,-4.414063 1.10676,-1.276012 2.33072,-2.265594 3.67187,-2.96875 l 0.625,0.878907 c -0.84636,0.703154 -1.64714,1.627633 -2.40234,2.773437 -0.75522,1.14586 -1.41928,2.473984 -1.99219,3.984375 -0.5599,1.510439 -1.00912,3.183614 -1.34766,5.019531 -0.32552,1.835955 -0.48828,3.795588 -0.48828,5.878907 0,1.901052 0.13672,3.756519 0.41016,5.566406 0.27343,1.79688 0.67708,3.483076 1.21094,5.058594 0.53384,1.5625 1.18488,2.975259 1.95312,4.238281 0.76822,1.263017 1.65364,2.304683 2.65625,3.125 l -0.625,0.878906" />
    <path
       style="font-size:40px;font-style:normal;font-variant:normal;font-weight:normal;font-stretch:normal;fill:#ff2a2a;fill-opacity:1;stroke:none;font-family:Gentium;-inkscape-font-specification:Gentium"
       id="path6944"
       d="m -95.479859,60.947692 c -0.06512,0.260428 -0.156265,0.559907 -0.273438,0.898437 -0.104181,0.325532 -0.208348,0.598969 -0.3125,0.820313 l -12.929683,0 -0.48828,-0.46875 c 0.0651,-0.260406 0.14973,-0.546864 0.2539,-0.859375 0.11719,-0.312489 0.23437,-0.598947 0.35156,-0.859375 l 12.929691,0 0.46875,0.46875 0,0" />
    <path
       style="font-size:40px;font-style:normal;font-variant:normal;font-weight:normal;font-stretch:normal;fill:#ff2a2a;fill-opacity:1;stroke:none;font-family:Gentium;-inkscape-font-specification:Gentium"
       id="path6946"
       d="m -78.155641,65.107848 c -1.6e-5,1.093756 -0.175797,2.128912 -0.527343,3.105469 -0.351578,0.976566 -0.872411,1.829429 -1.5625,2.558594 -0.690118,0.729167 -1.542982,1.308594 -2.558594,1.738281 -1.015636,0.416666 -2.19402,0.624999 -3.535156,0.625 -0.50782,-10e-7 -1.028653,-0.04557 -1.5625,-0.136719 -0.53386,-0.09115 -1.080735,-0.247396 -1.640625,-0.46875 -0.54688,-0.234375 -1.106775,-0.533853 -1.679688,-0.898437 -0.559898,-0.377603 -1.132814,-0.846353 -1.71875,-1.40625 l 0.664063,-1.308594 c 0.585935,0.442711 1.119788,0.807294 1.601562,1.09375 0.494788,0.28646 0.957027,0.514325 1.386719,0.683594 0.442703,0.169272 0.8789,0.28646 1.308594,0.351562 0.42968,0.06511 0.89192,0.09766 1.386718,0.09766 0.794263,2e-6 1.516918,-0.123696 2.167969,-0.371093 0.651031,-0.247394 1.210927,-0.605467 1.679688,-1.074219 0.468738,-0.468747 0.833321,-1.035152 1.09375,-1.699219 0.260403,-0.664057 0.390612,-1.412754 0.390625,-2.246094 -1.3e-5,-0.976554 -0.156263,-1.803376 -0.46875,-2.480468 -0.299492,-0.690095 -0.690116,-1.24999 -1.171875,-1.679688 -0.481782,-0.429676 -1.022146,-0.735665 -1.621094,-0.917969 -0.585947,-0.1953 -1.165373,-0.292956 -1.738281,-0.292968 -0.1823,1.2e-5 -0.319019,1.2e-5 -0.410157,0 -0.07813,1.2e-5 -0.156257,0.0065 -0.234375,0.01953 -0.06511,0.01303 -0.149746,0.02605 -0.253906,0.03906 -0.09115,0.01303 -0.234382,0.03907 -0.429687,0.07813 l -0.273438,-1.171875 c 1.197909,-0.325507 2.154939,-0.703111 2.871094,-1.132812 0.716136,-0.429673 1.26301,-0.872381 1.640625,-1.328125 0.390614,-0.468734 0.64452,-0.930973 0.761719,-1.386719 0.130196,-0.468732 0.1953,-0.90493 0.195312,-1.308594 -1.2e-5,-0.442689 -0.07163,-0.898418 -0.214844,-1.367187 -0.13022,-0.46873 -0.345063,-0.891907 -0.644531,-1.269531 -0.286469,-0.377583 -0.651052,-0.683572 -1.09375,-0.917969 -0.442718,-0.247374 -0.976571,-0.371072 -1.601562,-0.371094 -0.520842,2.2e-5 -0.989591,0.09117 -1.40625,0.273438 -0.403653,0.169292 -0.742194,0.403667 -1.015625,0.703125 -0.273444,0.2995 -0.468756,0.651062 -0.585938,1.054687 -0.104172,0.390645 -0.117193,0.807311 -0.03906,1.25 -0.442714,0.221373 -0.86589,0.397154 -1.269532,0.527344 -0.403649,0.117206 -0.885419,0.195331 -1.445312,0.234375 l -0.527344,-0.605469 c -2e-6,-0.546855 0.201821,-1.126282 0.605469,-1.738281 0.403643,-0.624979 0.944007,-1.197895 1.621094,-1.71875 0.677078,-0.520811 1.458327,-0.950498 2.34375,-1.289063 0.89843,-0.351538 1.842439,-0.527319 2.832031,-0.527343 0.976552,2.4e-5 1.809884,0.156274 2.5,0.46875 0.703112,0.312523 1.276028,0.729189 1.71875,1.25 0.455715,0.507834 0.787746,1.087261 0.996094,1.738281 0.208318,0.638041 0.312485,1.289082 0.3125,1.953125 -1.5e-5,0.49481 -0.09767,0.983091 -0.292969,1.464844 -0.182306,0.481787 -0.455744,0.944026 -0.820313,1.386718 -0.351576,0.442724 -0.781263,0.85288 -1.289062,1.230469 -0.507825,0.377619 -1.080741,0.709649 -1.71875,0.996094 0.742176,0.09116 1.432279,0.319024 2.070312,0.683594 0.651028,0.351575 1.210924,0.807303 1.679688,1.367187 0.468735,0.546886 0.839828,1.178396 1.113281,1.894531 0.273422,0.703134 0.41014,1.451832 0.410156,2.246094" />
    <path
       style="font-size:40px;font-style:normal;font-variant:normal;font-weight:normal;font-stretch:normal;fill:#ff2a2a;fill-opacity:1;stroke:none;font-family:Gentium;-inkscape-font-specification:Gentium"
       id="path6948"
       d="m -67.882203,71.182067 c -8e-6,0.507813 -0.104174,1.080729 -0.3125,1.71875 -0.19532,0.63802 -0.488288,1.289061 -0.878906,1.953125 -0.377611,0.664059 -0.83985,1.30859 -1.386719,1.933594 -0.533859,0.638016 -1.139327,1.210932 -1.816406,1.71875 l -0.878907,-0.683594 c 0.364581,-0.416672 0.67057,-0.820317 0.917969,-1.210938 0.260413,-0.390628 0.468746,-0.794274 0.625,-1.210937 0.156246,-0.416669 0.266923,-0.859377 0.332031,-1.328125 0.07812,-0.45573 0.117183,-0.963542 0.117188,-1.523438 -5e-6,-0.572916 -0.182296,-1.028644 -0.546875,-1.367187 -0.351566,-0.33854 -0.944013,-0.481769 -1.777344,-0.429688 l -0.3125,-0.917968 c 0.117186,-0.156248 0.364581,-0.332029 0.742188,-0.527344 0.377601,-0.20833 0.787757,-0.403642 1.230468,-0.585938 0.455725,-0.195308 0.898433,-0.351558 1.328125,-0.46875 0.442703,-0.130204 0.781245,-0.188797 1.015625,-0.175781 0.624994,0.299483 1.04817,0.709639 1.269532,1.230469 0.221346,0.507815 0.332023,1.132814 0.332031,1.875" />
    <path
       style="font-size:40px;font-style:normal;font-variant:normal;font-weight:normal;font-stretch:normal;fill:#ff2a2a;fill-opacity:1;stroke:none;font-family:Gentium;-inkscape-font-specification:Gentium"
       id="path6950"
       d="m -63.057984,72.549254 0,-1.035156 c 1.01562,-0.117186 1.861974,-0.247394 2.539062,-0.390625 0.677077,-0.156248 1.217441,-0.312498 1.621094,-0.46875 0.403638,-0.156248 0.690096,-0.305987 0.859375,-0.449219 0.169262,-0.156247 0.253898,-0.305987 0.253906,-0.449218 l 0,-15.566407 c -8e-6,-0.520814 -0.01954,-0.92446 -0.05859,-1.210937 -0.03907,-0.286439 -0.136727,-0.520813 -0.292968,-0.703125 -0.07813,-0.07811 -0.227873,-0.143209 -0.449219,-0.195313 -0.221362,-0.05206 -0.533862,-0.07159 -0.9375,-0.05859 -0.403652,0.01304 -0.911464,0.05861 -1.523438,0.136718 -0.611984,0.07815 -1.34766,0.208354 -2.207031,0.390625 l -0.410156,-0.996093 c 0.546872,-0.156229 1.191402,-0.371073 1.933594,-0.644532 0.755203,-0.273415 1.516921,-0.566384 2.285156,-0.878906 0.768221,-0.325498 1.497387,-0.644508 2.1875,-0.957031 0.690094,-0.325497 1.249989,-0.605445 1.679687,-0.839844 l 0.722657,0.683594 0,20.839844 c -1.2e-5,0.130211 0.0716,0.27344 0.214843,0.429687 0.143218,0.143232 0.397124,0.292971 0.761719,0.449219 0.364571,0.156252 0.859362,0.312501 1.484375,0.46875 0.638006,0.156251 1.445297,0.29297 2.421875,0.410156 l 0,1.035156 -13.085937,0" />
    <path
       style="font-size:40px;font-style:normal;font-variant:normal;font-weight:normal;font-stretch:normal;fill:#ff2a2a;fill-opacity:1;stroke:none;font-family:Gentium;-inkscape-font-specification:Gentium"
       id="path6952"
       d="m -37.276734,59.580504 c -1.1e-5,2.148449 -0.214854,4.22527 -0.644532,6.230469 -0.429696,1.992192 -1.035165,3.828128 -1.816406,5.507813 -0.781257,1.679687 -1.725266,3.151039 -2.832031,4.414062 -1.093754,1.276037 -2.311201,2.26562 -3.652344,2.96875 l -0.605469,-0.878906 c 0.833332,-0.70313 1.627602,-1.627608 2.382813,-2.773438 0.755204,-1.145834 1.419266,-2.473958 1.992187,-3.984375 0.572911,-1.510413 1.02213,-3.183589 1.347657,-5.019531 0.338534,-1.835929 0.507805,-3.802073 0.507812,-5.898437 -7e-6,-1.888007 -0.136726,-3.730453 -0.410156,-5.527344 -0.273444,-1.809876 -0.677089,-3.502583 -1.210938,-5.078125 -0.520838,-1.575496 -1.171879,-2.994766 -1.953125,-4.257813 -0.768232,-1.262992 -1.653647,-2.298147 -2.65625,-3.105468 l 0.605469,-0.878907 c 1.471351,0.664093 2.760413,1.608103 3.867188,2.832032 1.119785,1.210964 2.057284,2.617213 2.8125,4.21875 0.755199,1.601585 1.321605,3.359395 1.699218,5.273437 0.377594,1.901059 0.566396,3.886734 0.566407,5.957031" />
    <path
       style="font-size:40px;font-style:normal;font-variant:normal;font-weight:normal;font-stretch:normal;fill:#4682b4;fill-opacity:1;stroke:none;font-family:Gentium;-inkscape-font-specification:Gentium"
       id="path6905"
       d="m -91.844918,358.6814 c -1.471364,-0.67709 -2.766936,-1.62761 -3.886719,-2.85157 -1.106777,-1.21094 -2.037766,-2.61718 -2.792969,-4.21875 -0.742191,-1.60156 -1.302086,-3.35937 -1.679684,-5.27343 -0.37761,-1.91406 -0.56641,-3.90624 -0.56641,-5.97657 0,-2.1354 0.20833,-4.1992 0.625,-6.1914 0.429685,-1.99217 1.035153,-3.82811 1.816407,-5.50781 0.781244,-1.67967 1.718743,-3.15102 2.8125,-4.41407 1.106762,-1.27601 2.330719,-2.26559 3.671875,-2.96875 l 0.625,0.87891 c -0.846366,0.70315 -1.647146,1.62763 -2.402344,2.77344 -0.755217,1.14586 -1.419279,2.47398 -1.992188,3.98437 -0.559902,1.51044 -1.009121,3.18362 -1.347656,5.01953 -0.325526,1.83596 -0.488287,3.79559 -0.488281,5.87891 -6e-6,1.90105 0.136713,3.75652 0.410156,5.56641 0.273431,1.79688 0.677077,3.48307 1.210938,5.05859 0.533846,1.5625 1.184887,2.97526 1.953125,4.23828 0.768219,1.26302 1.653635,2.30468 2.65625,3.125 l -0.625,0.87891" />
    <path
       style="font-size:40px;font-style:normal;font-variant:normal;font-weight:normal;font-stretch:normal;fill:#4682b4;fill-opacity:1;stroke:none;font-family:Gentium;-inkscape-font-specification:Gentium"
       id="path6907"
       d="m -75.282418,340.92749 c -0.06512,0.26043 -0.156265,0.55991 -0.273438,0.89844 -0.104181,0.32553 -0.208348,0.59897 -0.3125,0.82031 l -12.929687,0 -0.488282,-0.46875 c 0.0651,-0.26041 0.149739,-0.54686 0.253907,-0.85937 0.117186,-0.31249 0.234373,-0.59895 0.351562,-0.85938 l 12.929688,0 0.46875,0.46875 0,0" />
    <path
       style="font-size:40px;font-style:normal;font-variant:normal;font-weight:normal;font-stretch:normal;fill:#4682b4;fill-opacity:1;stroke:none;font-family:Gentium;-inkscape-font-specification:Gentium"
       id="path6909"
       d="m -70.751168,352.52905 0,-1.03515 c 1.01562,-0.11719 1.861974,-0.2474 2.539062,-0.39063 0.677077,-0.15625 1.217441,-0.3125 1.621094,-0.46875 0.403638,-0.15625 0.690096,-0.30599 0.859375,-0.44922 0.169262,-0.15624 0.253898,-0.30598 0.253906,-0.44922 l 0,-15.5664 c -8e-6,-0.52082 -0.01954,-0.92446 -0.05859,-1.21094 -0.03907,-0.28644 -0.136727,-0.52081 -0.292968,-0.70312 -0.07813,-0.0781 -0.227873,-0.14321 -0.449219,-0.19532 -0.221362,-0.0521 -0.533861,-0.0716 -0.9375,-0.0586 -0.403652,0.013 -0.911464,0.0586 -1.523438,0.13672 -0.611983,0.0781 -1.34766,0.20835 -2.207031,0.39062 l -0.410156,-0.99609 c 0.546872,-0.15623 1.191402,-0.37107 1.933594,-0.64453 0.755203,-0.27342 1.516921,-0.56639 2.285156,-0.87891 0.768221,-0.3255 1.497387,-0.64451 2.1875,-0.95703 0.690094,-0.3255 1.24999,-0.60544 1.679687,-0.83984 l 0.722657,0.68359 0,20.83984 c -1.2e-5,0.13021 0.0716,0.27344 0.214843,0.42969 0.143218,0.14323 0.397124,0.29297 0.761719,0.44922 0.364571,0.15625 0.859362,0.3125 1.484375,0.46875 0.638006,0.15625 1.445297,0.29297 2.421875,0.41016 l 0,1.03515 -13.085937,0" />
    <path
       style="font-size:40px;font-style:normal;font-variant:normal;font-weight:normal;font-stretch:normal;fill:#4682b4;fill-opacity:1;stroke:none;font-family:Gentium;-inkscape-font-specification:Gentium"
       id="path6911"
       d="m -47.684762,351.16187 c -8e-6,0.50781 -0.104174,1.08072 -0.3125,1.71875 -0.19532,0.63802 -0.488288,1.28906 -0.878906,1.95312 -0.377611,0.66406 -0.83985,1.30859 -1.386719,1.93359 -0.533859,0.63802 -1.139327,1.21094 -1.816406,1.71875 l -0.878907,-0.68359 c 0.364581,-0.41667 0.67057,-0.82032 0.917969,-1.21094 0.260413,-0.39063 0.468746,-0.79427 0.625,-1.21093 0.156246,-0.41667 0.266923,-0.85938 0.332031,-1.32813 0.07812,-0.45573 0.117184,-0.96354 0.117188,-1.52344 -4e-6,-0.57291 -0.182296,-1.02864 -0.546875,-1.36718 -0.351566,-0.33854 -0.944013,-0.48177 -1.777344,-0.42969 l -0.3125,-0.91797 c 0.117186,-0.15625 0.364581,-0.33203 0.742188,-0.52734 0.377601,-0.20833 0.787757,-0.40365 1.230468,-0.58594 0.455725,-0.19531 0.898433,-0.35156 1.328125,-0.46875 0.442703,-0.13021 0.781245,-0.1888 1.015625,-0.17578 0.624994,0.29948 1.04817,0.70964 1.269532,1.23047 0.221346,0.50781 0.332023,1.13281 0.332031,1.875" />
    <path
       style="font-size:40px;font-style:normal;font-variant:normal;font-weight:normal;font-stretch:normal;fill:#4682b4;fill-opacity:1;stroke:none;font-family:Gentium;-inkscape-font-specification:Gentium"
       id="path6913"
       d="m -30.985543,340.92749 c -0.06512,0.26043 -0.156265,0.55991 -0.273438,0.89844 -0.104181,0.32553 -0.208348,0.59897 -0.3125,0.82031 l -12.929687,0 -0.488282,-0.46875 c 0.0651,-0.26041 0.149739,-0.54686 0.253907,-0.85937 0.117186,-0.31249 0.234373,-0.59895 0.351562,-0.85938 l 12.929688,0 0.46875,0.46875 0,0" />
    <path
       style="font-size:40px;font-style:normal;font-variant:normal;font-weight:normal;font-stretch:normal;fill:#4682b4;fill-opacity:1;stroke:none;font-family:Gentium;-inkscape-font-specification:Gentium"
       id="path6915"
       d="m -13.73945,352.52905 -13.554687,0 -0.566406,-1.44531 c 1.549475,-1.79687 2.89713,-3.38541 4.042968,-4.76562 1.158848,-1.38021 2.14843,-2.59765 2.96875,-3.65235 0.820303,-1.0677 1.497386,-1.99868 2.03125,-2.79297 0.533843,-0.80728 0.95702,-1.52342 1.269532,-2.14843 0.312487,-0.63801 0.527331,-1.21093 0.644531,-1.71875 0.117174,-0.52082 0.175768,-1.02863 0.175781,-1.52344 -1.3e-5,-0.59894 -0.07163,-1.15233 -0.214844,-1.66016 -0.143241,-0.52081 -0.371106,-0.97003 -0.683593,-1.34765 -0.312512,-0.39061 -0.722668,-0.69009 -1.230469,-0.89844 -0.494802,-0.22133 -1.09376,-0.33201 -1.796875,-0.33203 -0.533863,2e-5 -1.022144,0.12372 -1.464844,0.37109 -0.442715,0.24742 -0.82683,0.56643 -1.152344,0.95703 -0.325527,0.39065 -0.579433,0.82684 -0.761718,1.3086 -0.169277,0.48179 -0.253912,0.95053 -0.253907,1.40625 -0.221359,0.1172 -0.423182,0.22788 -0.605468,0.33203 -0.169276,0.10418 -0.351567,0.20184 -0.546875,0.29297 -0.182296,0.0781 -0.384119,0.14975 -0.605469,0.21484 -0.208337,0.0521 -0.462243,0.0912 -0.761719,0.11719 l -0.527344,-0.58594 c -2e-6,-0.67707 0.227862,-1.38019 0.683594,-2.10938 0.455726,-0.74216 1.061194,-1.41925 1.816406,-2.03125 0.755203,-0.61195 1.608067,-1.11325 2.558594,-1.5039 0.963533,-0.40362 1.946605,-0.60545 2.949219,-0.60547 0.781239,2e-5 1.510405,0.1107 2.1875,0.33203 0.690091,0.22138 1.282538,0.55992 1.777344,1.01563 0.507797,0.44273 0.904932,1.01564 1.191406,1.71875 0.286442,0.69012 0.429671,1.51043 0.429687,2.46093 -1.6e-5,0.57294 -0.08465,1.15887 -0.253906,1.75782 -0.156265,0.58595 -0.416682,1.22397 -0.78125,1.91406 -0.351577,0.6771 -0.813816,1.41928 -1.386719,2.22656 -0.559908,0.8073 -1.243502,1.71876 -2.050781,2.73438 -0.807302,1.00261 -1.738291,2.12891 -2.792969,3.3789 -1.054695,1.25001 -2.2461,2.65626 -3.574218,4.21875 l 8.164062,0 c 0.351549,0 0.644517,-0.11718 0.878906,-0.35156 0.247382,-0.24739 0.442694,-0.53385 0.585938,-0.85938 0.143214,-0.33853 0.253891,-0.68359 0.332031,-1.03515 0.07811,-0.35156 0.130193,-0.63802 0.15625,-0.85938 0.02603,-0.23437 0.03905,-0.35806 0.03906,-0.37109 l 0.976562,0.23437 -0.292969,5.60547" />
    <path
       style="font-size:40px;font-style:normal;font-variant:normal;font-weight:normal;font-stretch:normal;fill:#4682b4;fill-opacity:1;stroke:none;font-family:Gentium;-inkscape-font-specification:Gentium"
       id="path6917"
       d="m -0.67304378,339.5603 c -1.035e-5,2.14845 -0.21485388,4.22527 -0.64453122,6.23047 -0.4296968,1.99219 -1.035165,3.82813 -1.8164063,5.50781 -0.7812571,1.67969 -1.7252666,3.15104 -2.8320312,4.41407 -1.093754,1.27603 -2.3112007,2.26562 -3.6523438,2.96875 l -0.6054687,-0.87891 c 0.8333317,-0.70313 1.6276017,-1.62761 2.3828125,-2.77344 0.7552043,-1.14583 1.4192662,-2.47396 1.9921875,-3.98437 0.5729109,-1.51042 1.0221292,-3.18359 1.3476562,-5.01953 0.3385348,-1.83593 0.5078055,-3.80208 0.5078125,-5.89844 -7e-6,-1.88801 -0.1367256,-3.73045 -0.4101562,-5.52734 -0.2734439,-1.80988 -0.6770893,-3.50259 -1.2109375,-5.07813 -0.5208383,-1.5755 -1.1718793,-2.99477 -1.953125,-4.25781 -0.7682319,-1.26299 -1.6536477,-2.29815 -2.65625,-3.10547 l 0.6054687,-0.87891 c 1.4713513,0.6641 2.7604125,1.60811 3.8671875,2.83203 1.1197853,1.21097 2.0572843,2.61722 2.8125,4.21875 0.7551995,1.60159 1.3216052,3.3594 1.6992188,5.27344 0.37759398,1.90106 0.56639587,3.88674 0.56640622,5.95703" />
  </g>
</svg>
